<svg xmlns="http://www.w3.org/2000/svg" height="800" width="1200" id="svg6610" version="1.1" viewBox="-15.828 -20.235 137.176 121.41"><defs id="defs6598"><style id="style6596">.cls-2{fill:#fff}</style></defs><g id="Layer_2"><g id="Layer_1-2"><rect y="0" x="0" id="rect6602" ry="10.67" rx="10.67" height="80.94" width="105.52" fill="#de1e2e"/><path id="path6604" d="M95.07 74.83H11a4.9 4.9 0 01-4.9-4.89V11A4.9 4.9 0 0111 6.1h84.07A4.9 4.9 0 01100 11v59a4.89 4.89 0 01-4.93 4.83zM11 8.1A2.9 2.9 0 008.1 11v59a2.9 2.9 0 002.9 2.83h84.07A2.9 2.9 0 0098 69.94V11a2.9 2.9 0 00-2.93-2.9z" class="cls-2"/><path id="path6606" d="M84.5 52V26.42l4.12-4.12v-5.88h-4.93v4.33L80 20.68v-4.26c0-.05-4.53 0-4.53 0v4.33h-3.66v-4.33c0-.06-4.87 0-4.87 0v5.88L71 26.42s.06 12.83.06 12.7c0-.13-10.92 0-10.94 0-.02 0 0-5.07 0-5.07l2.77-2.77v-7.22c0-.14-4.12.06-4.39 0-.09 0 0 4.25 0 4.25h-3.44v-4.19H50.6a40.46 40.46 0 00.07 4.12h-3.85v-4.12h-4.33c-.13 0 0 7 0 7l3.11 3.11.07 4.86h-11V26.42l3.92-3.92v-6.08h-4.88v4.33l-3.78-.07v-4.26h-4.25v4.33c0-.01-3.45-.07-3.78-.07v-4.26s-4.93-.06-4.93 0v6.22l3.78 3.71v26.48s-3.92 3.85-3.92 4c0 .15.07 6.42.07 6.42H89v-6.77zm-55.31 4.41h-3V45.74h3zm.07-17.29h-3V28.45h3zm11.82 14.11h-3v-7.56h3zm19.72 7.43H45.74v-10.6s2.89-7.51 7.16-7.57h.13l.14-.15.17.17c4.65.38 7.46 7.53 7.46 7.53zm7.29-7.36h-3v-7.56h3zm11.75 3.11h-3V45.74h3zM80 37.9h-3V27.23h3z" class="cls-2"/></g></g></svg>