<?xml version="1.0" encoding="utf-8"?>
<!-- Generator: Adobe Illustrator 19.2.1, SVG Export Plug-In . SVG Version: 6.00 Build 0)  -->
<svg version="1.1" id="layer" xmlns="http://www.w3.org/2000/svg" xmlns:xlink="http://www.w3.org/1999/xlink" x="0px" y="0px"
	 viewBox="0 0 652 652" style="enable-background:new 0 0 652 652;" xml:space="preserve">
<style type="text/css">
	.st0{fill:#4E4E4F;}
	.st1{fill:#64873A;}
</style>
<g>
	<path class="st0" d="M544.3,345.5c1,0,1.9,0.8,1.9,1.9c0,1-0.8,1.9-1.9,1.9c-1,0-1.9-0.8-1.9-1.9
		C542.4,346.4,543.2,345.5,544.3,345.5z M571.5,327.5v21.7c0,6.6-4.2,10.7-10.4,10.7c-3.7,0-7.2-1.6-9.7-4.3l1.6-1.7
		c2,2.4,5,3.7,8.1,3.7c5.4,0,8-3.5,8-8.3v-4.1c-1.7,2.6-4.6,4.1-7.7,4.1c-5.8,0-10.5-4.7-10.5-10.6c0-0.2,0-0.4,0-0.6
		c-0.3-5.8,4.1-10.8,9.9-11.1c0.2,0,0.4,0,0.6,0c3.2,0,6.3,1.7,7.9,4.5v-3.9H571.5z M569.1,334.2c-1.4-3-4.4-4.9-7.7-4.9
		c-4.7,0-8,3.9-8,8.8c0,4.9,3.3,8.8,8,8.8c3.3-0.1,6.2-2,7.7-4.9V334.2z M598.1,338.1c0.2,6-4.5,11-10.4,11.2
		c-6,0.2-11-4.5-11.2-10.4c0-0.2,0-0.5,0-0.7c-0.2-6,4.5-11,10.4-11.2c6-0.2,11,4.5,11.2,10.4C598.1,337.6,598.1,337.8,598.1,338.1z
		 M595.6,338.1c0-4.8-3-8.8-8.3-8.8c-5.3,0-8.3,4-8.3,8.8s3,8.8,8.3,8.8C592.6,346.9,595.6,342.9,595.6,338.1z M602,327.5l8,17.1
		l8-17.1h2.5L610,349.6l-10.6-22.1H602z M20.6,287.1H36c13.2,0,20.8,7.6,20.8,18.1c0,13.8-12.1,17.4-16.5,17.8l18.3,28.1h-5.8
		l-17.9-27.8h-9.5v27.8h-4.8V287.1z M36.3,318.7c9.6,0,15.5-5.1,15.5-13.5s-6-13.5-15.5-13.5h-11v27.1H36.3z M74.4,316.1h28.5v4.4
		H74.4v26.2h31.3v4.4h-36v-64h35.5v4.4H74.4V316.1z M166.8,338.3l3.3,3.3c-6,6.8-14.6,10.7-23.7,10.6c-18.5,0-31.6-14.6-31.6-33.1
		c0-18.5,13.2-33.1,31.6-33.1c8.6-0.1,16.9,3.4,22.8,9.8l-3.4,3.1c-5-5.4-12-8.4-19.4-8.2c-15.9,0-26.7,12.7-26.7,28.4
		s10.8,28.4,26.7,28.4C154.3,347.6,161.7,344.2,166.8,338.3z M180.3,287.1h15.4c13.2,0,20.8,7.6,20.8,18.1
		c0,13.8-12.1,17.4-16.5,17.8l18.3,28.1h-5.8l-17.9-27.8h-9.5v27.8h-4.8L180.3,287.1z M196.1,318.7c9.6,0,15.5-5.1,15.5-13.5
		c0-8.4-6-13.5-15.5-13.5h-11v27.1H196.1z M234.2,316.1h28.5v4.4h-28.5v26.2h31.3v4.4h-36v-64h35.5v4.4h-30.7L234.2,316.1z
		 M347.2,291.5h-19.3v-4.4h43.3v4.4H352v59.6h-4.8V291.5z"/>
	<path class="st1" d="M278.6,351.1h-5.1l32.1-64.7l31.9,64.7h-5.1l-26.9-54.5L278.6,351.1 M398.1,316.9l2.7-2.1l-9.4-12.1v-10.7
		l6.7,8.6l2.7-2.1l-11.7-15.1l-11.7,15.1l2.7,2.1l6.6-8.5v10.7l-9.3,12l2.7,2.1l6.6-8.5v10.7l-9.3,12l2.7,2.1l6.6-8.5v26.4h4.8
		v-26.5l6.7,8.6l2.7-2.1l-9.4-12.1v-10.7L398.1,316.9"/>
	<path class="st0" d="M489.4,287.1l39.3,55.8v-55.8h4.8v64h-4.8l-39.3-55.9v55.9h-4.8v-64H489.4z"/>
	<path class="st1" d="M442.3,312c-0.5-0.1-0.9-0.1-1.4-0.1c-4,0-7.2,3.2-7.2,7.2c0,0.6,0.1,1.1,0.2,1.6l-7.5,12.8l12.8-7.5
		c3.9,0.9,7.7-1.5,8.6-5.4c0.2-1,0.3-2,0.1-3l7.4-13.1L442.3,312z M443,321.2c-1.1,1.1-3,1.1-4.1,0s-1.1-3,0-4.1
		c1.1-1.1,3-1.1,4.1,0C444.1,318.2,444.1,320,443,321.2C443,321.2,443,321.2,443,321.2z"/>
	<path class="st0" d="M436.7,291v-4.7c-14.6,1.9-25.4,13.6-27.1,28.6h5C416.1,302.5,424.4,292.8,436.7,291z M436.7,351.9v-4.7
		c-12.2-1.8-20.6-11.5-22.2-23.9h-5C411.3,338.3,422,350,436.7,351.9z M445.1,347.2v4.7c14.7-1.9,25.4-13.6,27.1-28.6h-5
		C465.8,335.6,457.4,345.3,445.1,347.2z M445.1,286.3v4.7c12.2,1.8,20.6,11.5,22.2,23.9h5C470.6,299.9,459.8,288.2,445.1,286.3z"/>
</g>
</svg>
