<?xml version="1.0" standalone="no"?><svg xmlns:xlink="http://www.w3.org/1999/xlink" xmlns="http://www.w3.org/2000/svg" viewBox="0 0 1000 583.3359059055969" preserveAspectRatio="xMaxYMax slice"><g transform="scale(1.234834686506344)"><rect x="0" y="0" width="809.8285714285714" height="472.4" fill="#ffffff"/><rect x="0" y="0" width="67.49" height="67.49" fill="#c1ecdd"/><rect x="0" y="0" width="67.49" height="67.49" fill="#a6e4ce"/><rect x="67.49" y="0" width="67.49" height="67.49" fill="#ababab"/><polygon points="134.98,0 134.98,67.49 67.49,67.49" fill="#8eddc1"/><rect x="134.97" y="0" width="67.49" height="67.49" fill="#d5d5d5"/><rect x="134.97" y="0" width="67.49" height="67.49" fill="#cdcdcd"/><rect x="202.45714285714286" y="0" width="67.48571428571428" height="67.48571428571428" fill="#ffffff"/><rect x="202.46" y="0" width="33.74" height="33.74" fill="#b9ead9"/><path d="M 202.46 33.74 A 33.74 33.74 0 0 0 236.20000000000002 0 L 202.46 0L202.46 33.74" fill="#888888"/><rect x="236.2" y="0" width="33.74" height="33.74" fill="#94dfc4"/><path d="M 236.2 0 A 33.74 33.74 0 0 0 269.94 33.74 L 269.94 0L236.2 0" fill="#7e7e7e"/><rect x="202.46" y="33.74" width="33.74" height="33.74" fill="#f1fbf7"/><path d="M 202.46 33.74 A 33.74 33.74 0 0 1 236.20000000000002 67.48 L 202.46 67.48L202.46 33.74" fill="#d3f2e7"/><rect x="236.2" y="33.74" width="33.74" height="33.74" fill="#e6f7f1"/><path d="M 236.2 67.48 A 33.74 33.74 0 0 1  269.94 33.74 L 269.94 67.48L236.2 67.48" fill="#929292"/><rect x="269.94" y="0" width="67.49" height="67.49" fill="#a6e4ce"/><rect x="269.94" y="0" width="67.49" height="67.49" fill="#cccccc"/><rect x="337.43" y="0" width="67.49" height="67.49" fill="#d8d8d8"/><path d="M 337.43 67.49 A 67.49 67.49 0 0 1  404.92 0 L 337.43 67.49 A 67.49 67.49 0 0 0 404.92 0" fill="#898989"/><rect x="404.91" y="0" width="67.49" height="67.49" fill="#7e7e7e"/><path d="M 404.91 0 A 67.49 67.49 0 0 1 472.40000000000003 67.49 L 404.91 67.49L404.91 0" fill="#cfcfcf"/><rect x="472.4" y="0" width="67.49" height="67.49" fill="#6e6e6e"/><rect x="472.4" y="0" width="67.49" height="67.49" fill="#aae5d0"/><rect x="539.8857142857142" y="0" width="67.48571428571428" height="67.48571428571428" fill="#ffffff"/><rect x="539.89" y="0" width="33.74" height="33.74" fill="#8cdcc0"/><polygon points="573.63,0 573.63,33.74 539.89,33.74" fill="#606060"/><rect x="573.63" y="0" width="33.74" height="33.74" fill="#b0b0b0"/><polygon points="573.63,0 607.37,0 573.63,33.74" fill="#bfbfbf"/><rect x="539.89" y="33.74" width="33.74" height="33.74" fill="#72d4b1"/><polygon points="539.89,33.74 573.63,33.74 573.63,67.48" fill="#8f8f8f"/><rect x="573.63" y="33.74" width="33.74" height="33.74" fill="#8c8c8c"/><polygon points="573.63,33.74 607.37,67.48 573.63,67.48" fill="#a1a1a1"/><rect x="607.3714285714285" y="0" width="67.48571428571428" height="67.48571428571428" fill="#ffffff"/><rect x="607.37" y="0" width="33.74" height="33.74" fill="#75d5b3"/><polygon points="641.11,0 641.11,33.74 607.37,33.74" fill="#6b6b6b"/><rect x="641.11" y="0" width="33.74" height="33.74" fill="#4a4a4a"/><polygon points="641.11,0 674.85,0 641.11,33.74" fill="#c2c2c2"/><rect x="607.37" y="33.74" width="33.74" height="33.74" fill="#dddddd"/><polygon points="607.37,33.74 641.11,33.74 641.11,67.48" fill="#4f4f4f"/><rect x="641.11" y="33.74" width="33.74" height="33.74" fill="#71d4b1"/><polygon points="641.11,33.74 674.85,67.48 641.11,67.48" fill="#8f8f8f"/><rect x="674.86" y="0" width="67.49" height="67.49" fill="#e5f7f1"/><rect x="674.86" y="0" width="67.49" height="67.49" fill="#cecece"/><rect x="742.342857142857" y="0" width="67.48571428571428" height="67.48571428571428" fill="#ffffff"/><rect x="742.34" y="0" width="33.74" height="33.74" fill="#434343"/><polygon points="776.08,0 776.08,33.74 742.34,33.74" fill="#999999"/><rect x="776.09" y="0" width="33.74" height="33.74" fill="#f7f7f7"/><polygon points="776.09,0 809.83,33.74 776.09,33.74" fill="#ade6d2"/><rect x="742.34" y="33.74" width="33.74" height="33.74" fill="#eaf9f3"/><polygon points="742.34,33.74 776.08,33.74 776.08,67.48" fill="#8c8c8c"/><rect x="776.09" y="33.74" width="33.74" height="33.74" fill="#b8b8b8"/><polygon points="776.09,33.74 809.83,33.74 776.09,67.48" fill="#beebdb"/><rect x="0" y="67.48571428571428" width="67.48571428571428" height="67.48571428571428" fill="#ffffff"/><rect x="0" y="67.49" width="33.74" height="33.74" fill="#b8b8b8"/><path d="M 0 101.22999999999999 A 33.74 33.74 0 0 1 33.74 67.49 L 33.74 75.925 A 25.305 25.305 0 0 0 8.435 101.22999999999999" fill="#97dfc6"/><rect x="33.74" y="67.49" width="33.74" height="33.74" fill="#8f8f8f"/><path d="M 33.74 67.49 A 33.74 33.74 0 0 1 67.48 101.22999999999999 L 59.045 101.22999999999999 A 25.305 25.305 0 0 0 33.74 75.925" fill="#535353"/><rect x="0" y="101.23" width="33.74" height="33.74" fill="#f5fcf9"/><path d="M 0 101.23 A 33.74 33.74 0 0 0 33.74 134.97 L 33.74 126.535 A 25.305 25.305 0 0 1 8.435 101.23" fill="#c9efe2"/><rect x="33.74" y="101.23" width="33.74" height="33.74" fill="#ebf9f4"/><path d="M 33.74 134.97 A 33.74 33.74 0 0 0 67.48 101.23 L 59.045 101.23 A 25.305 25.305 0 0 1 33.74 126.535" fill="#f4f4f4"/><rect x="67.48571428571428" y="67.48571428571428" width="67.48571428571428" height="67.48571428571428" fill="#ffffff"/><rect x="67.49" y="67.49" width="33.74" height="33.74" fill="#e7f8f2"/><path d="M 67.49 67.49 A 33.74 33.74 0 0 0 101.22999999999999 101.22999999999999 L 101.22999999999999 67.49L67.49 67.49" fill="#e2f6ef"/><rect x="101.23" y="67.49" width="33.74" height="33.74" fill="#7c7c7c"/><path d="M 101.23 101.22999999999999 A 33.74 33.74 0 0 0 134.97 67.49 L 101.23 67.49L101.23 101.22999999999999" fill="#72d4b1"/><rect x="67.49" y="101.23" width="33.74" height="33.74" fill="#f3f3f3"/><path d="M 67.49 134.97 A 33.74 33.74 0 0 1  101.22999999999999 101.23 L 101.22999999999999 134.97L67.49 134.97" fill="#e5f7f1"/><rect x="101.23" y="101.23" width="33.74" height="33.74" fill="#878787"/><path d="M 101.23 101.23 A 33.74 33.74 0 0 1 134.97 134.97 L 101.23 134.97L101.23 101.23" fill="#828282"/><rect x="134.97" y="67.49" width="67.49" height="67.49" fill="#caefe2"/><rect x="134.97" y="67.49" width="67.49" height="67.49" fill="#606060"/><rect x="202.46" y="67.49" width="67.49" height="67.49" fill="#f1f1f1"/><rect x="202.46" y="67.49" width="67.49" height="67.49" fill="#8d8d8d"/><rect x="269.94" y="67.49" width="67.49" height="67.49" fill="#8ddcc0"/><path d="M 269.94 134.98 A 67.49 67.49 0 0 0 337.43 67.49 L 269.94 67.49L269.94 134.98" fill="#feffff"/><rect x="337.4285714285714" y="67.48571428571428" width="67.48571428571428" height="67.48571428571428" fill="#ffffff"/><rect x="337.43" y="67.49" width="33.74" height="33.74" fill="#4d4d4d"/><polygon points="371.17,67.49 371.17,101.22999999999999 337.43,101.22999999999999" fill="#535353"/><rect x="371.17" y="67.49" width="33.74" height="33.74" fill="#fdfdfd"/><polygon points="371.17,67.49 404.91,101.22999999999999 371.17,101.22999999999999" fill="#c1ecdd"/><rect x="337.43" y="101.23" width="33.74" height="33.74" fill="#cdf0e4"/><polygon points="337.43,101.23 371.17,101.23 371.17,134.97" fill="#4c4c4c"/><rect x="371.17" y="101.23" width="33.74" height="33.74" fill="#c1c1c1"/><polygon points="371.17,101.23 404.91,101.23 371.17,134.97" fill="#585858"/><rect x="404.9142857142857" y="67.48571428571428" width="67.48571428571428" height="67.48571428571428" fill="#ffffff"/><rect x="404.91" y="67.49" width="33.74" height="33.74" fill="#d2f1e6"/><polygon points="438.65000000000003,67.49 438.65000000000003,101.22999999999999 404.91,101.22999999999999" fill="#a1e3cc"/><rect x="438.66" y="67.49" width="33.74" height="33.74" fill="#d8f3e9"/><polygon points="438.66,67.49 472.40000000000003,101.22999999999999 438.66,101.22999999999999" fill="#c5c5c5"/><rect x="404.91" y="101.23" width="33.74" height="33.74" fill="#cecece"/><polygon points="404.91,101.23 438.65000000000003,101.23 438.65000000000003,134.97" fill="#ededed"/><rect x="438.66" y="101.23" width="33.74" height="33.74" fill="#999999"/><polygon points="438.66,101.23 472.40000000000003,101.23 438.66,134.97" fill="#7b7b7b"/><rect x="472.4" y="67.49" width="67.49" height="67.49" fill="#8b8b8b"/><polygon points="539.89,67.49 539.89,134.98 472.4,134.98" fill="#b2b2b2"/><rect x="539.89" y="67.49" width="67.49" height="67.49" fill="#424242"/><rect x="539.89" y="67.49" width="67.49" height="67.49" fill="#bfbfbf"/><rect x="607.3714285714285" y="67.48571428571428" width="67.48571428571428" height="67.48571428571428" fill="#ffffff"/><rect x="607.37" y="67.49" width="33.74" height="33.74" fill="#daf4ea"/><path d="M 607.37 67.49 A 33.74 33.74 0 0 0 641.11 101.22999999999999 L 641.11 67.49L607.37 67.49" fill="#acacac"/><rect x="641.11" y="67.49" width="33.74" height="33.74" fill="#f6fcfa"/><path d="M 641.11 101.22999999999999 A 33.74 33.74 0 0 0 674.85 67.49 L 641.11 67.49L641.11 101.22999999999999" fill="#bcebda"/><rect x="607.37" y="101.23" width="33.74" height="33.74" fill="#5f5f5f"/><path d="M 607.37 134.97 A 33.74 33.74 0 0 1  641.11 101.23 L 641.11 134.97L607.37 134.97" fill="#585858"/><rect x="641.11" y="101.23" width="33.74" height="33.74" fill="#b7e9d7"/><path d="M 641.11 101.23 A 33.74 33.74 0 0 1 674.85 134.97 L 641.11 134.97L641.11 101.23" fill="#aeaeae"/><rect x="674.86" y="67.49" width="67.49" height="67.49" fill="#9f9f9f"/><rect x="674.86" y="67.49" width="67.49" height="67.49" fill="#e3f6ef"/><rect x="742.34" y="67.49" width="67.49" height="67.49" fill="#b6e9d7"/><path d="M 742.34 67.49 A 67.49 67.49 0 0 1  809.83 134.98 L 742.34 67.49 A 67.49 67.49 0 0 0 809.83 134.98" fill="#f5fcfa"/><rect x="0" y="134.97142857142856" width="67.48571428571428" height="67.48571428571428" fill="#ffffff"/><rect x="0" y="134.97" width="33.74" height="33.74" fill="#8b8b8b"/><polygon points="33.74,134.97 33.74,168.71 0,168.71" fill="#c7c7c7"/><rect x="33.74" y="134.97" width="33.74" height="33.74" fill="#e8f8f2"/><polygon points="33.74,134.97 67.48,168.71 33.74,168.71" fill="#bdebdb"/><rect x="0" y="168.71" width="33.74" height="33.74" fill="#fdfefe"/><polygon points="0,168.71 33.74,168.71 33.74,202.45000000000002" fill="#767676"/><rect x="33.74" y="168.71" width="33.74" height="33.74" fill="#b4b4b4"/><polygon points="33.74,168.71 67.48,168.71 33.74,202.45000000000002" fill="#cef0e4"/><rect x="67.49" y="134.97" width="67.49" height="67.49" fill="#f9fdfc"/><path d="M 67.49 202.45999999999998 A 67.49 67.49 0 0 0 134.98 134.97 L 67.49 134.97L67.49 202.45999999999998" fill="#a2e3cc"/><rect x="134.97142857142856" y="134.97142857142856" width="67.48571428571428" height="67.48571428571428" fill="#ffffff"/><rect x="134.97" y="134.97" width="33.74" height="33.74" fill="#9ce1c9"/><path d="M 134.97 134.97 A 33.74 33.74 0 0 1 168.71 168.71 L 134.97 168.71L134.97 134.97" fill="#c3c3c3"/><rect x="168.71" y="134.97" width="33.74" height="33.74" fill="#dcdcdc"/><path d="M 168.71 168.71 A 33.74 33.74 0 0 1  202.45000000000002 134.97 L 202.45000000000002 168.71L168.71 168.71" fill="#d8d8d8"/><rect x="134.97" y="168.71" width="33.74" height="33.74" fill="#fdfdfd"/><path d="M 134.97 202.45000000000002 A 33.74 33.74 0 0 0 168.71 168.71 L 134.97 168.71L134.97 202.45000000000002" fill="#abe6d1"/><rect x="168.71" y="168.71" width="33.74" height="33.74" fill="#abe5d1"/><path d="M 168.71 168.71 A 33.74 33.74 0 0 0 202.45000000000002 202.45000000000002 L 202.45000000000002 168.71L168.71 168.71" fill="#9b9b9b"/><rect x="202.46" y="134.97" width="67.49" height="67.49" fill="#ecf9f5"/><path d="M 202.46 202.45999999999998 A 67.49 67.49 0 0 0 269.95 134.97 L 202.46 134.97L202.46 202.45999999999998" fill="#ececec"/><rect x="269.9428571428571" y="134.97142857142856" width="67.48571428571428" height="67.48571428571428" fill="#ffffff"/><rect x="269.94" y="134.97" width="33.74" height="33.74" fill="#ecf9f5"/><path d="M 269.94 134.97 A 33.74 33.74 0 0 1 303.68 168.71 L 269.94 168.71L269.94 134.97" fill="#7c7c7c"/><rect x="303.69" y="134.97" width="33.74" height="33.74" fill="#78d6b5"/><path d="M 303.69 168.71 A 33.74 33.74 0 0 1  337.43 134.97 L 337.43 168.71L303.69 168.71" fill="#626262"/><rect x="269.94" y="168.71" width="33.74" height="33.74" fill="#97e0c6"/><path d="M 269.94 202.45000000000002 A 33.74 33.74 0 0 0 303.68 168.71 L 269.94 168.71L269.94 202.45000000000002" fill="#fcfcfc"/><rect x="303.69" y="168.71" width="33.74" height="33.74" fill="#e8f8f2"/><path d="M 303.69 168.71 A 33.74 33.74 0 0 0 337.43 202.45000000000002 L 337.43 168.71L303.69 168.71" fill="#9f9f9f"/><rect x="337.4285714285714" y="134.97142857142856" width="67.48571428571428" height="67.48571428571428" fill="#ffffff"/><rect x="337.43" y="134.97" width="33.74" height="33.74" fill="#878787"/><path d="M 337.43 168.71 A 33.74 33.74 0 0 1  371.17 134.97 L 371.17 168.71L337.43 168.71" fill="#ccf0e3"/><rect x="371.17" y="134.97" width="33.74" height="33.74" fill="#c3c3c3"/><path d="M 371.17 134.97 A 33.74 33.74 0 0 1 404.91 168.71 L 371.17 168.71L371.17 134.97" fill="#dbdbdb"/><rect x="337.43" y="168.71" width="33.74" height="33.74" fill="#72d4b2"/><path d="M 337.43 168.71 A 33.74 33.74 0 0 0 371.17 202.45000000000002 L 371.17 168.71L337.43 168.71" fill="#e7f8f2"/><rect x="371.17" y="168.71" width="33.74" height="33.74" fill="#d4f2e7"/><path d="M 371.17 202.45000000000002 A 33.74 33.74 0 0 0 404.91 168.71 L 371.17 168.71L371.17 202.45000000000002" fill="#c8eee1"/><rect x="404.91" y="134.97" width="67.49" height="67.49" fill="#b1e7d4"/><rect x="404.91" y="134.97" width="67.49" height="67.49" fill="#e0f6ee"/><rect x="472.4" y="134.97" width="67.49" height="67.49" fill="#b8b8b8"/><path d="M 472.4 202.45999999999998 A 67.49 67.49 0 0 1  539.89 134.97 L 472.4 202.45999999999998 A 67.49 67.49 0 0 0 539.89 134.97" fill="#d6d6d6"/><rect x="539.89" y="134.97" width="67.49" height="67.49" fill="#def5ed"/><path d="M 539.89 134.97 A 67.49 67.49 0 0 1  607.38 202.45999999999998 L 539.89 134.97 A 67.49 67.49 0 0 0 607.38 202.45999999999998" fill="#414141"/><rect x="607.3714285714285" y="134.97142857142856" width="67.48571428571428" height="67.48571428571428" fill="#ffffff"/><rect x="607.37" y="134.97" width="33.74" height="33.74" fill="#cbefe2"/><path d="M 607.37 134.97 A 33.74 33.74 0 0 0 641.11 168.71 L 641.11 134.97L607.37 134.97" fill="#dbdbdb"/><rect x="641.11" y="134.97" width="33.74" height="33.74" fill="#696969"/><path d="M 641.11 168.71 A 33.74 33.74 0 0 0 674.85 134.97 L 641.11 134.97L641.11 168.71" fill="#939393"/><rect x="607.37" y="168.71" width="33.74" height="33.74" fill="#7dd8b8"/><path d="M 607.37 202.45000000000002 A 33.74 33.74 0 0 1  641.11 168.71 L 641.11 202.45000000000002L607.37 202.45000000000002" fill="#9fe2ca"/><rect x="641.11" y="168.71" width="33.74" height="33.74" fill="#e6e6e6"/><path d="M 641.11 168.71 A 33.74 33.74 0 0 1 674.85 202.45000000000002 L 641.11 202.45000000000002L641.11 168.71" fill="#666666"/><rect x="674.86" y="134.97" width="67.49" height="67.49" fill="#83d9bb"/><path d="M 674.86 202.45999999999998 A 67.49 67.49 0 0 1  742.35 134.97 L 674.86 202.45999999999998 A 67.49 67.49 0 0 0 742.35 134.97" fill="#575757"/><rect x="742.342857142857" y="134.97142857142856" width="67.48571428571428" height="67.48571428571428" fill="#ffffff"/><rect x="742.34" y="134.97" width="33.74" height="33.74" fill="#a7a7a7"/><path d="M 742.34 168.71 A 33.74 33.74 0 0 1 776.08 134.97 L 776.08 143.405 A 25.305 25.305 0 0 0 750.775 168.71" fill="#fafafa"/><rect x="776.09" y="134.97" width="33.74" height="33.74" fill="#5c5c5c"/><path d="M 776.09 134.97 A 33.74 33.74 0 0 1 809.83 168.71 L 801.395 168.71 A 25.305 25.305 0 0 0 776.09 143.405" fill="#858585"/><rect x="742.34" y="168.71" width="33.74" height="33.74" fill="#ebebeb"/><path d="M 742.34 168.71 A 33.74 33.74 0 0 0 776.08 202.45000000000002 L 776.08 194.01500000000001 A 25.305 25.305 0 0 1 750.775 168.71" fill="#ecf9f5"/><rect x="776.09" y="168.71" width="33.74" height="33.74" fill="#b4b4b4"/><path d="M 776.09 202.45000000000002 A 33.74 33.74 0 0 0 809.83 168.71 L 801.395 168.71 A 25.305 25.305 0 0 1 776.09 194.01500000000001" fill="#85dabc"/><rect x="0" y="202.46" width="67.49" height="67.49" fill="#9ee2ca"/><path d="M 0 202.46 A 67.49 67.49 0 0 1  67.49 269.95 L 0 202.46 A 67.49 67.49 0 0 0 67.49 269.95" fill="#c2ecdd"/><rect x="67.49" y="202.46" width="67.49" height="67.49" fill="#676767"/><rect x="67.49" y="202.46" width="67.49" height="67.49" fill="#81d9ba"/><rect x="134.97" y="202.46" width="67.49" height="67.49" fill="#e5f7f1"/><polygon points="134.97,202.46 202.45999999999998,269.95 134.97,269.95" fill="#e9f8f3"/><rect x="202.46" y="202.46" width="67.49" height="67.49" fill="#e4e4e4"/><polygon points="202.46,202.46 269.95,202.46 269.95,269.95" fill="#cdf0e4"/><rect x="269.9428571428571" y="202.45714285714286" width="67.48571428571428" height="67.48571428571428" fill="#ffffff"/><rect x="269.94" y="202.46" width="33.74" height="33.74" fill="#818181"/><path d="M 269.94 202.46 A 33.74 33.74 0 0 0 303.68 236.20000000000002 L 303.68 202.46L269.94 202.46" fill="#4f4f4f"/><rect x="303.69" y="202.46" width="33.74" height="33.74" fill="#f4fcf9"/><path d="M 303.69 236.20000000000002 A 33.74 33.74 0 0 0 337.43 202.46 L 303.69 202.46L303.69 236.20000000000002" fill="#baead9"/><rect x="269.94" y="236.2" width="33.74" height="33.74" fill="#a4e4cd"/><path d="M 269.94 269.94 A 33.74 33.74 0 0 1  303.68 236.2 L 303.68 269.94L269.94 269.94" fill="#b0b0b0"/><rect x="303.69" y="236.2" width="33.74" height="33.74" fill="#a2e3cc"/><path d="M 303.69 236.2 A 33.74 33.74 0 0 1 337.43 269.94 L 303.69 269.94L303.69 236.2" fill="#858585"/><rect x="337.43" y="202.46" width="67.49" height="67.49" fill="#9be1c8"/><polygon points="337.43,202.46 404.92,202.46 337.43,269.95" fill="#75d5b3"/><rect x="404.9142857142857" y="202.45714285714286" width="67.48571428571428" height="67.48571428571428" fill="#ffffff"/><rect x="404.91" y="202.46" width="33.74" height="33.74" fill="#d6f3e9"/><path d="M 404.91 236.20000000000002 A 33.74 33.74 0 0 1  438.65000000000003 202.46 L 438.65000000000003 236.20000000000002L404.91 236.20000000000002" fill="#f4f4f4"/><rect x="438.66" y="202.46" width="33.74" height="33.74" fill="#9ae0c8"/><path d="M 438.66 202.46 A 33.74 33.74 0 0 1 472.40000000000003 236.20000000000002 L 438.66 236.20000000000002L438.66 202.46" fill="#acacac"/><rect x="404.91" y="236.2" width="33.74" height="33.74" fill="#afafaf"/><path d="M 404.91 236.2 A 33.74 33.74 0 0 0 438.65000000000003 269.94 L 438.65000000000003 236.2L404.91 236.2" fill="#74d5b3"/><rect x="438.66" y="236.2" width="33.74" height="33.74" fill="#f8f8f8"/><path d="M 438.66 269.94 A 33.74 33.74 0 0 0 472.40000000000003 236.2 L 438.66 236.2L438.66 269.94" fill="#c6c6c6"/><rect x="472.4" y="202.46" width="67.49" height="67.49" fill="#676767"/><polygon points="472.4,202.46 539.89,269.95 472.4,269.95" fill="#bababa"/><rect x="539.89" y="202.46" width="67.49" height="67.49" fill="#ddf5ec"/><rect x="539.89" y="202.46" width="67.49" height="67.49" fill="#d0f1e5"/><rect x="607.3714285714285" y="202.45714285714286" width="67.48571428571428" height="67.48571428571428" fill="#ffffff"/><rect x="607.37" y="202.46" width="33.74" height="33.74" fill="#a9e5d0"/><polygon points="641.11,202.46 641.11,236.20000000000002 607.37,236.20000000000002" fill="#d1f1e6"/><rect x="641.11" y="202.46" width="33.74" height="33.74" fill="#a4a4a4"/><polygon points="641.11,202.46 674.85,236.20000000000002 641.11,236.20000000000002" fill="#f1f1f1"/><rect x="607.37" y="236.2" width="33.74" height="33.74" fill="#7c7c7c"/><polygon points="607.37,236.2 641.11,236.2 641.11,269.94" fill="#dff5ed"/><rect x="641.11" y="236.2" width="33.74" height="33.74" fill="#88dbbe"/><polygon points="641.11,236.2 674.85,236.2 641.11,269.94" fill="#73d5b2"/><rect x="674.86" y="202.46" width="67.49" height="67.49" fill="#7b7b7b"/><path d="M 674.86 269.95 A 67.49 67.49 0 0 1  742.35 202.46 L 674.86 269.95 A 67.49 67.49 0 0 0 742.35 202.46" fill="#fbfefd"/><rect x="742.342857142857" y="202.45714285714286" width="67.48571428571428" height="67.48571428571428" fill="#ffffff"/><rect x="742.34" y="202.46" width="33.74" height="33.74" fill="#f6fcfa"/><polygon points="776.08,202.46 776.08,236.20000000000002 742.34,236.20000000000002" fill="#9ee2ca"/><rect x="776.09" y="202.46" width="33.74" height="33.74" fill="#e2e2e2"/><polygon points="776.09,202.46 809.83,202.46 776.09,236.20000000000002" fill="#404040"/><rect x="742.34" y="236.2" width="33.74" height="33.74" fill="#a5e4ce"/><polygon points="742.34,236.2 776.08,236.2 776.08,269.94" fill="#a6e4ce"/><rect x="776.09" y="236.2" width="33.74" height="33.74" fill="#7ad7b6"/><polygon points="776.09,236.2 809.83,269.94 776.09,269.94" fill="#f1fbf8"/><rect x="0" y="269.9428571428571" width="67.48571428571428" height="67.48571428571428" fill="#ffffff"/><rect x="0" y="269.94" width="33.74" height="33.74" fill="#434343"/><path d="M 0 303.68 A 33.74 33.74 0 0 1  33.74 269.94 L 33.74 303.68L0 303.68" fill="#d1f1e6"/><rect x="33.74" y="269.94" width="33.74" height="33.74" fill="#ededed"/><path d="M 33.74 269.94 A 33.74 33.74 0 0 1 67.48 303.68 L 33.74 303.68L33.74 269.94" fill="#646464"/><rect x="0" y="303.69" width="33.74" height="33.74" fill="#a3a3a3"/><path d="M 0 303.69 A 33.74 33.74 0 0 0 33.74 337.43 L 33.74 303.69L0 303.69" fill="#747474"/><rect x="33.74" y="303.69" width="33.74" height="33.74" fill="#b5e9d6"/><path d="M 33.74 337.43 A 33.74 33.74 0 0 0 67.48 303.69 L 33.74 303.69L33.74 337.43" fill="#b6b6b6"/><rect x="67.49" y="269.94" width="67.49" height="67.49" fill="#84dabb"/><rect x="67.49" y="269.94" width="67.49" height="67.49" fill="#bbbbbb"/><rect x="134.97" y="269.94" width="67.49" height="67.49" fill="#97e0c6"/><path d="M 134.97 337.43 A 67.49 67.49 0 0 1  202.45999999999998 269.94 L 202.45999999999998 337.43L134.97 337.43" fill="#d7d7d7"/><rect x="202.46" y="269.94" width="67.49" height="67.49" fill="#a6e4ce"/><polygon points="269.95,269.94 269.95,337.43 202.46,337.43" fill="#9e9e9e"/><rect x="269.9428571428571" y="269.9428571428571" width="67.48571428571428" height="67.48571428571428" fill="#ffffff"/><rect x="269.94" y="269.94" width="33.74" height="33.74" fill="#f2f2f2"/><polygon points="303.68,269.94 303.68,303.68 269.94,303.68" fill="#656565"/><rect x="303.69" y="269.94" width="33.74" height="33.74" fill="#80d9b9"/><polygon points="303.69,269.94 337.43,303.68 303.69,303.68" fill="#808080"/><rect x="269.94" y="303.69" width="33.74" height="33.74" fill="#9e9e9e"/><polygon points="269.94,303.69 303.68,303.69 269.94,337.43" fill="#ebebeb"/><rect x="303.69" y="303.69" width="33.74" height="33.74" fill="#a2a2a2"/><polygon points="303.69,303.69 337.43,303.69 337.43,337.43" fill="#def5ed"/><rect x="337.43" y="269.94" width="67.49" height="67.49" fill="#8fddc2"/><path d="M 337.43 269.94 A 67.49 67.49 0 0 1  404.92 337.43 L 337.43 269.94 A 67.49 67.49 0 0 0 404.92 337.43" fill="#cff0e5"/><rect x="404.9142857142857" y="269.9428571428571" width="67.48571428571428" height="67.48571428571428" fill="#ffffff"/><rect x="404.91" y="269.94" width="33.74" height="33.74" fill="#d1d1d1"/><path d="M 404.91 303.68 A 33.74 33.74 0 0 0 438.65000000000003 269.94 L 404.91 269.94L404.91 303.68" fill="#bababa"/><rect x="438.66" y="269.94" width="33.74" height="33.74" fill="#9a9a9a"/><path d="M 438.66 269.94 A 33.74 33.74 0 0 0 472.40000000000003 303.68 L 472.40000000000003 269.94L438.66 269.94" fill="#b3e8d6"/><rect x="404.91" y="303.69" width="33.74" height="33.74" fill="#7e7e7e"/><path d="M 404.91 303.69 A 33.74 33.74 0 0 1 438.65000000000003 337.43 L 404.91 337.43L404.91 303.69" fill="#b2e8d5"/><rect x="438.66" y="303.69" width="33.74" height="33.74" fill="#868686"/><path d="M 438.66 337.43 A 33.74 33.74 0 0 1  472.40000000000003 303.69 L 472.40000000000003 337.43L438.66 337.43" fill="#cbcbcb"/><rect x="472.4" y="269.9428571428571" width="67.48571428571428" height="67.48571428571428" fill="#ffffff"/><rect x="472.4" y="269.94" width="33.74" height="33.74" fill="#d6f3e8"/><path d="M 472.4 303.68 A 33.74 33.74 0 0 0 506.14 269.94 L 472.4 269.94L472.4 303.68" fill="#c2c2c2"/><rect x="506.14" y="269.94" width="33.74" height="33.74" fill="#a7e4cf"/><path d="M 506.14 269.94 A 33.74 33.74 0 0 0 539.88 303.68 L 539.88 269.94L506.14 269.94" fill="#525252"/><rect x="472.4" y="303.69" width="33.74" height="33.74" fill="#9f9f9f"/><path d="M 472.4 303.69 A 33.74 33.74 0 0 1 506.14 337.43 L 472.4 337.43L472.4 303.69" fill="#e4f7f0"/><rect x="506.14" y="303.69" width="33.74" height="33.74" fill="#eaf9f3"/><path d="M 506.14 337.43 A 33.74 33.74 0 0 1  539.88 303.69 L 539.88 337.43L506.14 337.43" fill="#979797"/><rect x="539.89" y="269.94" width="67.49" height="67.49" fill="#77d6b4"/><polygon points="539.89,269.94 607.38,337.43 539.89,337.43" fill="#77d6b4"/><rect x="607.37" y="269.94" width="67.49" height="67.49" fill="#c7c7c7"/><rect x="607.37" y="269.94" width="67.49" height="67.49" fill="#fdfefe"/><rect x="674.8571428571428" y="269.9428571428571" width="67.48571428571428" height="67.48571428571428" fill="#ffffff"/><rect x="674.86" y="269.94" width="33.74" height="33.74" fill="#daf4eb"/><polygon points="708.6,269.94 708.6,303.68 674.86,303.68" fill="#9fe2ca"/><rect x="708.6" y="269.94" width="33.74" height="33.74" fill="#757575"/><polygon points="708.6,269.94 742.34,303.68 708.6,303.68" fill="#e8e8e8"/><rect x="674.86" y="303.69" width="33.74" height="33.74" fill="#f5f5f5"/><polygon points="674.86,303.69 708.6,303.69 708.6,337.43" fill="#cdf0e3"/><rect x="708.6" y="303.69" width="33.74" height="33.74" fill="#e8f8f2"/><polygon points="708.6,303.69 742.34,303.69 708.6,337.43" fill="#525252"/><rect x="742.34" y="269.94" width="67.49" height="67.49" fill="#a8a8a8"/><rect x="742.34" y="269.94" width="67.49" height="67.49" fill="#e1e1e1"/><rect x="0" y="337.43" width="67.49" height="67.49" fill="#a0a0a0"/><rect x="0" y="337.43" width="67.49" height="67.49" fill="#bfbfbf"/><rect x="67.48571428571428" y="337.4285714285714" width="67.48571428571428" height="67.48571428571428" fill="#ffffff"/><rect x="67.49" y="337.43" width="33.74" height="33.74" fill="#e0f6ee"/><polygon points="101.22999999999999,337.43 101.22999999999999,371.17 67.49,371.17" fill="#bcebda"/><rect x="101.23" y="337.43" width="33.74" height="33.74" fill="#4c4c4c"/><polygon points="101.23,337.43 134.97,371.17 101.23,371.17" fill="#575757"/><rect x="67.49" y="371.17" width="33.74" height="33.74" fill="#6e6e6e"/><polygon points="67.49,371.17 101.22999999999999,371.17 101.22999999999999,404.91" fill="#dff5ed"/><rect x="101.23" y="371.17" width="33.74" height="33.74" fill="#e3f6f0"/><polygon points="101.23,371.17 134.97,371.17 101.23,404.91" fill="#a9e5d0"/><rect x="134.97142857142856" y="337.4285714285714" width="67.48571428571428" height="67.48571428571428" fill="#ffffff"/><rect x="134.97" y="337.43" width="33.74" height="33.74" fill="#c4eddf"/><path d="M 134.97 371.17 A 33.74 33.74 0 0 1 168.71 337.43 L 168.71 345.865 A 25.305 25.305 0 0 0 143.405 371.17" fill="#94dfc4"/><rect x="168.71" y="337.43" width="33.74" height="33.74" fill="#d3d3d3"/><path d="M 168.71 337.43 A 33.74 33.74 0 0 1 202.45000000000002 371.17 L 194.01500000000001 371.17 A 25.305 25.305 0 0 0 168.71 345.865" fill="#98e0c7"/><rect x="134.97" y="371.17" width="33.74" height="33.74" fill="#f1f1f1"/><path d="M 134.97 371.17 A 33.74 33.74 0 0 0 168.71 404.91 L 168.71 396.475 A 25.305 25.305 0 0 1 143.405 371.17" fill="#dbf4eb"/><rect x="168.71" y="371.17" width="33.74" height="33.74" fill="#c1c1c1"/><path d="M 168.71 404.91 A 33.74 33.74 0 0 0 202.45000000000002 371.17 L 194.01500000000001 371.17 A 25.305 25.305 0 0 1 168.71 396.475" fill="#98e0c6"/><rect x="202.46" y="337.43" width="67.49" height="67.49" fill="#808080"/><polygon points="202.46,337.43 269.95,337.43 202.46,404.92" fill="#a3e3cd"/><rect x="269.94" y="337.43" width="67.49" height="67.49" fill="#959595"/><polygon points="269.94,337.43 337.43,337.43 269.94,404.92" fill="#9b9b9b"/><rect x="337.4285714285714" y="337.4285714285714" width="67.48571428571428" height="67.48571428571428" fill="#ffffff"/><rect x="337.43" y="337.43" width="33.74" height="33.74" fill="#c3c3c3"/><path d="M 337.43 337.43 A 33.74 33.74 0 0 1 371.17 371.17 L 337.43 371.17L337.43 337.43" fill="#73d5b2"/><rect x="371.17" y="337.43" width="33.74" height="33.74" fill="#f1fbf7"/><path d="M 371.17 371.17 A 33.74 33.74 0 0 1  404.91 337.43 L 404.91 371.17L371.17 371.17" fill="#6c6c6c"/><rect x="337.43" y="371.17" width="33.74" height="33.74" fill="#c1ecdd"/><path d="M 337.43 404.91 A 33.74 33.74 0 0 0 371.17 371.17 L 337.43 371.17L337.43 404.91" fill="#8ddcc0"/><rect x="371.17" y="371.17" width="33.74" height="33.74" fill="#757575"/><path d="M 371.17 371.17 A 33.74 33.74 0 0 0 404.91 404.91 L 404.91 371.17L371.17 371.17" fill="#b2b2b2"/><rect x="404.9142857142857" y="337.4285714285714" width="67.48571428571428" height="67.48571428571428" fill="#ffffff"/><rect x="404.91" y="337.43" width="33.74" height="33.74" fill="#dddddd"/><path d="M 404.91 371.17 A 33.74 33.74 0 0 0 438.65000000000003 337.43 L 404.91 337.43L404.91 371.17" fill="#d1f1e6"/><rect x="438.66" y="337.43" width="33.74" height="33.74" fill="#9c9c9c"/><path d="M 438.66 337.43 A 33.74 33.74 0 0 0 472.40000000000003 371.17 L 472.40000000000003 337.43L438.66 337.43" fill="#77d6b4"/><rect x="404.91" y="371.17" width="33.74" height="33.74" fill="#404040"/><path d="M 404.91 371.17 A 33.74 33.74 0 0 1 438.65000000000003 404.91 L 404.91 404.91L404.91 371.17" fill="#e6e6e6"/><rect x="438.66" y="371.17" width="33.74" height="33.74" fill="#c1ecdd"/><path d="M 438.66 404.91 A 33.74 33.74 0 0 1  472.40000000000003 371.17 L 472.40000000000003 404.91L438.66 404.91" fill="#696969"/><rect x="472.4" y="337.43" width="67.49" height="67.49" fill="#beebdc"/><rect x="472.4" y="337.43" width="67.49" height="67.49" fill="#f2fbf8"/><rect x="539.89" y="337.43" width="67.49" height="67.49" fill="#7a7a7a"/><polygon points="607.38,337.43 607.38,404.92 539.89,404.92" fill="#f2f2f2"/><rect x="607.3714285714285" y="337.4285714285714" width="67.48571428571428" height="67.48571428571428" fill="#ffffff"/><rect x="607.37" y="337.43" width="33.74" height="33.74" fill="#a0a0a0"/><polygon points="641.11,337.43 641.11,371.17 607.37,371.17" fill="#fefffe"/><rect x="641.11" y="337.43" width="33.74" height="33.74" fill="#b7b7b7"/><polygon points="641.11,337.43 674.85,371.17 641.11,371.17" fill="#c0ecdd"/><rect x="607.37" y="371.17" width="33.74" height="33.74" fill="#9c9c9c"/><polygon points="607.37,371.17 641.11,371.17 641.11,404.91" fill="#919191"/><rect x="641.11" y="371.17" width="33.74" height="33.74" fill="#7f7f7f"/><polygon points="641.11,371.17 674.85,371.17 641.11,404.91" fill="#bdebdb"/><rect x="674.8571428571428" y="337.4285714285714" width="67.48571428571428" height="67.48571428571428" fill="#ffffff"/><rect x="674.86" y="337.43" width="33.74" height="33.74" fill="#cbefe2"/><path d="M 674.86 371.17 A 33.74 33.74 0 0 1  708.6 337.43 L 708.6 371.17L674.86 371.17" fill="#f5fcf9"/><rect x="708.6" y="337.43" width="33.74" height="33.74" fill="#effaf6"/><path d="M 708.6 337.43 A 33.74 33.74 0 0 1 742.34 371.17 L 708.6 371.17L708.6 337.43" fill="#caefe2"/><rect x="674.86" y="371.17" width="33.74" height="33.74" fill="#aaaaaa"/><path d="M 674.86 371.17 A 33.74 33.74 0 0 0 708.6 404.91 L 708.6 371.17L674.86 371.17" fill="#90ddc2"/><rect x="708.6" y="371.17" width="33.74" height="33.74" fill="#f5fcfa"/><path d="M 708.6 404.91 A 33.74 33.74 0 0 0 742.34 371.17 L 708.6 371.17L708.6 404.91" fill="#b3e8d5"/><rect x="742.342857142857" y="337.4285714285714" width="67.48571428571428" height="67.48571428571428" fill="#ffffff"/><rect x="742.34" y="337.43" width="33.74" height="33.74" fill="#eefaf6"/><path d="M 742.34 371.17 A 33.74 33.74 0 0 1  776.08 337.43 L 776.08 371.17L742.34 371.17" fill="#7fd8b9"/><rect x="776.09" y="337.43" width="33.74" height="33.74" fill="#5b5b5b"/><path d="M 776.09 337.43 A 33.74 33.74 0 0 1 809.83 371.17 L 776.09 371.17L776.09 337.43" fill="#adadad"/><rect x="742.34" y="371.17" width="33.74" height="33.74" fill="#ddf5ec"/><path d="M 742.34 371.17 A 33.74 33.74 0 0 0 776.08 404.91 L 776.08 371.17L742.34 371.17" fill="#5a5a5a"/><rect x="776.09" y="371.17" width="33.74" height="33.74" fill="#daf4eb"/><path d="M 776.09 404.91 A 33.74 33.74 0 0 0 809.83 371.17 L 776.09 371.17L776.09 404.91" fill="#f7fdfb"/><rect x="0" y="404.9142857142857" width="67.48571428571428" height="67.48571428571428" fill="#ffffff"/><rect x="0" y="404.91" width="33.74" height="33.74" fill="#91dec2"/><circle cx="16.87" cy="421.78000000000003" r="16.87" fill="#9d9d9d"/><rect x="33.74" y="404.91" width="33.74" height="33.74" fill="#9b9b9b"/><rect x="33.74" y="404.91" width="33.74" height="33.74" fill="#8e8e8e"/><rect x="0" y="438.66" width="33.74" height="33.74" fill="#daf4ea"/><circle cx="16.87" cy="455.53000000000003" r="16.87" fill="#4e4e4e"/><rect x="33.74" y="438.66" width="33.74" height="33.74" fill="#b2e8d5"/><rect x="33.74" y="438.66" width="33.74" height="33.74" fill="#87dbbd"/><rect x="67.48571428571428" y="404.9142857142857" width="67.48571428571428" height="67.48571428571428" fill="#ffffff"/><rect x="67.49" y="404.91" width="33.74" height="33.74" fill="#484848"/><circle cx="84.36" cy="421.78000000000003" r="16.87" fill="#b5b5b5"/><rect x="101.23" y="404.91" width="33.74" height="33.74" fill="#c4edde"/><rect x="101.23" y="404.91" width="33.74" height="33.74" fill="#f8fdfb"/><rect x="67.49" y="438.66" width="33.74" height="33.74" fill="#71d4b1"/><circle cx="84.36" cy="455.53000000000003" r="16.87" fill="#cbefe2"/><rect x="101.23" y="438.66" width="33.74" height="33.74" fill="#ddf5ec"/><rect x="101.23" y="438.66" width="33.74" height="33.74" fill="#effaf6"/><rect x="134.97" y="404.91" width="67.49" height="67.49" fill="#585858"/><polygon points="134.97,404.91 202.45999999999998,472.40000000000003 134.97,472.40000000000003" fill="#cecece"/><rect x="202.45714285714286" y="404.9142857142857" width="67.48571428571428" height="67.48571428571428" fill="#ffffff"/><rect x="202.46" y="404.91" width="33.74" height="33.74" fill="#828282"/><polygon points="236.20000000000002,404.91 236.20000000000002,438.65000000000003 202.46,438.65000000000003" fill="#bfbfbf"/><rect x="236.2" y="404.91" width="33.74" height="33.74" fill="#8ddcc0"/><polygon points="236.2,404.91 269.94,438.65000000000003 236.2,438.65000000000003" fill="#e8e8e8"/><rect x="202.46" y="438.66" width="33.74" height="33.74" fill="#e6e6e6"/><polygon points="202.46,438.66 236.20000000000002,438.66 202.46,472.40000000000003" fill="#e5f7f1"/><rect x="236.2" y="438.66" width="33.74" height="33.74" fill="#8d8d8d"/><polygon points="236.2,438.66 269.94,438.66 269.94,472.40000000000003" fill="#8d8d8d"/><rect x="269.9428571428571" y="404.9142857142857" width="67.48571428571428" height="67.48571428571428" fill="#ffffff"/><rect x="269.94" y="404.91" width="33.74" height="33.74" fill="#d5d5d5"/><path d="M 269.94 438.65000000000003 A 33.74 33.74 0 0 1  303.68 404.91 L 303.68 438.65000000000003L269.94 438.65000000000003" fill="#5a5a5a"/><rect x="303.69" y="404.91" width="33.74" height="33.74" fill="#c5eddf"/><path d="M 303.69 404.91 A 33.74 33.74 0 0 1 337.43 438.65000000000003 L 303.69 438.65000000000003L303.69 404.91" fill="#7d7d7d"/><rect x="269.94" y="438.66" width="33.74" height="33.74" fill="#818181"/><path d="M 269.94 438.66 A 33.74 33.74 0 0 0 303.68 472.40000000000003 L 303.68 438.66L269.94 438.66" fill="#8bdcc0"/><rect x="303.69" y="438.66" width="33.74" height="33.74" fill="#a2a2a2"/><path d="M 303.69 472.40000000000003 A 33.74 33.74 0 0 0 337.43 438.66 L 303.69 438.66L303.69 472.40000000000003" fill="#4a4a4a"/><rect x="337.4285714285714" y="404.9142857142857" width="67.48571428571428" height="67.48571428571428" fill="#ffffff"/><rect x="337.43" y="404.91" width="33.74" height="33.74" fill="#8bdcbf"/><polygon points="371.17,404.91 371.17,438.65000000000003 337.43,438.65000000000003" fill="#717171"/><rect x="371.17" y="404.91" width="33.74" height="33.74" fill="#9e9e9e"/><polygon points="371.17,404.91 404.91,404.91 371.17,438.65000000000003" fill="#b2e8d5"/><rect x="337.43" y="438.66" width="33.74" height="33.74" fill="#878787"/><polygon points="337.43,438.66 371.17,438.66 371.17,472.40000000000003" fill="#707070"/><rect x="371.17" y="438.66" width="33.74" height="33.74" fill="#919191"/><polygon points="371.17,438.66 404.91,472.40000000000003 371.17,472.40000000000003" fill="#5e5e5e"/><rect x="404.91" y="404.91" width="67.49" height="67.49" fill="#82d9bb"/><path d="M 404.91 404.91 A 67.49 67.49 0 0 0 472.40000000000003 472.40000000000003 L 472.40000000000003 404.91L404.91 404.91" fill="#a5a5a5"/><rect x="472.4" y="404.9142857142857" width="67.48571428571428" height="67.48571428571428" fill="#ffffff"/><rect x="472.4" y="404.91" width="33.74" height="33.74" fill="#f2fbf8"/><path d="M 472.4 404.91 A 33.74 33.74 0 0 0 506.14 438.65000000000003 L 506.14 404.91L472.4 404.91" fill="#ade6d2"/><rect x="506.14" y="404.91" width="33.74" height="33.74" fill="#ededed"/><path d="M 506.14 438.65000000000003 A 33.74 33.74 0 0 0 539.88 404.91 L 506.14 404.91L506.14 438.65000000000003" fill="#3f3f3f"/><rect x="472.4" y="438.66" width="33.74" height="33.74" fill="#71d4b1"/><path d="M 472.4 472.40000000000003 A 33.74 33.74 0 0 1  506.14 438.66 L 506.14 472.40000000000003L472.4 472.40000000000003" fill="#e1f6ef"/><rect x="506.14" y="438.66" width="33.74" height="33.74" fill="#f0faf7"/><path d="M 506.14 438.66 A 33.74 33.74 0 0 1 539.88 472.40000000000003 L 506.14 472.40000000000003L506.14 438.66" fill="#626262"/><rect x="539.8857142857142" y="404.9142857142857" width="67.48571428571428" height="67.48571428571428" fill="#ffffff"/><rect x="539.89" y="404.91" width="33.74" height="33.74" fill="#e5e5e5"/><path d="M 539.89 404.91 A 33.74 33.74 0 0 1 573.63 438.65000000000003 L 539.89 438.65000000000003L539.89 404.91" fill="#bababa"/><rect x="573.63" y="404.91" width="33.74" height="33.74" fill="#636363"/><path d="M 573.63 438.65000000000003 A 33.74 33.74 0 0 1  607.37 404.91 L 607.37 438.65000000000003L573.63 438.65000000000003" fill="#8bdcbf"/><rect x="539.89" y="438.66" width="33.74" height="33.74" fill="#94dec4"/><path d="M 539.89 472.40000000000003 A 33.74 33.74 0 0 0 573.63 438.66 L 539.89 438.66L539.89 472.40000000000003" fill="#5e5e5e"/><rect x="573.63" y="438.66" width="33.74" height="33.74" fill="#efefef"/><path d="M 573.63 438.66 A 33.74 33.74 0 0 0 607.37 472.40000000000003 L 607.37 438.66L573.63 438.66" fill="#6c6c6c"/><rect x="607.3714285714285" y="404.9142857142857" width="67.48571428571428" height="67.48571428571428" fill="#ffffff"/><rect x="607.37" y="404.91" width="33.74" height="33.74" fill="#d4f2e8"/><polygon points="641.11,404.91 641.11,438.65000000000003 607.37,438.65000000000003" fill="#e0f5ee"/><rect x="641.11" y="404.91" width="33.74" height="33.74" fill="#fafafa"/><polygon points="641.11,404.91 674.85,404.91 641.11,438.65000000000003" fill="#fafdfc"/><rect x="607.37" y="438.66" width="33.74" height="33.74" fill="#696969"/><polygon points="607.37,438.66 641.11,438.66 641.11,472.40000000000003" fill="#aaaaaa"/><rect x="641.11" y="438.66" width="33.74" height="33.74" fill="#f9fdfc"/><polygon points="641.11,438.66 674.85,472.40000000000003 641.11,472.40000000000003" fill="#74d5b2"/><rect x="674.86" y="404.91" width="67.49" height="67.49" fill="#acacac"/><path d="M 674.86 472.40000000000003 A 67.49 67.49 0 0 1  742.35 404.91 L 674.86 472.40000000000003 A 67.49 67.49 0 0 0 742.35 404.91" fill="#9b9b9b"/><rect x="742.34" y="404.91" width="67.49" height="67.49" fill="#edf9f5"/><rect x="742.34" y="404.91" width="67.49" height="67.49" fill="#78d6b5"/></g></svg>