<?xml version="1.0" standalone="no"?><svg xmlns:xlink="http://www.w3.org/1999/xlink" xmlns="http://www.w3.org/2000/svg" viewBox="0 0 1000 583.3359059055969" preserveAspectRatio="xMaxYMax slice"><g transform="scale(1.234834686506344)"><rect x="0" y="0" width="809.8285714285714" height="472.4" fill="#ffffff"/><rect x="0" y="0" width="67.48571428571428" height="67.48571428571428" fill="#ffffff"/><rect x="0" y="0" width="33.74" height="33.74" fill="#ff416e"/><circle cx="16.87" cy="16.87" r="16.87" fill="#fff2f5"/><rect x="33.74" y="0" width="33.74" height="33.74" fill="#ff8aa6"/><rect x="33.74" y="0" width="33.74" height="33.74" fill="#ff809e"/><rect x="0" y="33.74" width="33.74" height="33.74" fill="#c5c5c5"/><circle cx="16.87" cy="50.61" r="16.87" fill="#a3a3a3"/><rect x="33.74" y="33.74" width="33.74" height="33.74" fill="#ff90aa"/><rect x="33.74" y="33.74" width="33.74" height="33.74" fill="#ffcfda"/><rect x="67.49" y="0" width="67.49" height="67.49" fill="#ffb4c6"/><polygon points="67.49,0 134.98,0 134.98,67.49" fill="#ff3767"/><rect x="134.97" y="0" width="67.49" height="67.49" fill="#606060"/><polygon points="202.45999999999998,0 202.45999999999998,67.49 134.97,67.49" fill="#494949"/><rect x="202.45714285714286" y="0" width="67.48571428571428" height="67.48571428571428" fill="#ffffff"/><rect x="202.46" y="0" width="33.74" height="33.74" fill="#ffacc0"/><path d="M 202.46 33.74 A 33.74 33.74 0 0 1 236.20000000000002 0 L 236.20000000000002 8.435 A 25.305 25.305 0 0 0 210.895 33.74" fill="#464646"/><rect x="236.2" y="0" width="33.74" height="33.74" fill="#ffecf0"/><path d="M 236.2 0 A 33.74 33.74 0 0 1 269.94 33.74 L 261.505 33.74 A 25.305 25.305 0 0 0 236.2 8.435" fill="#d3d3d3"/><rect x="202.46" y="33.74" width="33.74" height="33.74" fill="#464646"/><path d="M 202.46 33.74 A 33.74 33.74 0 0 0 236.20000000000002 67.48 L 236.20000000000002 59.045 A 25.305 25.305 0 0 1 210.895 33.74" fill="#ffaabe"/><rect x="236.2" y="33.74" width="33.74" height="33.74" fill="#acacac"/><path d="M 236.2 67.48 A 33.74 33.74 0 0 0 269.94 33.74 L 261.505 33.74 A 25.305 25.305 0 0 1 236.2 59.045" fill="#505050"/><rect x="269.9428571428571" y="0" width="67.48571428571428" height="67.48571428571428" fill="#ffffff"/><rect x="269.94" y="0" width="33.74" height="33.74" fill="#565656"/><polygon points="303.68,0 303.68,33.74 269.94,33.74" fill="#4a4a4a"/><rect x="303.69" y="0" width="33.74" height="33.74" fill="#ff88a4"/><polygon points="303.69,0 337.43,33.74 303.69,33.74" fill="#5d5d5d"/><rect x="269.94" y="33.74" width="33.74" height="33.74" fill="#777777"/><polygon points="269.94,33.74 303.68,33.74 269.94,67.48" fill="#ff7193"/><rect x="303.69" y="33.74" width="33.74" height="33.74" fill="#ffc2d0"/><polygon points="303.69,33.74 337.43,33.74 337.43,67.48" fill="#d0d0d0"/><rect x="337.4285714285714" y="0" width="67.48571428571428" height="67.48571428571428" fill="#ffffff"/><rect x="337.43" y="0" width="33.74" height="33.74" fill="#e2e2e2"/><circle cx="354.3" cy="16.87" r="16.87" fill="#ff8ba7"/><rect x="371.17" y="0" width="33.74" height="33.74" fill="#ff5b82"/><rect x="371.17" y="0" width="33.74" height="33.74" fill="#ff96af"/><rect x="337.43" y="33.74" width="33.74" height="33.74" fill="#ffc2d1"/><circle cx="354.3" cy="50.61" r="16.87" fill="#fffdfd"/><rect x="371.17" y="33.74" width="33.74" height="33.74" fill="#4a4a4a"/><rect x="371.17" y="33.74" width="33.74" height="33.74" fill="#adadad"/><rect x="404.91" y="0" width="67.49" height="67.49" fill="#878787"/><path d="M 404.91 0 A 67.49 67.49 0 0 1 472.40000000000003 67.49 L 404.91 67.49L404.91 0" fill="#ffabbf"/><rect x="472.4" y="0" width="67.49" height="67.49" fill="#ffcfda"/><rect x="472.4" y="0" width="67.49" height="67.49" fill="#8e8e8e"/><rect x="539.8857142857142" y="0" width="67.48571428571428" height="67.48571428571428" fill="#ffffff"/><rect x="539.89" y="0" width="33.74" height="33.74" fill="#ffacc0"/><circle cx="556.76" cy="16.87" r="16.87" fill="#ffadc0"/><rect x="573.63" y="0" width="33.74" height="33.74" fill="#ffd4de"/><rect x="573.63" y="0" width="33.74" height="33.74" fill="#ffaabe"/><rect x="539.89" y="33.74" width="33.74" height="33.74" fill="#ff688c"/><circle cx="556.76" cy="50.61" r="16.87" fill="#d1d1d1"/><rect x="573.63" y="33.74" width="33.74" height="33.74" fill="#fffbfc"/><rect x="573.63" y="33.74" width="33.74" height="33.74" fill="#ff87a4"/><rect x="607.37" y="0" width="67.49" height="67.49" fill="#fff8fa"/><path d="M 607.37 67.49 A 67.49 67.49 0 0 0 674.86 0 L 607.37 0L607.37 67.49" fill="#ff5c83"/><rect x="674.8571428571428" y="0" width="67.48571428571428" height="67.48571428571428" fill="#ffffff"/><rect x="674.86" y="0" width="33.74" height="33.74" fill="#fff7f9"/><polygon points="708.6,0 708.6,33.74 674.86,33.74" fill="#ffeaef"/><rect x="708.6" y="0" width="33.74" height="33.74" fill="#ffb5c7"/><polygon points="708.6,0 742.34,0 708.6,33.74" fill="#8d8d8d"/><rect x="674.86" y="33.74" width="33.74" height="33.74" fill="#ff6d8f"/><polygon points="674.86,33.74 708.6,33.74 708.6,67.48" fill="#ffedf1"/><rect x="708.6" y="33.74" width="33.74" height="33.74" fill="#d3d3d3"/><polygon points="708.6,33.74 742.34,67.48 708.6,67.48" fill="#f2f2f2"/><rect x="742.34" y="0" width="67.49" height="67.49" fill="#d4d4d4"/><rect x="742.34" y="0" width="67.49" height="67.49" fill="#cdcdcd"/><rect x="0" y="67.48571428571428" width="67.48571428571428" height="67.48571428571428" fill="#ffffff"/><rect x="0" y="67.49" width="33.74" height="33.74" fill="#fff3f6"/><path d="M 0 101.22999999999999 A 33.74 33.74 0 0 1  33.74 67.49 L 33.74 101.22999999999999L0 101.22999999999999" fill="#ff91ab"/><rect x="33.74" y="67.49" width="33.74" height="33.74" fill="#bfbfbf"/><path d="M 33.74 67.49 A 33.74 33.74 0 0 1 67.48 101.22999999999999 L 33.74 101.22999999999999L33.74 67.49" fill="#dfdfdf"/><rect x="0" y="101.23" width="33.74" height="33.74" fill="#ffe9ee"/><path d="M 0 101.23 A 33.74 33.74 0 0 0 33.74 134.97 L 33.74 101.23L0 101.23" fill="#e3e3e3"/><rect x="33.74" y="101.23" width="33.74" height="33.74" fill="#5e5e5e"/><path d="M 33.74 134.97 A 33.74 33.74 0 0 0 67.48 101.23 L 33.74 101.23L33.74 134.97" fill="#ff82a0"/><rect x="67.48571428571428" y="67.48571428571428" width="67.48571428571428" height="67.48571428571428" fill="#ffffff"/><rect x="67.49" y="67.49" width="33.74" height="33.74" fill="#ff5c83"/><path d="M 67.49 101.22999999999999 A 33.74 33.74 0 0 1  101.22999999999999 67.49 L 101.22999999999999 101.22999999999999L67.49 101.22999999999999" fill="#ff6a8e"/><rect x="101.23" y="67.49" width="33.74" height="33.74" fill="#bbbbbb"/><path d="M 101.23 67.49 A 33.74 33.74 0 0 1 134.97 101.22999999999999 L 101.23 101.22999999999999L101.23 67.49" fill="#525252"/><rect x="67.49" y="101.23" width="33.74" height="33.74" fill="#ff557e"/><path d="M 67.49 101.23 A 33.74 33.74 0 0 0 101.22999999999999 134.97 L 101.22999999999999 101.23L67.49 101.23" fill="#868686"/><rect x="101.23" y="101.23" width="33.74" height="33.74" fill="#cfcfcf"/><path d="M 101.23 134.97 A 33.74 33.74 0 0 0 134.97 101.23 L 101.23 101.23L101.23 134.97" fill="#ff7092"/><rect x="134.97142857142856" y="67.48571428571428" width="67.48571428571428" height="67.48571428571428" fill="#ffffff"/><rect x="134.97" y="67.49" width="33.74" height="33.74" fill="#ff517a"/><circle cx="151.84" cy="84.36" r="16.87" fill="#b9b9b9"/><rect x="168.71" y="67.49" width="33.74" height="33.74" fill="#ff7e9d"/><rect x="168.71" y="67.49" width="33.74" height="33.74" fill="#adadad"/><rect x="134.97" y="101.23" width="33.74" height="33.74" fill="#ff7e9d"/><circle cx="151.84" cy="118.10000000000001" r="16.87" fill="#eeeeee"/><rect x="168.71" y="101.23" width="33.74" height="33.74" fill="#fff5f7"/><rect x="168.71" y="101.23" width="33.74" height="33.74" fill="#eeeeee"/><rect x="202.46" y="67.49" width="67.49" height="67.49" fill="#ff5a81"/><path d="M 202.46 134.98 A 67.49 67.49 0 0 1  269.95 67.49 L 269.95 134.98L202.46 134.98" fill="#ffd1dc"/><rect x="269.9428571428571" y="67.48571428571428" width="67.48571428571428" height="67.48571428571428" fill="#ffffff"/><rect x="269.94" y="67.49" width="33.74" height="33.74" fill="#ff809e"/><path d="M 269.94 101.22999999999999 A 33.74 33.74 0 0 0 303.68 67.49 L 269.94 67.49L269.94 101.22999999999999" fill="#ff527b"/><rect x="303.69" y="67.49" width="33.74" height="33.74" fill="#ededed"/><path d="M 303.69 67.49 A 33.74 33.74 0 0 0 337.43 101.22999999999999 L 337.43 67.49L303.69 67.49" fill="#fffefe"/><rect x="269.94" y="101.23" width="33.74" height="33.74" fill="#b3b3b3"/><path d="M 269.94 101.23 A 33.74 33.74 0 0 1 303.68 134.97 L 269.94 134.97L269.94 101.23" fill="#ffc3d1"/><rect x="303.69" y="101.23" width="33.74" height="33.74" fill="#8d8d8d"/><path d="M 303.69 134.97 A 33.74 33.74 0 0 1  337.43 101.23 L 337.43 134.97L303.69 134.97" fill="#ff9bb3"/><rect x="337.4285714285714" y="67.48571428571428" width="67.48571428571428" height="67.48571428571428" fill="#ffffff"/><rect x="337.43" y="67.49" width="33.74" height="33.74" fill="#ffa1b8"/><path d="M 337.43 67.49 A 33.74 33.74 0 0 0 371.17 101.22999999999999 L 371.17 67.49L337.43 67.49" fill="#f2f2f2"/><rect x="371.17" y="67.49" width="33.74" height="33.74" fill="#ff9cb4"/><path d="M 371.17 101.22999999999999 A 33.74 33.74 0 0 0 404.91 67.49 L 371.17 67.49L371.17 101.22999999999999" fill="#ececec"/><rect x="337.43" y="101.23" width="33.74" height="33.74" fill="#ffd7e1"/><path d="M 337.43 134.97 A 33.74 33.74 0 0 1  371.17 101.23 L 371.17 134.97L337.43 134.97" fill="#5b5b5b"/><rect x="371.17" y="101.23" width="33.74" height="33.74" fill="#4f4f4f"/><path d="M 371.17 101.23 A 33.74 33.74 0 0 1 404.91 134.97 L 371.17 134.97L371.17 101.23" fill="#fff8fa"/><rect x="404.91" y="67.49" width="67.49" height="67.49" fill="#808080"/><polygon points="404.91,67.49 472.40000000000003,134.98 404.91,134.98" fill="#ffcad7"/><rect x="472.4" y="67.48571428571428" width="67.48571428571428" height="67.48571428571428" fill="#ffffff"/><rect x="472.4" y="67.49" width="33.74" height="33.74" fill="#e1e1e1"/><polygon points="506.14,67.49 506.14,101.22999999999999 472.4,101.22999999999999" fill="#ffa5ba"/><rect x="506.14" y="67.49" width="33.74" height="33.74" fill="#3e3e3e"/><polygon points="506.14,67.49 539.88,101.22999999999999 506.14,101.22999999999999" fill="#ff7898"/><rect x="472.4" y="101.23" width="33.74" height="33.74" fill="#646464"/><polygon points="472.4,101.23 506.14,101.23 506.14,134.97" fill="#ff688c"/><rect x="506.14" y="101.23" width="33.74" height="33.74" fill="#5a5a5a"/><polygon points="506.14,101.23 539.88,101.23 506.14,134.97" fill="#8e8e8e"/><rect x="539.89" y="67.49" width="67.49" height="67.49" fill="#a7a7a7"/><path d="M 539.89 67.49 A 67.49 67.49 0 0 0 607.38 134.98 L 607.38 67.49L539.89 67.49" fill="#8c8c8c"/><rect x="607.3714285714285" y="67.48571428571428" width="67.48571428571428" height="67.48571428571428" fill="#ffffff"/><rect x="607.37" y="67.49" width="33.74" height="33.74" fill="#ffe2e9"/><path d="M 607.37 67.49 A 33.74 33.74 0 0 1 641.11 101.22999999999999 L 607.37 101.22999999999999L607.37 67.49" fill="#ff84a1"/><rect x="641.11" y="67.49" width="33.74" height="33.74" fill="#a7a7a7"/><path d="M 641.11 101.22999999999999 A 33.74 33.74 0 0 1  674.85 67.49 L 674.85 101.22999999999999L641.11 101.22999999999999" fill="#ff4874"/><rect x="607.37" y="101.23" width="33.74" height="33.74" fill="#ffc7d4"/><path d="M 607.37 134.97 A 33.74 33.74 0 0 0 641.11 101.23 L 607.37 101.23L607.37 134.97" fill="#616161"/><rect x="641.11" y="101.23" width="33.74" height="33.74" fill="#ff7293"/><path d="M 641.11 101.23 A 33.74 33.74 0 0 0 674.85 134.97 L 674.85 101.23L641.11 101.23" fill="#ff6086"/><rect x="674.8571428571428" y="67.48571428571428" width="67.48571428571428" height="67.48571428571428" fill="#ffffff"/><rect x="674.86" y="67.49" width="33.74" height="33.74" fill="#fffdfd"/><path d="M 674.86 101.22999999999999 A 33.74 33.74 0 0 0 708.6 67.49 L 674.86 67.49L674.86 101.22999999999999" fill="#515151"/><rect x="708.6" y="67.49" width="33.74" height="33.74" fill="#535353"/><path d="M 708.6 67.49 A 33.74 33.74 0 0 0 742.34 101.22999999999999 L 742.34 67.49L708.6 67.49" fill="#a1a1a1"/><rect x="674.86" y="101.23" width="33.74" height="33.74" fill="#fff2f5"/><path d="M 674.86 101.23 A 33.74 33.74 0 0 1 708.6 134.97 L 674.86 134.97L674.86 101.23" fill="#777777"/><rect x="708.6" y="101.23" width="33.74" height="33.74" fill="#ffffff"/><path d="M 708.6 134.97 A 33.74 33.74 0 0 1  742.34 101.23 L 742.34 134.97L708.6 134.97" fill="#a4a4a4"/><rect x="742.34" y="67.49" width="67.49" height="67.49" fill="#6c6c6c"/><path d="M 742.34 67.49 A 67.49 67.49 0 0 1  809.83 134.98 L 742.34 67.49 A 67.49 67.49 0 0 0 809.83 134.98" fill="#9c9c9c"/><rect x="0" y="134.97142857142856" width="67.48571428571428" height="67.48571428571428" fill="#ffffff"/><rect x="0" y="134.97" width="33.74" height="33.74" fill="#555555"/><polygon points="33.74,134.97 33.74,168.71 0,168.71" fill="#707070"/><rect x="33.74" y="134.97" width="33.74" height="33.74" fill="#ff90aa"/><polygon points="33.74,134.97 67.48,168.71 33.74,168.71" fill="#ff537c"/><rect x="0" y="168.71" width="33.74" height="33.74" fill="#c6c6c6"/><polygon points="0,168.71 33.74,168.71 0,202.45000000000002" fill="#9f9f9f"/><rect x="33.74" y="168.71" width="33.74" height="33.74" fill="#ff8ca7"/><polygon points="33.74,168.71 67.48,168.71 67.48,202.45000000000002" fill="#ff8ea9"/><rect x="67.48571428571428" y="134.97142857142856" width="67.48571428571428" height="67.48571428571428" fill="#ffffff"/><rect x="67.49" y="134.97" width="33.74" height="33.74" fill="#ffd6e0"/><polygon points="101.22999999999999,134.97 101.22999999999999,168.71 67.49,168.71" fill="#d8d8d8"/><rect x="101.23" y="134.97" width="33.74" height="33.74" fill="#d1d1d1"/><polygon points="101.23,134.97 134.97,168.71 101.23,168.71" fill="#656565"/><rect x="67.49" y="168.71" width="33.74" height="33.74" fill="#828282"/><polygon points="67.49,168.71 101.22999999999999,168.71 67.49,202.45000000000002" fill="#414141"/><rect x="101.23" y="168.71" width="33.74" height="33.74" fill="#7f7f7f"/><polygon points="101.23,168.71 134.97,168.71 134.97,202.45000000000002" fill="#ffc7d5"/><rect x="134.97142857142856" y="134.97142857142856" width="67.48571428571428" height="67.48571428571428" fill="#ffffff"/><rect x="134.97" y="134.97" width="33.74" height="33.74" fill="#ff94ae"/><path d="M 134.97 168.71 A 33.74 33.74 0 0 1  168.71 134.97 L 168.71 168.71L134.97 168.71" fill="#bebebe"/><rect x="168.71" y="134.97" width="33.74" height="33.74" fill="#ff698d"/><path d="M 168.71 134.97 A 33.74 33.74 0 0 1 202.45000000000002 168.71 L 168.71 168.71L168.71 134.97" fill="#ffaec1"/><rect x="134.97" y="168.71" width="33.74" height="33.74" fill="#ffcad6"/><path d="M 134.97 168.71 A 33.74 33.74 0 0 0 168.71 202.45000000000002 L 168.71 168.71L134.97 168.71" fill="#ffc3d1"/><rect x="168.71" y="168.71" width="33.74" height="33.74" fill="#3f3f3f"/><path d="M 168.71 202.45000000000002 A 33.74 33.74 0 0 0 202.45000000000002 168.71 L 168.71 168.71L168.71 202.45000000000002" fill="#8b8b8b"/><rect x="202.46" y="134.97" width="67.49" height="67.49" fill="#b4b4b4"/><path d="M 202.46 202.45999999999998 A 67.49 67.49 0 0 0 269.95 134.97 L 202.46 134.97L202.46 202.45999999999998" fill="#ffc9d6"/><rect x="269.94" y="134.97" width="67.49" height="67.49" fill="#ff89a5"/><polygon points="269.94,134.97 337.43,202.45999999999998 269.94,202.45999999999998" fill="#d6d6d6"/><rect x="337.43" y="134.97" width="67.49" height="67.49" fill="#ff3f6d"/><path d="M 337.43 134.97 A 67.49 67.49 0 0 1 404.92 202.45999999999998 L 337.43 202.45999999999998L337.43 134.97" fill="#eaeaea"/><rect x="404.9142857142857" y="134.97142857142856" width="67.48571428571428" height="67.48571428571428" fill="#ffffff"/><rect x="404.91" y="134.97" width="33.74" height="33.74" fill="#ffb9ca"/><path d="M 404.91 168.71 A 33.74 33.74 0 0 1 438.65000000000003 134.97 L 438.65000000000003 143.405 A 25.305 25.305 0 0 0 413.345 168.71" fill="#cecece"/><rect x="438.66" y="134.97" width="33.74" height="33.74" fill="#c0c0c0"/><path d="M 438.66 134.97 A 33.74 33.74 0 0 1 472.40000000000003 168.71 L 463.96500000000003 168.71 A 25.305 25.305 0 0 0 438.66 143.405" fill="#515151"/><rect x="404.91" y="168.71" width="33.74" height="33.74" fill="#f4f4f4"/><path d="M 404.91 168.71 A 33.74 33.74 0 0 0 438.65000000000003 202.45000000000002 L 438.65000000000003 194.01500000000001 A 25.305 25.305 0 0 1 413.345 168.71" fill="#5a5a5a"/><rect x="438.66" y="168.71" width="33.74" height="33.74" fill="#fafafa"/><path d="M 438.66 202.45000000000002 A 33.74 33.74 0 0 0 472.40000000000003 168.71 L 463.96500000000003 168.71 A 25.305 25.305 0 0 1 438.66 194.01500000000001" fill="#ffdae3"/><rect x="472.4" y="134.97" width="67.49" height="67.49" fill="#e1e1e1"/><path d="M 472.4 202.45999999999998 A 67.49 67.49 0 0 0 539.89 134.97 L 472.4 134.97L472.4 202.45999999999998" fill="#ffdae3"/><rect x="539.8857142857142" y="134.97142857142856" width="67.48571428571428" height="67.48571428571428" fill="#ffffff"/><rect x="539.89" y="134.97" width="33.74" height="33.74" fill="#ff6f91"/><polygon points="573.63,134.97 573.63,168.71 539.89,168.71" fill="#ff6c8f"/><rect x="573.63" y="134.97" width="33.74" height="33.74" fill="#ff8ca7"/><polygon points="573.63,134.97 607.37,134.97 573.63,168.71" fill="#ff98b0"/><rect x="539.89" y="168.71" width="33.74" height="33.74" fill="#ff7596"/><polygon points="539.89,168.71 573.63,168.71 573.63,202.45000000000002" fill="#ff7192"/><rect x="573.63" y="168.71" width="33.74" height="33.74" fill="#ffccd8"/><polygon points="573.63,168.71 607.37,202.45000000000002 573.63,202.45000000000002" fill="#ff7c9b"/><rect x="607.37" y="134.97" width="67.49" height="67.49" fill="#ff7a99"/><polygon points="674.86,134.97 674.86,202.45999999999998 607.37,202.45999999999998" fill="#ffd3dd"/><rect x="674.86" y="134.97" width="67.49" height="67.49" fill="#929292"/><polygon points="742.35,134.97 742.35,202.45999999999998 674.86,202.45999999999998" fill="#444444"/><rect x="742.34" y="134.97" width="67.49" height="67.49" fill="#8b8b8b"/><path d="M 742.34 134.97 A 67.49 67.49 0 0 0 809.83 202.45999999999998 L 809.83 134.97L742.34 134.97" fill="#636363"/><rect x="0" y="202.46" width="67.49" height="67.49" fill="#ff95af"/><path d="M 0 202.46 A 67.49 67.49 0 0 0 67.49 269.95 L 67.49 202.46L0 202.46" fill="#a8a8a8"/><rect x="67.49" y="202.46" width="67.49" height="67.49" fill="#ff3e6c"/><rect x="67.49" y="202.46" width="67.49" height="67.49" fill="#ffb6c7"/><rect x="134.97142857142856" y="202.45714285714286" width="67.48571428571428" height="67.48571428571428" fill="#ffffff"/><rect x="134.97" y="202.46" width="33.74" height="33.74" fill="#ffc7d5"/><path d="M 134.97 202.46 A 33.74 33.74 0 0 0 168.71 236.20000000000002 L 168.71 202.46L134.97 202.46" fill="#888888"/><rect x="168.71" y="202.46" width="33.74" height="33.74" fill="#ff6186"/><path d="M 168.71 236.20000000000002 A 33.74 33.74 0 0 0 202.45000000000002 202.46 L 168.71 202.46L168.71 236.20000000000002" fill="#ffd6e0"/><rect x="134.97" y="236.2" width="33.74" height="33.74" fill="#ff3665"/><path d="M 134.97 269.94 A 33.74 33.74 0 0 1  168.71 236.2 L 168.71 269.94L134.97 269.94" fill="#ffd4de"/><rect x="168.71" y="236.2" width="33.74" height="33.74" fill="#ff688c"/><path d="M 168.71 236.2 A 33.74 33.74 0 0 1 202.45000000000002 269.94 L 168.71 269.94L168.71 236.2" fill="#7e7e7e"/><rect x="202.46" y="202.46" width="67.49" height="67.49" fill="#bababa"/><polygon points="269.95,202.46 269.95,269.95 202.46,269.95" fill="#acacac"/><rect x="269.94" y="202.46" width="67.49" height="67.49" fill="#ff8ea9"/><polygon points="269.94,202.46 337.43,269.95 269.94,269.95" fill="#ff426f"/><rect x="337.43" y="202.46" width="67.49" height="67.49" fill="#ff7596"/><rect x="337.43" y="202.46" width="67.49" height="67.49" fill="#cfcfcf"/><rect x="404.9142857142857" y="202.45714285714286" width="67.48571428571428" height="67.48571428571428" fill="#ffffff"/><rect x="404.91" y="202.46" width="33.74" height="33.74" fill="#ff84a1"/><path d="M 404.91 202.46 A 33.74 33.74 0 0 0 438.65000000000003 236.20000000000002 L 438.65000000000003 202.46L404.91 202.46" fill="#666666"/><rect x="438.66" y="202.46" width="33.74" height="33.74" fill="#454545"/><path d="M 438.66 236.20000000000002 A 33.74 33.74 0 0 0 472.40000000000003 202.46 L 438.66 202.46L438.66 236.20000000000002" fill="#444444"/><rect x="404.91" y="236.2" width="33.74" height="33.74" fill="#fff7f9"/><path d="M 404.91 269.94 A 33.74 33.74 0 0 1  438.65000000000003 236.2 L 438.65000000000003 269.94L404.91 269.94" fill="#ff3d6b"/><rect x="438.66" y="236.2" width="33.74" height="33.74" fill="#fff2f5"/><path d="M 438.66 236.2 A 33.74 33.74 0 0 1 472.40000000000003 269.94 L 438.66 269.94L438.66 236.2" fill="#ffabbf"/><rect x="472.4" y="202.46" width="67.49" height="67.49" fill="#ff4873"/><path d="M 472.4 269.95 A 67.49 67.49 0 0 0 539.89 202.46 L 472.4 202.46L472.4 269.95" fill="#fdfdfd"/><rect x="539.89" y="202.46" width="67.49" height="67.49" fill="#757575"/><polygon points="607.38,202.46 607.38,269.95 539.89,269.95" fill="#adadad"/><rect x="607.3714285714285" y="202.45714285714286" width="67.48571428571428" height="67.48571428571428" fill="#ffffff"/><rect x="607.37" y="202.46" width="33.74" height="33.74" fill="#9c9c9c"/><path d="M 607.37 202.46 A 33.74 33.74 0 0 0 641.11 236.20000000000002 L 641.11 202.46L607.37 202.46" fill="#525252"/><rect x="641.11" y="202.46" width="33.74" height="33.74" fill="#ff6086"/><path d="M 641.11 236.20000000000002 A 33.74 33.74 0 0 0 674.85 202.46 L 641.11 202.46L641.11 236.20000000000002" fill="#404040"/><rect x="607.37" y="236.2" width="33.74" height="33.74" fill="#6d6d6d"/><path d="M 607.37 269.94 A 33.74 33.74 0 0 1  641.11 236.2 L 641.11 269.94L607.37 269.94" fill="#959595"/><rect x="641.11" y="236.2" width="33.74" height="33.74" fill="#979797"/><path d="M 641.11 236.2 A 33.74 33.74 0 0 1 674.85 269.94 L 641.11 269.94L641.11 236.2" fill="#fffefe"/><rect x="674.86" y="202.46" width="67.49" height="67.49" fill="#c8c8c8"/><path d="M 674.86 269.95 A 67.49 67.49 0 0 0 742.35 202.46 L 674.86 202.46L674.86 269.95" fill="#b4b4b4"/><rect x="742.34" y="202.46" width="67.49" height="67.49" fill="#ebebeb"/><rect x="742.34" y="202.46" width="67.49" height="67.49" fill="#6e6e6e"/><rect x="0" y="269.94" width="67.49" height="67.49" fill="#fff8f9"/><path d="M 0 337.43 A 67.49 67.49 0 0 0 67.49 269.94 L 0 269.94L0 337.43" fill="#717171"/><rect x="67.48571428571428" y="269.9428571428571" width="67.48571428571428" height="67.48571428571428" fill="#ffffff"/><rect x="67.49" y="269.94" width="33.74" height="33.74" fill="#fffefe"/><polygon points="101.22999999999999,269.94 101.22999999999999,303.68 67.49,303.68" fill="#5f5f5f"/><rect x="101.23" y="269.94" width="33.74" height="33.74" fill="#d4d4d4"/><polygon points="101.23,269.94 134.97,303.68 101.23,303.68" fill="#ff96af"/><rect x="67.49" y="303.69" width="33.74" height="33.74" fill="#d1d1d1"/><polygon points="67.49,303.69 101.22999999999999,303.69 101.22999999999999,337.43" fill="#fbfbfb"/><rect x="101.23" y="303.69" width="33.74" height="33.74" fill="#ababab"/><polygon points="101.23,303.69 134.97,303.69 101.23,337.43" fill="#939393"/><rect x="134.97142857142856" y="269.9428571428571" width="67.48571428571428" height="67.48571428571428" fill="#ffffff"/><rect x="134.97" y="269.94" width="33.74" height="33.74" fill="#ffffff"/><path d="M 134.97 303.68 A 33.74 33.74 0 0 0 168.71 269.94 L 134.97 269.94L134.97 303.68" fill="#efefef"/><rect x="168.71" y="269.94" width="33.74" height="33.74" fill="#858585"/><path d="M 168.71 269.94 A 33.74 33.74 0 0 0 202.45000000000002 303.68 L 202.45000000000002 269.94L168.71 269.94" fill="#9f9f9f"/><rect x="134.97" y="303.69" width="33.74" height="33.74" fill="#ffc1d0"/><path d="M 134.97 303.69 A 33.74 33.74 0 0 1 168.71 337.43 L 134.97 337.43L134.97 303.69" fill="#696969"/><rect x="168.71" y="303.69" width="33.74" height="33.74" fill="#ffcfdb"/><path d="M 168.71 337.43 A 33.74 33.74 0 0 1  202.45000000000002 303.69 L 202.45000000000002 337.43L168.71 337.43" fill="#ffb3c5"/><rect x="202.45714285714286" y="269.9428571428571" width="67.48571428571428" height="67.48571428571428" fill="#ffffff"/><rect x="202.46" y="269.94" width="33.74" height="33.74" fill="#5c5c5c"/><path d="M 202.46 303.68 A 33.74 33.74 0 0 1  236.20000000000002 269.94 L 236.20000000000002 303.68L202.46 303.68" fill="#fffdfe"/><rect x="236.2" y="269.94" width="33.74" height="33.74" fill="#767676"/><path d="M 236.2 269.94 A 33.74 33.74 0 0 1 269.94 303.68 L 236.2 303.68L236.2 269.94" fill="#9a9a9a"/><rect x="202.46" y="303.69" width="33.74" height="33.74" fill="#a7a7a7"/><path d="M 202.46 303.69 A 33.74 33.74 0 0 0 236.20000000000002 337.43 L 236.20000000000002 303.69L202.46 303.69" fill="#595959"/><rect x="236.2" y="303.69" width="33.74" height="33.74" fill="#ffb7c8"/><path d="M 236.2 337.43 A 33.74 33.74 0 0 0 269.94 303.69 L 236.2 303.69L236.2 337.43" fill="#e3e3e3"/><rect x="269.94" y="269.94" width="67.49" height="67.49" fill="#ff6b8e"/><path d="M 269.94 337.43 A 67.49 67.49 0 0 1  337.43 269.94 L 337.43 337.43L269.94 337.43" fill="#9a9a9a"/><rect x="337.43" y="269.94" width="67.49" height="67.49" fill="#ff3e6c"/><polygon points="404.92,269.94 404.92,337.43 337.43,337.43" fill="#ff406d"/><rect x="404.9142857142857" y="269.9428571428571" width="67.48571428571428" height="67.48571428571428" fill="#ffffff"/><rect x="404.91" y="269.94" width="33.74" height="33.74" fill="#fff5f7"/><polygon points="438.65000000000003,269.94 438.65000000000003,303.68 404.91,303.68" fill="#ffaec2"/><rect x="438.66" y="269.94" width="33.74" height="33.74" fill="#cdcdcd"/><polygon points="438.66,269.94 472.40000000000003,303.68 438.66,303.68" fill="#ff5d83"/><rect x="404.91" y="303.69" width="33.74" height="33.74" fill="#fff4f7"/><polygon points="404.91,303.69 438.65000000000003,303.69 438.65000000000003,337.43" fill="#d2d2d2"/><rect x="438.66" y="303.69" width="33.74" height="33.74" fill="#515151"/><polygon points="438.66,303.69 472.40000000000003,303.69 438.66,337.43" fill="#ffd1dc"/><rect x="472.4" y="269.94" width="67.49" height="67.49" fill="#ffb7c8"/><rect x="472.4" y="269.94" width="67.49" height="67.49" fill="#ffc7d4"/><rect x="539.89" y="269.94" width="67.49" height="67.49" fill="#d8d8d8"/><polygon points="539.89,269.94 607.38,269.94 607.38,337.43" fill="#ff6187"/><rect x="607.37" y="269.94" width="67.49" height="67.49" fill="#ff7e9c"/><polygon points="607.37,269.94 674.86,269.94 607.37,337.43" fill="#ff567e"/><rect x="674.8571428571428" y="269.9428571428571" width="67.48571428571428" height="67.48571428571428" fill="#ffffff"/><rect x="674.86" y="269.94" width="33.74" height="33.74" fill="#b6b6b6"/><polygon points="708.6,269.94 708.6,303.68 674.86,303.68" fill="#ffdde5"/><rect x="708.6" y="269.94" width="33.74" height="33.74" fill="#7c7c7c"/><polygon points="708.6,269.94 742.34,269.94 708.6,303.68" fill="#ffa6bb"/><rect x="674.86" y="303.69" width="33.74" height="33.74" fill="#ffdbe4"/><polygon points="674.86,303.69 708.6,303.69 708.6,337.43" fill="#c5c5c5"/><rect x="708.6" y="303.69" width="33.74" height="33.74" fill="#c3c3c3"/><polygon points="708.6,303.69 742.34,337.43 708.6,337.43" fill="#ff698c"/><rect x="742.342857142857" y="269.9428571428571" width="67.48571428571428" height="67.48571428571428" fill="#ffffff"/><rect x="742.34" y="269.94" width="33.74" height="33.74" fill="#f3f3f3"/><path d="M 742.34 269.94 A 33.74 33.74 0 0 1 776.08 303.68 L 742.34 303.68L742.34 269.94" fill="#ff95ae"/><rect x="776.09" y="269.94" width="33.74" height="33.74" fill="#c3c3c3"/><path d="M 776.09 303.68 A 33.74 33.74 0 0 1  809.83 269.94 L 809.83 303.68L776.09 303.68" fill="#757575"/><rect x="742.34" y="303.69" width="33.74" height="33.74" fill="#ff8ea9"/><path d="M 742.34 337.43 A 33.74 33.74 0 0 0 776.08 303.69 L 742.34 303.69L742.34 337.43" fill="#ffdae2"/><rect x="776.09" y="303.69" width="33.74" height="33.74" fill="#a6a6a6"/><path d="M 776.09 303.69 A 33.74 33.74 0 0 0 809.83 337.43 L 809.83 303.69L776.09 303.69" fill="#dedede"/><rect x="0" y="337.4285714285714" width="67.48571428571428" height="67.48571428571428" fill="#ffffff"/><rect x="0" y="337.43" width="33.74" height="33.74" fill="#8d8d8d"/><polygon points="33.74,337.43 33.74,371.17 0,371.17" fill="#ffeaef"/><rect x="33.74" y="337.43" width="33.74" height="33.74" fill="#ffd1dc"/><polygon points="33.74,337.43 67.48,371.17 33.74,371.17" fill="#fdfdfd"/><rect x="0" y="371.17" width="33.74" height="33.74" fill="#ff7495"/><polygon points="0,371.17 33.74,371.17 0,404.91" fill="#ffb5c6"/><rect x="33.74" y="371.17" width="33.74" height="33.74" fill="#f1f1f1"/><polygon points="33.74,371.17 67.48,371.17 67.48,404.91" fill="#f1f1f1"/><rect x="67.49" y="337.43" width="67.49" height="67.49" fill="#a5a5a5"/><polygon points="67.49,337.43 134.98,404.92 67.49,404.92" fill="#a4a4a4"/><rect x="134.97" y="337.43" width="67.49" height="67.49" fill="#ff4f79"/><polygon points="202.45999999999998,337.43 202.45999999999998,404.92 134.97,404.92" fill="#f4f4f4"/><rect x="202.45714285714286" y="337.4285714285714" width="67.48571428571428" height="67.48571428571428" fill="#ffffff"/><rect x="202.46" y="337.43" width="33.74" height="33.74" fill="#d5d5d5"/><path d="M 202.46 337.43 A 33.74 33.74 0 0 1 236.20000000000002 371.17 L 202.46 371.17L202.46 337.43" fill="#ffb7c8"/><rect x="236.2" y="337.43" width="33.74" height="33.74" fill="#f5f5f5"/><path d="M 236.2 371.17 A 33.74 33.74 0 0 1  269.94 337.43 L 269.94 371.17L236.2 371.17" fill="#ff6b8e"/><rect x="202.46" y="371.17" width="33.74" height="33.74" fill="#f8f8f8"/><path d="M 202.46 404.91 A 33.74 33.74 0 0 0 236.20000000000002 371.17 L 202.46 371.17L202.46 404.91" fill="#989898"/><rect x="236.2" y="371.17" width="33.74" height="33.74" fill="#ffbece"/><path d="M 236.2 371.17 A 33.74 33.74 0 0 0 269.94 404.91 L 269.94 371.17L236.2 371.17" fill="#ffdce4"/><rect x="269.9428571428571" y="337.4285714285714" width="67.48571428571428" height="67.48571428571428" fill="#ffffff"/><rect x="269.94" y="337.43" width="33.74" height="33.74" fill="#ffc0cf"/><path d="M 269.94 371.17 A 33.74 33.74 0 0 0 303.68 337.43 L 269.94 337.43L269.94 371.17" fill="#4d4d4d"/><rect x="303.69" y="337.43" width="33.74" height="33.74" fill="#ff4773"/><path d="M 303.69 337.43 A 33.74 33.74 0 0 0 337.43 371.17 L 337.43 337.43L303.69 337.43" fill="#ffe6ec"/><rect x="269.94" y="371.17" width="33.74" height="33.74" fill="#ff406e"/><path d="M 269.94 371.17 A 33.74 33.74 0 0 1 303.68 404.91 L 269.94 404.91L269.94 371.17" fill="#e1e1e1"/><rect x="303.69" y="371.17" width="33.74" height="33.74" fill="#a5a5a5"/><path d="M 303.69 404.91 A 33.74 33.74 0 0 1  337.43 371.17 L 337.43 404.91L303.69 404.91" fill="#ffc5d3"/><rect x="337.43" y="337.43" width="67.49" height="67.49" fill="#ff6e91"/><polygon points="337.43,337.43 404.92,404.92 337.43,404.92" fill="#838383"/><rect x="404.91" y="337.43" width="67.49" height="67.49" fill="#dfdfdf"/><polygon points="404.91,337.43 472.40000000000003,404.92 404.91,404.92" fill="#a2a2a2"/><rect x="472.4" y="337.4285714285714" width="67.48571428571428" height="67.48571428571428" fill="#ffffff"/><rect x="472.4" y="337.43" width="33.74" height="33.74" fill="#ffccd8"/><circle cx="489.27" cy="354.3" r="16.87" fill="#ffafc2"/><rect x="506.14" y="337.43" width="33.74" height="33.74" fill="#7c7c7c"/><rect x="506.14" y="337.43" width="33.74" height="33.74" fill="#909090"/><rect x="472.4" y="371.17" width="33.74" height="33.74" fill="#8c8c8c"/><circle cx="489.27" cy="388.04" r="16.87" fill="#515151"/><rect x="506.14" y="371.17" width="33.74" height="33.74" fill="#ffd3de"/><rect x="506.14" y="371.17" width="33.74" height="33.74" fill="#9f9f9f"/><rect x="539.89" y="337.43" width="67.49" height="67.49" fill="#ff698d"/><path d="M 539.89 404.92 A 67.49 67.49 0 0 1  607.38 337.43 L 607.38 404.92L539.89 404.92" fill="#ff6589"/><rect x="607.37" y="337.43" width="67.49" height="67.49" fill="#ff5b82"/><path d="M 607.37 404.92 A 67.49 67.49 0 0 1  674.86 337.43 L 674.86 404.92L607.37 404.92" fill="#ffbbcb"/><rect x="674.86" y="337.43" width="67.49" height="67.49" fill="#ff6e90"/><rect x="674.86" y="337.43" width="67.49" height="67.49" fill="#757575"/><rect x="742.34" y="337.43" width="67.49" height="67.49" fill="#ff9cb3"/><rect x="742.34" y="337.43" width="67.49" height="67.49" fill="#fff7f9"/><rect x="0" y="404.9142857142857" width="67.48571428571428" height="67.48571428571428" fill="#ffffff"/><rect x="0" y="404.91" width="33.74" height="33.74" fill="#878787"/><path d="M 0 438.65000000000003 A 33.74 33.74 0 0 0 33.74 404.91 L 0 404.91L0 438.65000000000003" fill="#696969"/><rect x="33.74" y="404.91" width="33.74" height="33.74" fill="#ffbccc"/><path d="M 33.74 404.91 A 33.74 33.74 0 0 0 67.48 438.65000000000003 L 67.48 404.91L33.74 404.91" fill="#ffced9"/><rect x="0" y="438.66" width="33.74" height="33.74" fill="#ff4d77"/><path d="M 0 438.66 A 33.74 33.74 0 0 1 33.74 472.40000000000003 L 0 472.40000000000003L0 438.66" fill="#ff537c"/><rect x="33.74" y="438.66" width="33.74" height="33.74" fill="#d3d3d3"/><path d="M 33.74 472.40000000000003 A 33.74 33.74 0 0 1  67.48 438.66 L 67.48 472.40000000000003L33.74 472.40000000000003" fill="#8c8c8c"/><rect x="67.48571428571428" y="404.9142857142857" width="67.48571428571428" height="67.48571428571428" fill="#ffffff"/><rect x="67.49" y="404.91" width="33.74" height="33.74" fill="#535353"/><path d="M 67.49 404.91 A 33.74 33.74 0 0 1 101.22999999999999 438.65000000000003 L 67.49 438.65000000000003L67.49 404.91" fill="#ff5c83"/><rect x="101.23" y="404.91" width="33.74" height="33.74" fill="#ffcdd9"/><path d="M 101.23 438.65000000000003 A 33.74 33.74 0 0 1  134.97 404.91 L 134.97 438.65000000000003L101.23 438.65000000000003" fill="#ff8ea9"/><rect x="67.49" y="438.66" width="33.74" height="33.74" fill="#787878"/><path d="M 67.49 472.40000000000003 A 33.74 33.74 0 0 0 101.22999999999999 438.66 L 67.49 438.66L67.49 472.40000000000003" fill="#ff94ae"/><rect x="101.23" y="438.66" width="33.74" height="33.74" fill="#4f4f4f"/><path d="M 101.23 438.66 A 33.74 33.74 0 0 0 134.97 472.40000000000003 L 134.97 438.66L101.23 438.66" fill="#ffacc0"/><rect x="134.97142857142856" y="404.9142857142857" width="67.48571428571428" height="67.48571428571428" fill="#ffffff"/><rect x="134.97" y="404.91" width="33.74" height="33.74" fill="#515151"/><path d="M 134.97 404.91 A 33.74 33.74 0 0 0 168.71 438.65000000000003 L 168.71 404.91L134.97 404.91" fill="#404040"/><rect x="168.71" y="404.91" width="33.74" height="33.74" fill="#fff9fa"/><path d="M 168.71 438.65000000000003 A 33.74 33.74 0 0 0 202.45000000000002 404.91 L 168.71 404.91L168.71 438.65000000000003" fill="#ff577f"/><rect x="134.97" y="438.66" width="33.74" height="33.74" fill="#dadada"/><path d="M 134.97 472.40000000000003 A 33.74 33.74 0 0 1  168.71 438.66 L 168.71 472.40000000000003L134.97 472.40000000000003" fill="#ffd8e1"/><rect x="168.71" y="438.66" width="33.74" height="33.74" fill="#fff7f9"/><path d="M 168.71 438.66 A 33.74 33.74 0 0 1 202.45000000000002 472.40000000000003 L 168.71 472.40000000000003L168.71 438.66" fill="#747474"/><rect x="202.46" y="404.91" width="67.49" height="67.49" fill="#6a6a6a"/><rect x="202.46" y="404.91" width="67.49" height="67.49" fill="#ff6085"/><rect x="269.9428571428571" y="404.9142857142857" width="67.48571428571428" height="67.48571428571428" fill="#ffffff"/><rect x="269.94" y="404.91" width="33.74" height="33.74" fill="#ff7e9c"/><polygon points="303.68,404.91 303.68,438.65000000000003 269.94,438.65000000000003" fill="#ffe2e9"/><rect x="303.69" y="404.91" width="33.74" height="33.74" fill="#c3c3c3"/><polygon points="303.69,404.91 337.43,404.91 303.69,438.65000000000003" fill="#e0e0e0"/><rect x="269.94" y="438.66" width="33.74" height="33.74" fill="#ebebeb"/><polygon points="269.94,438.66 303.68,438.66 303.68,472.40000000000003" fill="#ff4e78"/><rect x="303.69" y="438.66" width="33.74" height="33.74" fill="#f6f6f6"/><polygon points="303.69,438.66 337.43,472.40000000000003 303.69,472.40000000000003" fill="#e3e3e3"/><rect x="337.43" y="404.91" width="67.49" height="67.49" fill="#ffe4ea"/><path d="M 337.43 404.91 A 67.49 67.49 0 0 1 404.92 472.40000000000003 L 337.43 472.40000000000003L337.43 404.91" fill="#d3d3d3"/><rect x="404.91" y="404.91" width="67.49" height="67.49" fill="#adadad"/><rect x="404.91" y="404.91" width="67.49" height="67.49" fill="#ff8ba7"/><rect x="472.4" y="404.9142857142857" width="67.48571428571428" height="67.48571428571428" fill="#ffffff"/><rect x="472.4" y="404.91" width="33.74" height="33.74" fill="#ffb7c8"/><path d="M 472.4 404.91 A 33.74 33.74 0 0 0 506.14 438.65000000000003 L 506.14 404.91L472.4 404.91" fill="#e4e4e4"/><rect x="506.14" y="404.91" width="33.74" height="33.74" fill="#ff94ad"/><path d="M 506.14 438.65000000000003 A 33.74 33.74 0 0 0 539.88 404.91 L 506.14 404.91L506.14 438.65000000000003" fill="#484848"/><rect x="472.4" y="438.66" width="33.74" height="33.74" fill="#bababa"/><path d="M 472.4 472.40000000000003 A 33.74 33.74 0 0 1  506.14 438.66 L 506.14 472.40000000000003L472.4 472.40000000000003" fill="#ababab"/><rect x="506.14" y="438.66" width="33.74" height="33.74" fill="#ff507a"/><path d="M 506.14 438.66 A 33.74 33.74 0 0 1 539.88 472.40000000000003 L 506.14 472.40000000000003L506.14 438.66" fill="#ffffff"/><rect x="539.8857142857142" y="404.9142857142857" width="67.48571428571428" height="67.48571428571428" fill="#ffffff"/><rect x="539.89" y="404.91" width="33.74" height="33.74" fill="#ff4b75"/><path d="M 539.89 438.65000000000003 A 33.74 33.74 0 0 1 573.63 404.91 L 573.63 413.345 A 25.305 25.305 0 0 0 548.3249999999999 438.65000000000003" fill="#ffadc0"/><rect x="573.63" y="404.91" width="33.74" height="33.74" fill="#ffdae3"/><path d="M 573.63 404.91 A 33.74 33.74 0 0 1 607.37 438.65000000000003 L 598.935 438.65000000000003 A 25.305 25.305 0 0 0 573.63 413.345" fill="#ff8faa"/><rect x="539.89" y="438.66" width="33.74" height="33.74" fill="#d2d2d2"/><path d="M 539.89 438.66 A 33.74 33.74 0 0 0 573.63 472.40000000000003 L 573.63 463.96500000000003 A 25.305 25.305 0 0 1 548.3249999999999 438.66" fill="#7b7b7b"/><rect x="573.63" y="438.66" width="33.74" height="33.74" fill="#959595"/><path d="M 573.63 472.40000000000003 A 33.74 33.74 0 0 0 607.37 438.66 L 598.935 438.66 A 25.305 25.305 0 0 1 573.63 463.96500000000003" fill="#fbfbfb"/><rect x="607.3714285714285" y="404.9142857142857" width="67.48571428571428" height="67.48571428571428" fill="#ffffff"/><rect x="607.37" y="404.91" width="33.74" height="33.74" fill="#ff7797"/><polygon points="641.11,404.91 641.11,438.65000000000003 607.37,438.65000000000003" fill="#ffb2c4"/><rect x="641.11" y="404.91" width="33.74" height="33.74" fill="#ffe7ed"/><polygon points="641.11,404.91 674.85,438.65000000000003 641.11,438.65000000000003" fill="#d6d6d6"/><rect x="607.37" y="438.66" width="33.74" height="33.74" fill="#b5b5b5"/><polygon points="607.37,438.66 641.11,438.66 641.11,472.40000000000003" fill="#ffc5d3"/><rect x="641.11" y="438.66" width="33.74" height="33.74" fill="#838383"/><polygon points="641.11,438.66 674.85,438.66 641.11,472.40000000000003" fill="#ff6d90"/><rect x="674.86" y="404.91" width="67.49" height="67.49" fill="#dadada"/><polygon points="742.35,404.91 742.35,472.40000000000003 674.86,472.40000000000003" fill="#5d5d5d"/><rect x="742.342857142857" y="404.9142857142857" width="67.48571428571428" height="67.48571428571428" fill="#ffffff"/><rect x="742.34" y="404.91" width="33.74" height="33.74" fill="#eeeeee"/><polygon points="776.08,404.91 776.08,438.65000000000003 742.34,438.65000000000003" fill="#676767"/><rect x="776.09" y="404.91" width="33.74" height="33.74" fill="#959595"/><polygon points="776.09,404.91 809.83,404.91 776.09,438.65000000000003" fill="#dfdfdf"/><rect x="742.34" y="438.66" width="33.74" height="33.74" fill="#ff90aa"/><polygon points="742.34,438.66 776.08,438.66 776.08,472.40000000000003" fill="#c6c6c6"/><rect x="776.09" y="438.66" width="33.74" height="33.74" fill="#616161"/><polygon points="776.09,438.66 809.83,472.40000000000003 776.09,472.40000000000003" fill="#bbbbbb"/></g></svg>