<?xml version="1.0" standalone="no"?><svg xmlns:xlink="http://www.w3.org/1999/xlink" xmlns="http://www.w3.org/2000/svg" viewBox="0 0 1000 583.3359059055969" preserveAspectRatio="xMaxYMax slice"><g transform="scale(1.234834686506344)"><rect x="0" y="0" width="809.8285714285714" height="472.4" fill="#ffffff"/><rect x="0" y="0" width="67.48571428571428" height="67.48571428571428" fill="#ffffff"/><rect x="0" y="0" width="33.74" height="33.74" fill="#c3dce7"/><polygon points="33.74,0 33.74,33.74 0,33.74" fill="#dfedf2"/><rect x="33.74" y="0" width="33.74" height="33.74" fill="#eefaf6"/><polygon points="33.74,0 67.48,33.74 33.74,33.74" fill="#89dbbe"/><rect x="0" y="33.74" width="33.74" height="33.74" fill="#a1c9d9"/><polygon points="0,33.74 33.74,33.74 33.74,67.48" fill="#94c1d4"/><rect x="33.74" y="33.74" width="33.74" height="33.74" fill="#f5f5f5"/><polygon points="33.74,33.74 67.48,33.74 33.74,67.48" fill="#82b7cd"/><rect x="67.48571428571428" y="0" width="67.48571428571428" height="67.48571428571428" fill="#ffffff"/><rect x="67.49" y="0" width="33.74" height="33.74" fill="#daeaf0"/><polygon points="101.22999999999999,0 101.22999999999999,33.74 67.49,33.74" fill="#8d8d8d"/><rect x="101.23" y="0" width="33.74" height="33.74" fill="#a3a3a3"/><polygon points="101.23,0 134.97,33.74 101.23,33.74" fill="#bdbdbd"/><rect x="67.49" y="33.74" width="33.74" height="33.74" fill="#94dfc4"/><polygon points="67.49,33.74 101.22999999999999,33.74 101.22999999999999,67.48" fill="#b9d7e3"/><rect x="101.23" y="33.74" width="33.74" height="33.74" fill="#b5b5b5"/><polygon points="101.23,33.74 134.97,33.74 101.23,67.48" fill="#bbbbbb"/><rect x="134.97" y="0" width="67.49" height="67.49" fill="#a0a0a0"/><rect x="134.97" y="0" width="67.49" height="67.49" fill="#f7f7f7"/><rect x="202.46" y="0" width="67.49" height="67.49" fill="#4e4e4e"/><polygon points="202.46,0 269.95,0 202.46,67.49" fill="#9a9a9a"/><rect x="269.94" y="0" width="67.49" height="67.49" fill="#7d7d7d"/><polygon points="337.43,0 337.43,67.49 269.94,67.49" fill="#777777"/><rect x="337.43" y="0" width="67.49" height="67.49" fill="#515151"/><polygon points="337.43,0 404.92,0 337.43,67.49" fill="#767676"/><rect x="404.91" y="0" width="67.49" height="67.49" fill="#666666"/><path d="M 404.91 67.49 A 67.49 67.49 0 0 0 472.40000000000003 0 L 404.91 0L404.91 67.49" fill="#e4f7f0"/><rect x="472.4" y="0" width="67.48571428571428" height="67.48571428571428" fill="#ffffff"/><rect x="472.4" y="0" width="33.74" height="33.74" fill="#7eb5cb"/><path d="M 472.4 0 A 33.74 33.74 0 0 0 506.14 33.74 L 506.14 0L472.4 0" fill="#c9efe1"/><rect x="506.14" y="0" width="33.74" height="33.74" fill="#b4e8d6"/><path d="M 506.14 33.74 A 33.74 33.74 0 0 0 539.88 0 L 506.14 0L506.14 33.74" fill="#bfecdc"/><rect x="472.4" y="33.74" width="33.74" height="33.74" fill="#b9d6e3"/><path d="M 472.4 67.48 A 33.74 33.74 0 0 1  506.14 33.74 L 506.14 67.48L472.4 67.48" fill="#c1c1c1"/><rect x="506.14" y="33.74" width="33.74" height="33.74" fill="#fafdfc"/><path d="M 506.14 33.74 A 33.74 33.74 0 0 1 539.88 67.48 L 506.14 67.48L506.14 33.74" fill="#77d6b4"/><rect x="539.8857142857142" y="0" width="67.48571428571428" height="67.48571428571428" fill="#ffffff"/><rect x="539.89" y="0" width="33.74" height="33.74" fill="#97dfc6"/><path d="M 539.89 33.74 A 33.74 33.74 0 0 0 573.63 0 L 539.89 0L539.89 33.74" fill="#6d6d6d"/><rect x="573.63" y="0" width="33.74" height="33.74" fill="#6a6a6a"/><path d="M 573.63 0 A 33.74 33.74 0 0 0 607.37 33.74 L 607.37 0L573.63 0" fill="#969696"/><rect x="539.89" y="33.74" width="33.74" height="33.74" fill="#b5e9d6"/><path d="M 539.89 33.74 A 33.74 33.74 0 0 1 573.63 67.48 L 539.89 67.48L539.89 33.74" fill="#c2c2c2"/><rect x="573.63" y="33.74" width="33.74" height="33.74" fill="#eef5f8"/><path d="M 573.63 67.48 A 33.74 33.74 0 0 1  607.37 33.74 L 607.37 67.48L573.63 67.48" fill="#fefeff"/><rect x="607.37" y="0" width="67.49" height="67.49" fill="#979797"/><path d="M 607.37 67.49 A 67.49 67.49 0 0 1  674.86 0 L 607.37 67.49 A 67.49 67.49 0 0 0 674.86 0" fill="#74d5b3"/><rect x="674.8571428571428" y="0" width="67.48571428571428" height="67.48571428571428" fill="#ffffff"/><rect x="674.86" y="0" width="33.74" height="33.74" fill="#4e99b8"/><polygon points="708.6,0 708.6,33.74 674.86,33.74" fill="#4a4a4a"/><rect x="708.6" y="0" width="33.74" height="33.74" fill="#599fbc"/><polygon points="708.6,0 742.34,0 708.6,33.74" fill="#dfdfdf"/><rect x="674.86" y="33.74" width="33.74" height="33.74" fill="#dbf4eb"/><polygon points="674.86,33.74 708.6,33.74 708.6,67.48" fill="#d8d8d8"/><rect x="708.6" y="33.74" width="33.74" height="33.74" fill="#646464"/><polygon points="708.6,33.74 742.34,67.48 708.6,67.48" fill="#cacaca"/><rect x="742.342857142857" y="0" width="67.48571428571428" height="67.48571428571428" fill="#ffffff"/><rect x="742.34" y="0" width="33.74" height="33.74" fill="#b8b8b8"/><path d="M 742.34 33.74 A 33.74 33.74 0 0 1 776.08 0 L 776.08 8.435 A 25.305 25.305 0 0 0 750.775 33.74" fill="#6b6b6b"/><rect x="776.09" y="0" width="33.74" height="33.74" fill="#5da2be"/><path d="M 776.09 0 A 33.74 33.74 0 0 1 809.83 33.74 L 801.395 33.74 A 25.305 25.305 0 0 0 776.09 8.435" fill="#d9d9d9"/><rect x="742.34" y="33.74" width="33.74" height="33.74" fill="#529bba"/><path d="M 742.34 33.74 A 33.74 33.74 0 0 0 776.08 67.48 L 776.08 59.045 A 25.305 25.305 0 0 1 750.775 33.74" fill="#4f4f4f"/><rect x="776.09" y="33.74" width="33.74" height="33.74" fill="#cecece"/><path d="M 776.09 67.48 A 33.74 33.74 0 0 0 809.83 33.74 L 801.395 33.74 A 25.305 25.305 0 0 1 776.09 59.045" fill="#fdfdfd"/><rect x="0" y="67.48571428571428" width="67.48571428571428" height="67.48571428571428" fill="#ffffff"/><rect x="0" y="67.49" width="33.74" height="33.74" fill="#a2a2a2"/><path d="M 0 101.22999999999999 A 33.74 33.74 0 0 1  33.74 67.49 L 33.74 101.22999999999999L0 101.22999999999999" fill="#509ab9"/><rect x="33.74" y="67.49" width="33.74" height="33.74" fill="#c9c9c9"/><path d="M 33.74 67.49 A 33.74 33.74 0 0 1 67.48 101.22999999999999 L 33.74 101.22999999999999L33.74 67.49" fill="#abcfdd"/><rect x="0" y="101.23" width="33.74" height="33.74" fill="#7f7f7f"/><path d="M 0 101.23 A 33.74 33.74 0 0 0 33.74 134.97 L 33.74 101.23L0 101.23" fill="#e2e2e2"/><rect x="33.74" y="101.23" width="33.74" height="33.74" fill="#76d5b4"/><path d="M 33.74 134.97 A 33.74 33.74 0 0 0 67.48 101.23 L 33.74 101.23L33.74 134.97" fill="#b9d7e3"/><rect x="67.49" y="67.49" width="67.49" height="67.49" fill="#3d8fb1"/><path d="M 67.49 67.49 A 67.49 67.49 0 0 1 134.98 134.98 L 67.49 134.98L67.49 67.49" fill="#d9d9d9"/><rect x="134.97" y="67.49" width="67.49" height="67.49" fill="#fdfdfd"/><path d="M 134.97 134.98 A 67.49 67.49 0 0 1  202.45999999999998 67.49 L 134.97 134.98 A 67.49 67.49 0 0 0 202.45999999999998 67.49" fill="#9de1c9"/><rect x="202.46" y="67.49" width="67.49" height="67.49" fill="#ebf9f4"/><polygon points="202.46,67.49 269.95,67.49 202.46,134.98" fill="#a5e4cd"/><rect x="269.9428571428571" y="67.48571428571428" width="67.48571428571428" height="67.48571428571428" fill="#ffffff"/><rect x="269.94" y="67.49" width="33.74" height="33.74" fill="#6aa9c3"/><polygon points="303.68,67.49 303.68,101.22999999999999 269.94,101.22999999999999" fill="#99c4d6"/><rect x="303.69" y="67.49" width="33.74" height="33.74" fill="#4d4d4d"/><polygon points="303.69,67.49 337.43,67.49 303.69,101.22999999999999" fill="#d0d0d0"/><rect x="269.94" y="101.23" width="33.74" height="33.74" fill="#dcebf1"/><polygon points="269.94,101.23 303.68,101.23 303.68,134.97" fill="#ebebeb"/><rect x="303.69" y="101.23" width="33.74" height="33.74" fill="#d2f1e6"/><polygon points="303.69,101.23 337.43,134.97 303.69,134.97" fill="#d6e7ee"/><rect x="337.4285714285714" y="67.48571428571428" width="67.48571428571428" height="67.48571428571428" fill="#ffffff"/><rect x="337.43" y="67.49" width="33.74" height="33.74" fill="#d2d2d2"/><circle cx="354.3" cy="84.36" r="16.87" fill="#9b9b9b"/><rect x="371.17" y="67.49" width="33.74" height="33.74" fill="#828282"/><rect x="371.17" y="67.49" width="33.74" height="33.74" fill="#919191"/><rect x="337.43" y="101.23" width="33.74" height="33.74" fill="#adcfde"/><circle cx="354.3" cy="118.10000000000001" r="16.87" fill="#8dddc1"/><rect x="371.17" y="101.23" width="33.74" height="33.74" fill="#b1d2df"/><rect x="371.17" y="101.23" width="33.74" height="33.74" fill="#fcfcfc"/><rect x="404.91" y="67.49" width="67.49" height="67.49" fill="#7bb3ca"/><rect x="404.91" y="67.49" width="67.49" height="67.49" fill="#d3e6ed"/><rect x="472.4" y="67.49" width="67.49" height="67.49" fill="#a3e3cd"/><rect x="472.4" y="67.49" width="67.49" height="67.49" fill="#dbeaf1"/><rect x="539.8857142857142" y="67.48571428571428" width="67.48571428571428" height="67.48571428571428" fill="#ffffff"/><rect x="539.89" y="67.49" width="33.74" height="33.74" fill="#cacaca"/><path d="M 539.89 67.49 A 33.74 33.74 0 0 1 573.63 101.22999999999999 L 539.89 101.22999999999999L539.89 67.49" fill="#cbcbcb"/><rect x="573.63" y="67.49" width="33.74" height="33.74" fill="#6b6b6b"/><path d="M 573.63 101.22999999999999 A 33.74 33.74 0 0 1  607.37 67.49 L 607.37 101.22999999999999L573.63 101.22999999999999" fill="#585858"/><rect x="539.89" y="101.23" width="33.74" height="33.74" fill="#529bba"/><path d="M 539.89 134.97 A 33.74 33.74 0 0 0 573.63 101.23 L 539.89 101.23L539.89 134.97" fill="#64a6c1"/><rect x="573.63" y="101.23" width="33.74" height="33.74" fill="#66a6c1"/><path d="M 573.63 101.23 A 33.74 33.74 0 0 0 607.37 134.97 L 607.37 101.23L573.63 101.23" fill="#454545"/><rect x="607.37" y="67.49" width="67.49" height="67.49" fill="#cccccc"/><polygon points="607.37,67.49 674.86,67.49 674.86,134.98" fill="#818181"/><rect x="674.86" y="67.49" width="67.49" height="67.49" fill="#8cdcc0"/><polygon points="674.86,67.49 742.35,67.49 742.35,134.98" fill="#fbfdfd"/><rect x="742.34" y="67.49" width="67.49" height="67.49" fill="#caefe2"/><polygon points="742.34,67.49 809.83,67.49 809.83,134.98" fill="#8dddc1"/><rect x="0" y="134.97142857142856" width="67.48571428571428" height="67.48571428571428" fill="#ffffff"/><rect x="0" y="134.97" width="33.74" height="33.74" fill="#c4dde7"/><circle cx="16.87" cy="151.84" r="16.87" fill="#3b8db0"/><rect x="33.74" y="134.97" width="33.74" height="33.74" fill="#cccccc"/><rect x="33.74" y="134.97" width="33.74" height="33.74" fill="#bcebda"/><rect x="0" y="168.71" width="33.74" height="33.74" fill="#90ddc2"/><circle cx="16.87" cy="185.58" r="16.87" fill="#818181"/><rect x="33.74" y="168.71" width="33.74" height="33.74" fill="#bbd8e4"/><rect x="33.74" y="168.71" width="33.74" height="33.74" fill="#78b1c9"/><rect x="67.49" y="134.97" width="67.49" height="67.49" fill="#b7e9d7"/><rect x="67.49" y="134.97" width="67.49" height="67.49" fill="#4392b3"/><rect x="134.97" y="134.97" width="67.49" height="67.49" fill="#868686"/><polygon points="202.45999999999998,134.97 202.45999999999998,202.45999999999998 134.97,202.45999999999998" fill="#d8d8d8"/><rect x="202.45714285714286" y="134.97142857142856" width="67.48571428571428" height="67.48571428571428" fill="#ffffff"/><rect x="202.46" y="134.97" width="33.74" height="33.74" fill="#898989"/><path d="M 202.46 134.97 A 33.74 33.74 0 0 0 236.20000000000002 168.71 L 236.20000000000002 134.97L202.46 134.97" fill="#4e98b8"/><rect x="236.2" y="134.97" width="33.74" height="33.74" fill="#595959"/><path d="M 236.2 168.71 A 33.74 33.74 0 0 0 269.94 134.97 L 236.2 134.97L236.2 168.71" fill="#a9a9a9"/><rect x="202.46" y="168.71" width="33.74" height="33.74" fill="#4e4e4e"/><path d="M 202.46 202.45000000000002 A 33.74 33.74 0 0 1  236.20000000000002 168.71 L 236.20000000000002 202.45000000000002L202.46 202.45000000000002" fill="#a1a1a1"/><rect x="236.2" y="168.71" width="33.74" height="33.74" fill="#fbfbfb"/><path d="M 236.2 168.71 A 33.74 33.74 0 0 1 269.94 202.45000000000002 L 236.2 202.45000000000002L236.2 168.71" fill="#7d7d7d"/><rect x="269.9428571428571" y="134.97142857142856" width="67.48571428571428" height="67.48571428571428" fill="#ffffff"/><rect x="269.94" y="134.97" width="33.74" height="33.74" fill="#a5a5a5"/><circle cx="286.81" cy="151.84" r="16.87" fill="#6b6b6b"/><rect x="303.69" y="134.97" width="33.74" height="33.74" fill="#c6dee8"/><rect x="303.69" y="134.97" width="33.74" height="33.74" fill="#d8d8d8"/><rect x="269.94" y="168.71" width="33.74" height="33.74" fill="#68a8c2"/><circle cx="286.81" cy="185.58" r="16.87" fill="#707070"/><rect x="303.69" y="168.71" width="33.74" height="33.74" fill="#88bacf"/><rect x="303.69" y="168.71" width="33.74" height="33.74" fill="#707070"/><rect x="337.4285714285714" y="134.97142857142856" width="67.48571428571428" height="67.48571428571428" fill="#ffffff"/><rect x="337.43" y="134.97" width="33.74" height="33.74" fill="#4c4c4c"/><path d="M 337.43 134.97 A 33.74 33.74 0 0 0 371.17 168.71 L 371.17 134.97L337.43 134.97" fill="#979797"/><rect x="371.17" y="134.97" width="33.74" height="33.74" fill="#edf5f8"/><path d="M 371.17 168.71 A 33.74 33.74 0 0 0 404.91 134.97 L 371.17 134.97L371.17 168.71" fill="#f3fbf8"/><rect x="337.43" y="168.71" width="33.74" height="33.74" fill="#eeeeee"/><path d="M 337.43 202.45000000000002 A 33.74 33.74 0 0 1  371.17 168.71 L 371.17 202.45000000000002L337.43 202.45000000000002" fill="#d2f1e6"/><rect x="371.17" y="168.71" width="33.74" height="33.74" fill="#73aec7"/><path d="M 371.17 168.71 A 33.74 33.74 0 0 1 404.91 202.45000000000002 L 371.17 202.45000000000002L371.17 168.71" fill="#d1d1d1"/><rect x="404.91" y="134.97" width="67.49" height="67.49" fill="#bdbdbd"/><rect x="404.91" y="134.97" width="67.49" height="67.49" fill="#c1c1c1"/><rect x="472.4" y="134.97" width="67.49" height="67.49" fill="#4996b6"/><rect x="472.4" y="134.97" width="67.49" height="67.49" fill="#b7b7b7"/><rect x="539.8857142857142" y="134.97142857142856" width="67.48571428571428" height="67.48571428571428" fill="#ffffff"/><rect x="539.89" y="134.97" width="33.74" height="33.74" fill="#89dbbe"/><circle cx="556.76" cy="151.84" r="16.87" fill="#3e8fb1"/><rect x="573.63" y="134.97" width="33.74" height="33.74" fill="#f2fbf8"/><rect x="573.63" y="134.97" width="33.74" height="33.74" fill="#a9cddc"/><rect x="539.89" y="168.71" width="33.74" height="33.74" fill="#7b7b7b"/><circle cx="556.76" cy="185.58" r="16.87" fill="#a1a1a1"/><rect x="573.63" y="168.71" width="33.74" height="33.74" fill="#aee6d2"/><rect x="573.63" y="168.71" width="33.74" height="33.74" fill="#6c6c6c"/><rect x="607.3714285714285" y="134.97142857142856" width="67.48571428571428" height="67.48571428571428" fill="#ffffff"/><rect x="607.37" y="134.97" width="33.74" height="33.74" fill="#eef5f8"/><polygon points="641.11,134.97 641.11,168.71 607.37,168.71" fill="#fbfbfb"/><rect x="641.11" y="134.97" width="33.74" height="33.74" fill="#d4d4d4"/><polygon points="641.11,134.97 674.85,168.71 641.11,168.71" fill="#82b7cd"/><rect x="607.37" y="168.71" width="33.74" height="33.74" fill="#cce2eb"/><polygon points="607.37,168.71 641.11,168.71 607.37,202.45000000000002" fill="#eff6f9"/><rect x="641.11" y="168.71" width="33.74" height="33.74" fill="#696969"/><polygon points="641.11,168.71 674.85,168.71 674.85,202.45000000000002" fill="#cecece"/><rect x="674.8571428571428" y="134.97142857142856" width="67.48571428571428" height="67.48571428571428" fill="#ffffff"/><rect x="674.86" y="134.97" width="33.74" height="33.74" fill="#919191"/><path d="M 674.86 134.97 A 33.74 33.74 0 0 1 708.6 168.71 L 674.86 168.71L674.86 134.97" fill="#aeaeae"/><rect x="708.6" y="134.97" width="33.74" height="33.74" fill="#c7dfe9"/><path d="M 708.6 168.71 A 33.74 33.74 0 0 1  742.34 134.97 L 742.34 168.71L708.6 168.71" fill="#cccccc"/><rect x="674.86" y="168.71" width="33.74" height="33.74" fill="#e4eff4"/><path d="M 674.86 202.45000000000002 A 33.74 33.74 0 0 0 708.6 168.71 L 674.86 168.71L674.86 202.45000000000002" fill="#96dfc5"/><rect x="708.6" y="168.71" width="33.74" height="33.74" fill="#cacaca"/><path d="M 708.6 168.71 A 33.74 33.74 0 0 0 742.34 202.45000000000002 L 742.34 168.71L708.6 168.71" fill="#898989"/><rect x="742.34" y="134.97" width="67.49" height="67.49" fill="#b8e9d8"/><rect x="742.34" y="134.97" width="67.49" height="67.49" fill="#a0e2cb"/><rect x="0" y="202.45714285714286" width="67.48571428571428" height="67.48571428571428" fill="#ffffff"/><rect x="0" y="202.46" width="33.74" height="33.74" fill="#9be1c8"/><polygon points="33.74,202.46 33.74,236.20000000000002 0,236.20000000000002" fill="#caefe2"/><rect x="33.74" y="202.46" width="33.74" height="33.74" fill="#434343"/><polygon points="33.74,202.46 67.48,236.20000000000002 33.74,236.20000000000002" fill="#555555"/><rect x="0" y="236.2" width="33.74" height="33.74" fill="#707070"/><polygon points="0,236.2 33.74,236.2 33.74,269.94" fill="#b6b6b6"/><rect x="33.74" y="236.2" width="33.74" height="33.74" fill="#c5c5c5"/><polygon points="33.74,236.2 67.48,236.2 33.74,269.94" fill="#747474"/><rect x="67.48571428571428" y="202.45714285714286" width="67.48571428571428" height="67.48571428571428" fill="#ffffff"/><rect x="67.49" y="202.46" width="33.74" height="33.74" fill="#848484"/><path d="M 67.49 236.20000000000002 A 33.74 33.74 0 0 1 101.22999999999999 202.46 L 101.22999999999999 210.895 A 25.305 25.305 0 0 0 75.925 236.20000000000002" fill="#a0e2cb"/><rect x="101.23" y="202.46" width="33.74" height="33.74" fill="#f6fafc"/><path d="M 101.23 202.46 A 33.74 33.74 0 0 1 134.97 236.20000000000002 L 126.535 236.20000000000002 A 25.305 25.305 0 0 0 101.23 210.895" fill="#989898"/><rect x="67.49" y="236.2" width="33.74" height="33.74" fill="#c4eddf"/><path d="M 67.49 236.2 A 33.74 33.74 0 0 0 101.22999999999999 269.94 L 101.22999999999999 261.505 A 25.305 25.305 0 0 1 75.925 236.2" fill="#aee6d2"/><rect x="101.23" y="236.2" width="33.74" height="33.74" fill="#abcedd"/><path d="M 101.23 269.94 A 33.74 33.74 0 0 0 134.97 236.2 L 126.535 236.2 A 25.305 25.305 0 0 1 101.23 261.505" fill="#d3e6ed"/><rect x="134.97142857142856" y="202.45714285714286" width="67.48571428571428" height="67.48571428571428" fill="#ffffff"/><rect x="134.97" y="202.46" width="33.74" height="33.74" fill="#70acc5"/><polygon points="168.71,202.46 168.71,236.20000000000002 134.97,236.20000000000002" fill="#69a8c3"/><rect x="168.71" y="202.46" width="33.74" height="33.74" fill="#b7b7b7"/><polygon points="168.71,202.46 202.45000000000002,236.20000000000002 168.71,236.20000000000002" fill="#d9d9d9"/><rect x="134.97" y="236.2" width="33.74" height="33.74" fill="#cae0ea"/><polygon points="134.97,236.2 168.71,236.2 134.97,269.94" fill="#bbead9"/><rect x="168.71" y="236.2" width="33.74" height="33.74" fill="#969696"/><polygon points="168.71,236.2 202.45000000000002,236.2 202.45000000000002,269.94" fill="#c5eddf"/><rect x="202.46" y="202.46" width="67.49" height="67.49" fill="#404040"/><rect x="202.46" y="202.46" width="67.49" height="67.49" fill="#eff6f9"/><rect x="269.94" y="202.46" width="67.49" height="67.49" fill="#5b5b5b"/><polygon points="337.43,202.46 337.43,269.95 269.94,269.95" fill="#c9efe2"/><rect x="337.4285714285714" y="202.45714285714286" width="67.48571428571428" height="67.48571428571428" fill="#ffffff"/><rect x="337.43" y="202.46" width="33.74" height="33.74" fill="#cfcfcf"/><path d="M 337.43 236.20000000000002 A 33.74 33.74 0 0 1  371.17 202.46 L 371.17 236.20000000000002L337.43 236.20000000000002" fill="#afafaf"/><rect x="371.17" y="202.46" width="33.74" height="33.74" fill="#9d9d9d"/><path d="M 371.17 202.46 A 33.74 33.74 0 0 1 404.91 236.20000000000002 L 371.17 236.20000000000002L371.17 202.46" fill="#adcfde"/><rect x="337.43" y="236.2" width="33.74" height="33.74" fill="#4e4e4e"/><path d="M 337.43 236.2 A 33.74 33.74 0 0 0 371.17 269.94 L 371.17 236.2L337.43 236.2" fill="#c7c7c7"/><rect x="371.17" y="236.2" width="33.74" height="33.74" fill="#6baac4"/><path d="M 371.17 269.94 A 33.74 33.74 0 0 0 404.91 236.2 L 371.17 236.2L371.17 269.94" fill="#5ca1bd"/><rect x="404.9142857142857" y="202.45714285714286" width="67.48571428571428" height="67.48571428571428" fill="#ffffff"/><rect x="404.91" y="202.46" width="33.74" height="33.74" fill="#818181"/><path d="M 404.91 236.20000000000002 A 33.74 33.74 0 0 1 438.65000000000003 202.46 L 438.65000000000003 210.895 A 25.305 25.305 0 0 0 413.345 236.20000000000002" fill="#787878"/><rect x="438.66" y="202.46" width="33.74" height="33.74" fill="#549cba"/><path d="M 438.66 202.46 A 33.74 33.74 0 0 1 472.40000000000003 236.20000000000002 L 463.96500000000003 236.20000000000002 A 25.305 25.305 0 0 0 438.66 210.895" fill="#a3e3cd"/><rect x="404.91" y="236.2" width="33.74" height="33.74" fill="#c5c5c5"/><path d="M 404.91 236.2 A 33.74 33.74 0 0 0 438.65000000000003 269.94 L 438.65000000000003 261.505 A 25.305 25.305 0 0 1 413.345 236.2" fill="#efefef"/><rect x="438.66" y="236.2" width="33.74" height="33.74" fill="#fafcfd"/><path d="M 438.66 269.94 A 33.74 33.74 0 0 0 472.40000000000003 236.2 L 463.96500000000003 236.2 A 25.305 25.305 0 0 1 438.66 261.505" fill="#e3e3e3"/><rect x="472.4" y="202.45714285714286" width="67.48571428571428" height="67.48571428571428" fill="#ffffff"/><rect x="472.4" y="202.46" width="33.74" height="33.74" fill="#a1c9d9"/><circle cx="489.27" cy="219.33" r="16.87" fill="#ebf3f7"/><rect x="506.14" y="202.46" width="33.74" height="33.74" fill="#8f8f8f"/><rect x="506.14" y="202.46" width="33.74" height="33.74" fill="#f3f3f3"/><rect x="472.4" y="236.2" width="33.74" height="33.74" fill="#888888"/><circle cx="489.27" cy="253.07" r="16.87" fill="#959595"/><rect x="506.14" y="236.2" width="33.74" height="33.74" fill="#7e7e7e"/><rect x="506.14" y="236.2" width="33.74" height="33.74" fill="#5b5b5b"/><rect x="539.89" y="202.46" width="67.49" height="67.49" fill="#c1dbe6"/><rect x="539.89" y="202.46" width="67.49" height="67.49" fill="#81b6cc"/><rect x="607.37" y="202.46" width="67.49" height="67.49" fill="#85dabc"/><path d="M 607.37 269.95 A 67.49 67.49 0 0 0 674.86 202.46 L 607.37 202.46L607.37 269.95" fill="#959595"/><rect x="674.86" y="202.46" width="67.49" height="67.49" fill="#4694b5"/><rect x="674.86" y="202.46" width="67.49" height="67.49" fill="#626262"/><rect x="742.342857142857" y="202.45714285714286" width="67.48571428571428" height="67.48571428571428" fill="#ffffff"/><rect x="742.34" y="202.46" width="33.74" height="33.74" fill="#84dabb"/><path d="M 742.34 236.20000000000002 A 33.74 33.74 0 0 1  776.08 202.46 L 776.08 236.20000000000002L742.34 236.20000000000002" fill="#c5eddf"/><rect x="776.09" y="202.46" width="33.74" height="33.74" fill="#737373"/><path d="M 776.09 202.46 A 33.74 33.74 0 0 1 809.83 236.20000000000002 L 776.09 236.20000000000002L776.09 202.46" fill="#96dfc5"/><rect x="742.34" y="236.2" width="33.74" height="33.74" fill="#f2f8fa"/><path d="M 742.34 236.2 A 33.74 33.74 0 0 0 776.08 269.94 L 776.08 236.2L742.34 236.2" fill="#d7f3e9"/><rect x="776.09" y="236.2" width="33.74" height="33.74" fill="#b6b6b6"/><path d="M 776.09 269.94 A 33.74 33.74 0 0 0 809.83 236.2 L 776.09 236.2L776.09 269.94" fill="#d5e7ee"/><rect x="0" y="269.9428571428571" width="67.48571428571428" height="67.48571428571428" fill="#ffffff"/><rect x="0" y="269.94" width="33.74" height="33.74" fill="#fbfbfb"/><polygon points="33.74,269.94 33.74,303.68 0,303.68" fill="#505050"/><rect x="33.74" y="269.94" width="33.74" height="33.74" fill="#bababa"/><polygon points="33.74,269.94 67.48,303.68 33.74,303.68" fill="#e5e5e5"/><rect x="0" y="303.69" width="33.74" height="33.74" fill="#f1f1f1"/><polygon points="0,303.69 33.74,303.69 33.74,337.43" fill="#6f6f6f"/><rect x="33.74" y="303.69" width="33.74" height="33.74" fill="#6c6c6c"/><polygon points="33.74,303.69 67.48,303.69 33.74,337.43" fill="#c0ecdc"/><rect x="67.48571428571428" y="269.9428571428571" width="67.48571428571428" height="67.48571428571428" fill="#ffffff"/><rect x="67.49" y="269.94" width="33.74" height="33.74" fill="#75d5b3"/><path d="M 67.49 269.94 A 33.74 33.74 0 0 0 101.22999999999999 303.68 L 101.22999999999999 269.94L67.49 269.94" fill="#90dec2"/><rect x="101.23" y="269.94" width="33.74" height="33.74" fill="#fdfdfd"/><path d="M 101.23 303.68 A 33.74 33.74 0 0 0 134.97 269.94 L 101.23 269.94L101.23 303.68" fill="#cdcdcd"/><rect x="67.49" y="303.69" width="33.74" height="33.74" fill="#b5b5b5"/><path d="M 67.49 337.43 A 33.74 33.74 0 0 1  101.22999999999999 303.69 L 101.22999999999999 337.43L67.49 337.43" fill="#a0a0a0"/><rect x="101.23" y="303.69" width="33.74" height="33.74" fill="#8eddc1"/><path d="M 101.23 303.69 A 33.74 33.74 0 0 1 134.97 337.43 L 101.23 337.43L101.23 303.69" fill="#4c98b7"/><rect x="134.97142857142856" y="269.9428571428571" width="67.48571428571428" height="67.48571428571428" fill="#ffffff"/><rect x="134.97" y="269.94" width="33.74" height="33.74" fill="#91dec3"/><polygon points="168.71,269.94 168.71,303.68 134.97,303.68" fill="#e1f6ee"/><rect x="168.71" y="269.94" width="33.74" height="33.74" fill="#cbefe3"/><polygon points="168.71,269.94 202.45000000000002,303.68 168.71,303.68" fill="#535353"/><rect x="134.97" y="303.69" width="33.74" height="33.74" fill="#60a3bf"/><polygon points="134.97,303.69 168.71,303.69 168.71,337.43" fill="#6facc5"/><rect x="168.71" y="303.69" width="33.74" height="33.74" fill="#d0f1e5"/><polygon points="168.71,303.69 202.45000000000002,303.69 168.71,337.43" fill="#3d8fb1"/><rect x="202.45714285714286" y="269.9428571428571" width="67.48571428571428" height="67.48571428571428" fill="#ffffff"/><rect x="202.46" y="269.94" width="33.74" height="33.74" fill="#cccccc"/><path d="M 202.46 303.68 A 33.74 33.74 0 0 1 236.20000000000002 269.94 L 236.20000000000002 278.375 A 25.305 25.305 0 0 0 210.895 303.68" fill="#6a6a6a"/><rect x="236.2" y="269.94" width="33.74" height="33.74" fill="#bcebda"/><path d="M 236.2 269.94 A 33.74 33.74 0 0 1 269.94 303.68 L 261.505 303.68 A 25.305 25.305 0 0 0 236.2 278.375" fill="#9ae0c7"/><rect x="202.46" y="303.69" width="33.74" height="33.74" fill="#cbcbcb"/><path d="M 202.46 303.69 A 33.74 33.74 0 0 0 236.20000000000002 337.43 L 236.20000000000002 328.995 A 25.305 25.305 0 0 1 210.895 303.69" fill="#dddddd"/><rect x="236.2" y="303.69" width="33.74" height="33.74" fill="#454545"/><path d="M 236.2 337.43 A 33.74 33.74 0 0 0 269.94 303.69 L 261.505 303.69 A 25.305 25.305 0 0 1 236.2 328.995" fill="#8abbd0"/><rect x="269.9428571428571" y="269.9428571428571" width="67.48571428571428" height="67.48571428571428" fill="#ffffff"/><rect x="269.94" y="269.94" width="33.74" height="33.74" fill="#91dec3"/><circle cx="286.81" cy="286.81" r="16.87" fill="#929292"/><rect x="303.69" y="269.94" width="33.74" height="33.74" fill="#505050"/><rect x="303.69" y="269.94" width="33.74" height="33.74" fill="#e9f2f6"/><rect x="269.94" y="303.69" width="33.74" height="33.74" fill="#beebdb"/><circle cx="286.81" cy="320.56" r="16.87" fill="#dfdfdf"/><rect x="303.69" y="303.69" width="33.74" height="33.74" fill="#76d5b4"/><rect x="303.69" y="303.69" width="33.74" height="33.74" fill="#95dfc5"/><rect x="337.4285714285714" y="269.9428571428571" width="67.48571428571428" height="67.48571428571428" fill="#ffffff"/><rect x="337.43" y="269.94" width="33.74" height="33.74" fill="#f6f6f6"/><path d="M 337.43 269.94 A 33.74 33.74 0 0 0 371.17 303.68 L 371.17 269.94L337.43 269.94" fill="#60a3bf"/><rect x="371.17" y="269.94" width="33.74" height="33.74" fill="#5a5a5a"/><path d="M 371.17 303.68 A 33.74 33.74 0 0 0 404.91 269.94 L 371.17 269.94L371.17 303.68" fill="#dddddd"/><rect x="337.43" y="303.69" width="33.74" height="33.74" fill="#93c0d3"/><path d="M 337.43 337.43 A 33.74 33.74 0 0 1  371.17 303.69 L 371.17 337.43L337.43 337.43" fill="#6c6c6c"/><rect x="371.17" y="303.69" width="33.74" height="33.74" fill="#cbefe2"/><path d="M 371.17 303.69 A 33.74 33.74 0 0 1 404.91 337.43 L 371.17 337.43L371.17 303.69" fill="#8ddcc0"/><rect x="404.91" y="269.94" width="67.49" height="67.49" fill="#c1dbe6"/><polygon points="472.40000000000003,269.94 472.40000000000003,337.43 404.91,337.43" fill="#bad7e3"/><rect x="472.4" y="269.94" width="67.49" height="67.49" fill="#d5d5d5"/><rect x="472.4" y="269.94" width="67.49" height="67.49" fill="#b5b5b5"/><rect x="539.8857142857142" y="269.9428571428571" width="67.48571428571428" height="67.48571428571428" fill="#ffffff"/><rect x="539.89" y="269.94" width="33.74" height="33.74" fill="#edfaf5"/><path d="M 539.89 303.68 A 33.74 33.74 0 0 0 573.63 269.94 L 539.89 269.94L539.89 303.68" fill="#b3d3e0"/><rect x="573.63" y="269.94" width="33.74" height="33.74" fill="#e7e7e7"/><path d="M 573.63 269.94 A 33.74 33.74 0 0 0 607.37 303.68 L 607.37 269.94L573.63 269.94" fill="#ececec"/><rect x="539.89" y="303.69" width="33.74" height="33.74" fill="#d3d3d3"/><path d="M 539.89 303.69 A 33.74 33.74 0 0 1 573.63 337.43 L 539.89 337.43L539.89 303.69" fill="#515151"/><rect x="573.63" y="303.69" width="33.74" height="33.74" fill="#dae9f0"/><path d="M 573.63 337.43 A 33.74 33.74 0 0 1  607.37 303.69 L 607.37 337.43L573.63 337.43" fill="#535353"/><rect x="607.3714285714285" y="269.9428571428571" width="67.48571428571428" height="67.48571428571428" fill="#ffffff"/><rect x="607.37" y="269.94" width="33.74" height="33.74" fill="#add0de"/><polygon points="641.11,269.94 641.11,303.68 607.37,303.68" fill="#f0f0f0"/><rect x="641.11" y="269.94" width="33.74" height="33.74" fill="#e8f8f2"/><polygon points="641.11,269.94 674.85,269.94 641.11,303.68" fill="#abe6d1"/><rect x="607.37" y="303.69" width="33.74" height="33.74" fill="#8f8f8f"/><polygon points="607.37,303.69 641.11,303.69 641.11,337.43" fill="#3d8fb1"/><rect x="641.11" y="303.69" width="33.74" height="33.74" fill="#4091b2"/><polygon points="641.11,303.69 674.85,337.43 641.11,337.43" fill="#424242"/><rect x="674.86" y="269.94" width="67.49" height="67.49" fill="#b0b0b0"/><polygon points="674.86,269.94 742.35,269.94 742.35,337.43" fill="#e8f2f6"/><rect x="742.34" y="269.94" width="67.49" height="67.49" fill="#767676"/><polygon points="742.34,269.94 809.83,269.94 742.34,337.43" fill="#b6e9d7"/><rect x="0" y="337.43" width="67.49" height="67.49" fill="#646464"/><polygon points="0,337.43 67.49,404.92 0,404.92" fill="#a3e3cc"/><rect x="67.49" y="337.43" width="67.49" height="67.49" fill="#c6eee0"/><path d="M 67.49 337.43 A 67.49 67.49 0 0 1 134.98 404.92 L 67.49 404.92L67.49 337.43" fill="#8e8e8e"/><rect x="134.97" y="337.43" width="67.49" height="67.49" fill="#4f4f4f"/><polygon points="134.97,337.43 202.45999999999998,404.92 134.97,404.92" fill="#7fd8b8"/><rect x="202.46" y="337.43" width="67.49" height="67.49" fill="#dfdfdf"/><path d="M 202.46 337.43 A 67.49 67.49 0 0 1  269.95 404.92 L 202.46 337.43 A 67.49 67.49 0 0 0 269.95 404.92" fill="#7f7f7f"/><rect x="269.94" y="337.43" width="67.49" height="67.49" fill="#959595"/><path d="M 269.94 337.43 A 67.49 67.49 0 0 0 337.43 404.92 L 337.43 337.43L269.94 337.43" fill="#8adcbf"/><rect x="337.4285714285714" y="337.4285714285714" width="67.48571428571428" height="67.48571428571428" fill="#ffffff"/><rect x="337.43" y="337.43" width="33.74" height="33.74" fill="#cdcdcd"/><path d="M 337.43 371.17 A 33.74 33.74 0 0 1  371.17 337.43 L 371.17 371.17L337.43 371.17" fill="#efefef"/><rect x="371.17" y="337.43" width="33.74" height="33.74" fill="#5b5b5b"/><path d="M 371.17 337.43 A 33.74 33.74 0 0 1 404.91 371.17 L 371.17 371.17L371.17 337.43" fill="#8fddc1"/><rect x="337.43" y="371.17" width="33.74" height="33.74" fill="#f1fbf7"/><path d="M 337.43 371.17 A 33.74 33.74 0 0 0 371.17 404.91 L 371.17 371.17L337.43 371.17" fill="#a9e5d0"/><rect x="371.17" y="371.17" width="33.74" height="33.74" fill="#e7f8f2"/><path d="M 371.17 404.91 A 33.74 33.74 0 0 0 404.91 371.17 L 371.17 371.17L371.17 404.91" fill="#84dabb"/><rect x="404.91" y="337.43" width="67.49" height="67.49" fill="#caefe2"/><path d="M 404.91 337.43 A 67.49 67.49 0 0 1 472.40000000000003 404.92 L 404.91 404.92L404.91 337.43" fill="#e9f8f3"/><rect x="472.4" y="337.43" width="67.49" height="67.49" fill="#666666"/><polygon points="472.4,337.43 539.89,337.43 472.4,404.92" fill="#414141"/><rect x="539.89" y="337.43" width="67.49" height="67.49" fill="#b6e9d7"/><polygon points="539.89,337.43 607.38,404.92 539.89,404.92" fill="#e3f7f0"/><rect x="607.3714285714285" y="337.4285714285714" width="67.48571428571428" height="67.48571428571428" fill="#ffffff"/><rect x="607.37" y="337.43" width="33.74" height="33.74" fill="#afd1df"/><path d="M 607.37 371.17 A 33.74 33.74 0 0 1  641.11 337.43 L 641.11 371.17L607.37 371.17" fill="#f4f9fb"/><rect x="641.11" y="337.43" width="33.74" height="33.74" fill="#fbfefd"/><path d="M 641.11 337.43 A 33.74 33.74 0 0 1 674.85 371.17 L 641.11 371.17L641.11 337.43" fill="#5d5d5d"/><rect x="607.37" y="371.17" width="33.74" height="33.74" fill="#98e0c7"/><path d="M 607.37 371.17 A 33.74 33.74 0 0 0 641.11 404.91 L 641.11 371.17L607.37 371.17" fill="#c2c2c2"/><rect x="641.11" y="371.17" width="33.74" height="33.74" fill="#a9cddd"/><path d="M 641.11 404.91 A 33.74 33.74 0 0 0 674.85 371.17 L 641.11 371.17L641.11 404.91" fill="#81d9ba"/><rect x="674.86" y="337.43" width="67.49" height="67.49" fill="#7c7c7c"/><polygon points="674.86,337.43 742.35,337.43 674.86,404.92" fill="#9d9d9d"/><rect x="742.34" y="337.43" width="67.49" height="67.49" fill="#939393"/><rect x="742.34" y="337.43" width="67.49" height="67.49" fill="#a5e4cd"/><rect x="0" y="404.91" width="67.49" height="67.49" fill="#5da1be"/><path d="M 0 472.40000000000003 A 67.49 67.49 0 0 1  67.49 404.91 L 0 472.40000000000003 A 67.49 67.49 0 0 0 67.49 404.91" fill="#4593b4"/><rect x="67.48571428571428" y="404.9142857142857" width="67.48571428571428" height="67.48571428571428" fill="#ffffff"/><rect x="67.49" y="404.91" width="33.74" height="33.74" fill="#7cd7b7"/><path d="M 67.49 438.65000000000003 A 33.74 33.74 0 0 1 101.22999999999999 404.91 L 101.22999999999999 413.345 A 25.305 25.305 0 0 0 75.925 438.65000000000003" fill="#cff0e4"/><rect x="101.23" y="404.91" width="33.74" height="33.74" fill="#bfecdc"/><path d="M 101.23 404.91 A 33.74 33.74 0 0 1 134.97 438.65000000000003 L 126.535 438.65000000000003 A 25.305 25.305 0 0 0 101.23 413.345" fill="#c0dae6"/><rect x="67.49" y="438.66" width="33.74" height="33.74" fill="#4795b5"/><path d="M 67.49 438.66 A 33.74 33.74 0 0 0 101.22999999999999 472.40000000000003 L 101.22999999999999 463.96500000000003 A 25.305 25.305 0 0 1 75.925 438.66" fill="#cccccc"/><rect x="101.23" y="438.66" width="33.74" height="33.74" fill="#7db4cb"/><path d="M 101.23 472.40000000000003 A 33.74 33.74 0 0 0 134.97 438.66 L 126.535 438.66 A 25.305 25.305 0 0 1 101.23 463.96500000000003" fill="#e5f0f5"/><rect x="134.97142857142856" y="404.9142857142857" width="67.48571428571428" height="67.48571428571428" fill="#ffffff"/><rect x="134.97" y="404.91" width="33.74" height="33.74" fill="#6b6b6b"/><polygon points="168.71,404.91 168.71,438.65000000000003 134.97,438.65000000000003" fill="#9ce1c9"/><rect x="168.71" y="404.91" width="33.74" height="33.74" fill="#a0c8d9"/><polygon points="168.71,404.91 202.45000000000002,404.91 168.71,438.65000000000003" fill="#dddddd"/><rect x="134.97" y="438.66" width="33.74" height="33.74" fill="#fafdfc"/><polygon points="134.97,438.66 168.71,438.66 168.71,472.40000000000003" fill="#b8e9d8"/><rect x="168.71" y="438.66" width="33.74" height="33.74" fill="#9c9c9c"/><polygon points="168.71,438.66 202.45000000000002,472.40000000000003 168.71,472.40000000000003" fill="#9e9e9e"/><rect x="202.46" y="404.91" width="67.49" height="67.49" fill="#baead9"/><rect x="202.46" y="404.91" width="67.49" height="67.49" fill="#606060"/><rect x="269.9428571428571" y="404.9142857142857" width="67.48571428571428" height="67.48571428571428" fill="#ffffff"/><rect x="269.94" y="404.91" width="33.74" height="33.74" fill="#e0f6ee"/><path d="M 269.94 438.65000000000003 A 33.74 33.74 0 0 1 303.68 404.91 L 303.68 413.345 A 25.305 25.305 0 0 0 278.375 438.65000000000003" fill="#d2f1e6"/><rect x="303.69" y="404.91" width="33.74" height="33.74" fill="#9b9b9b"/><path d="M 303.69 404.91 A 33.74 33.74 0 0 1 337.43 438.65000000000003 L 328.995 438.65000000000003 A 25.305 25.305 0 0 0 303.69 413.345" fill="#feffff"/><rect x="269.94" y="438.66" width="33.74" height="33.74" fill="#5d5d5d"/><path d="M 269.94 438.66 A 33.74 33.74 0 0 0 303.68 472.40000000000003 L 303.68 463.96500000000003 A 25.305 25.305 0 0 1 278.375 438.66" fill="#dadada"/><rect x="303.69" y="438.66" width="33.74" height="33.74" fill="#808080"/><path d="M 303.69 472.40000000000003 A 33.74 33.74 0 0 0 337.43 438.66 L 328.995 438.66 A 25.305 25.305 0 0 1 303.69 463.96500000000003" fill="#c3edde"/><rect x="337.43" y="404.91" width="67.49" height="67.49" fill="#4c4c4c"/><rect x="337.43" y="404.91" width="67.49" height="67.49" fill="#c1c1c1"/><rect x="404.9142857142857" y="404.9142857142857" width="67.48571428571428" height="67.48571428571428" fill="#ffffff"/><rect x="404.91" y="404.91" width="33.74" height="33.74" fill="#626262"/><polygon points="438.65000000000003,404.91 438.65000000000003,438.65000000000003 404.91,438.65000000000003" fill="#f2f2f2"/><rect x="438.66" y="404.91" width="33.74" height="33.74" fill="#8bdcbf"/><polygon points="438.66,404.91 472.40000000000003,404.91 438.66,438.65000000000003" fill="#559dbb"/><rect x="404.91" y="438.66" width="33.74" height="33.74" fill="#86b9ce"/><polygon points="404.91,438.66 438.65000000000003,438.66 438.65000000000003,472.40000000000003" fill="#74afc7"/><rect x="438.66" y="438.66" width="33.74" height="33.74" fill="#696969"/><polygon points="438.66,438.66 472.40000000000003,472.40000000000003 438.66,472.40000000000003" fill="#fafafa"/><rect x="472.4" y="404.9142857142857" width="67.48571428571428" height="67.48571428571428" fill="#ffffff"/><rect x="472.4" y="404.91" width="33.74" height="33.74" fill="#aacedd"/><path d="M 472.4 404.91 A 33.74 33.74 0 0 1 506.14 438.65000000000003 L 472.4 438.65000000000003L472.4 404.91" fill="#c8c8c8"/><rect x="506.14" y="404.91" width="33.74" height="33.74" fill="#5b5b5b"/><path d="M 506.14 438.65000000000003 A 33.74 33.74 0 0 1  539.88 404.91 L 539.88 438.65000000000003L506.14 438.65000000000003" fill="#ededed"/><rect x="472.4" y="438.66" width="33.74" height="33.74" fill="#a8e5cf"/><path d="M 472.4 472.40000000000003 A 33.74 33.74 0 0 0 506.14 438.66 L 472.4 438.66L472.4 472.40000000000003" fill="#aaaaaa"/><rect x="506.14" y="438.66" width="33.74" height="33.74" fill="#737373"/><path d="M 506.14 438.66 A 33.74 33.74 0 0 0 539.88 472.40000000000003 L 539.88 438.66L506.14 438.66" fill="#484848"/><rect x="539.8857142857142" y="404.9142857142857" width="67.48571428571428" height="67.48571428571428" fill="#ffffff"/><rect x="539.89" y="404.91" width="33.74" height="33.74" fill="#f6fafb"/><path d="M 539.89 438.65000000000003 A 33.74 33.74 0 0 1 573.63 404.91 L 573.63 413.345 A 25.305 25.305 0 0 0 548.3249999999999 438.65000000000003" fill="#646464"/><rect x="573.63" y="404.91" width="33.74" height="33.74" fill="#6c6c6c"/><path d="M 573.63 404.91 A 33.74 33.74 0 0 1 607.37 438.65000000000003 L 598.935 438.65000000000003 A 25.305 25.305 0 0 0 573.63 413.345" fill="#7fd8b9"/><rect x="539.89" y="438.66" width="33.74" height="33.74" fill="#a5a5a5"/><path d="M 539.89 438.66 A 33.74 33.74 0 0 0 573.63 472.40000000000003 L 573.63 463.96500000000003 A 25.305 25.305 0 0 1 548.3249999999999 438.66" fill="#d4d4d4"/><rect x="573.63" y="438.66" width="33.74" height="33.74" fill="#80d9b9"/><path d="M 573.63 472.40000000000003 A 33.74 33.74 0 0 0 607.37 438.66 L 598.935 438.66 A 25.305 25.305 0 0 1 573.63 463.96500000000003" fill="#ffffff"/><rect x="607.3714285714285" y="404.9142857142857" width="67.48571428571428" height="67.48571428571428" fill="#ffffff"/><rect x="607.37" y="404.91" width="33.74" height="33.74" fill="#d5d5d5"/><path d="M 607.37 438.65000000000003 A 33.74 33.74 0 0 0 641.11 404.91 L 607.37 404.91L607.37 438.65000000000003" fill="#545454"/><rect x="641.11" y="404.91" width="33.74" height="33.74" fill="#77b0c8"/><path d="M 641.11 404.91 A 33.74 33.74 0 0 0 674.85 438.65000000000003 L 674.85 404.91L641.11 404.91" fill="#9d9d9d"/><rect x="607.37" y="438.66" width="33.74" height="33.74" fill="#c5eddf"/><path d="M 607.37 438.66 A 33.74 33.74 0 0 1 641.11 472.40000000000003 L 607.37 472.40000000000003L607.37 438.66" fill="#4f4f4f"/><rect x="641.11" y="438.66" width="33.74" height="33.74" fill="#7a7a7a"/><path d="M 641.11 472.40000000000003 A 33.74 33.74 0 0 1  674.85 438.66 L 674.85 472.40000000000003L641.11 472.40000000000003" fill="#f4f8fa"/><rect x="674.86" y="404.91" width="67.49" height="67.49" fill="#8e8e8e"/><rect x="674.86" y="404.91" width="67.49" height="67.49" fill="#5e5e5e"/><rect x="742.34" y="404.91" width="67.49" height="67.49" fill="#a7e4cf"/><rect x="742.34" y="404.91" width="67.49" height="67.49" fill="#fcfcfc"/></g></svg>