<?xml version="1.0" standalone="no"?><svg xmlns:xlink="http://www.w3.org/1999/xlink" xmlns="http://www.w3.org/2000/svg" viewBox="0 0 1000 583.3359059055969" preserveAspectRatio="xMaxYMax slice"><g transform="scale(1.234834686506344)"><rect x="0" y="0" width="809.8285714285714" height="472.4" fill="#ffffff"/><g transform="translate(0,0) scale(3.3745) rotate(0)"><path d="M10 5L5 0L0 5L5 10L0 15L5 20L10 15L15 20L20 15L15 10L20 5L15 0L10 5Z" fill="#73d5b2"/></g><g transform="translate(67.49,0) scale(3.3745) rotate(0)"><path d="M10 5L5 0L0 5L5 10L0 15L5 20L10 15L15 20L20 15L15 10L20 5L15 0L10 5Z" fill="#7d7d7d"/></g><rect x="134.97142857142856" y="0" width="67.48571428571428" height="67.48571428571428" fill="#ffffff"/><g transform="translate(134.97,0) scale(1.687) rotate(0)"><path d="M10 5L5 0L0 5L5 10L0 15L5 20L10 15L15 20L20 15L15 10L20 5L15 0L10 5Z" fill="#a3a3a3"/></g><g transform="translate(168.71,0) scale(1.687) rotate(0)"><path d="M10 5L5 0L0 5L5 10L0 15L5 20L10 15L15 20L20 15L15 10L20 5L15 0L10 5Z" fill="#c6eee0"/></g><g transform="translate(134.97,33.74) scale(1.687) rotate(0)"><path d="M10 5L5 0L0 5L5 10L0 15L5 20L10 15L15 20L20 15L15 10L20 5L15 0L10 5Z" fill="#a9e5d0"/></g><g transform="translate(168.71,33.74) scale(1.687) rotate(0)"><path d="M10 5L5 0L0 5L5 10L0 15L5 20L10 15L15 20L20 15L15 10L20 5L15 0L10 5Z" fill="#a4a4a4"/></g><g transform="translate(202.46,0) scale(3.3745) rotate(0)"><path d="M10 5L5 0L0 5L5 10L0 15L5 20L10 15L15 20L20 15L15 10L20 5L15 0L10 5Z" fill="#f3fbf8"/></g><g transform="translate(269.94,0) scale(3.3745) rotate(0)"><path d="M10 5L5 0L0 5L5 10L0 15L5 20L10 15L15 20L20 15L15 10L20 5L15 0L10 5Z" fill="#9ce1c9"/></g><g transform="translate(337.43,0) scale(3.3745) rotate(0)"><path d="M10 5L5 0L0 5L5 10L0 15L5 20L10 15L15 20L20 15L15 10L20 5L15 0L10 5Z" fill="#828282"/></g><rect x="404.9142857142857" y="0" width="67.48571428571428" height="67.48571428571428" fill="#ffffff"/><g transform="translate(404.91,0) scale(1.687) rotate(0)"><path d="M10 5L5 0L0 5L5 10L0 15L5 20L10 15L15 20L20 15L15 10L20 5L15 0L10 5Z" fill="#939393"/></g><g transform="translate(438.66,0) scale(1.687) rotate(0)"><path d="M10 5L5 0L0 5L5 10L0 15L5 20L10 15L15 20L20 15L15 10L20 5L15 0L10 5Z" fill="#e2e2e2"/></g><g transform="translate(404.91,33.74) scale(1.687) rotate(0)"><path d="M10 5L5 0L0 5L5 10L0 15L5 20L10 15L15 20L20 15L15 10L20 5L15 0L10 5Z" fill="#9de1c9"/></g><g transform="translate(438.66,33.74) scale(1.687) rotate(0)"><path d="M10 5L5 0L0 5L5 10L0 15L5 20L10 15L15 20L20 15L15 10L20 5L15 0L10 5Z" fill="#626262"/></g><g transform="translate(472.4,0) scale(3.3745) rotate(0)"><path d="M10 5L5 0L0 5L5 10L0 15L5 20L10 15L15 20L20 15L15 10L20 5L15 0L10 5Z" fill="#a0e2cb"/></g><g transform="translate(539.89,0) scale(3.3745) rotate(0)"><path d="M10 5L5 0L0 5L5 10L0 15L5 20L10 15L15 20L20 15L15 10L20 5L15 0L10 5Z" fill="#75d5b3"/></g><rect x="607.3714285714285" y="0" width="67.48571428571428" height="67.48571428571428" fill="#ffffff"/><g transform="translate(607.37,0) scale(1.687) rotate(0)"><path d="M10 5L5 0L0 5L5 10L0 15L5 20L10 15L15 20L20 15L15 10L20 5L15 0L10 5Z" fill="#c4eddf"/></g><g transform="translate(641.11,0) scale(1.687) rotate(0)"><path d="M10 5L5 0L0 5L5 10L0 15L5 20L10 15L15 20L20 15L15 10L20 5L15 0L10 5Z" fill="#747474"/></g><g transform="translate(607.37,33.74) scale(1.687) rotate(0)"><path d="M10 5L5 0L0 5L5 10L0 15L5 20L10 15L15 20L20 15L15 10L20 5L15 0L10 5Z" fill="#f1f1f1"/></g><g transform="translate(641.11,33.74) scale(1.687) rotate(0)"><path d="M10 5L5 0L0 5L5 10L0 15L5 20L10 15L15 20L20 15L15 10L20 5L15 0L10 5Z" fill="#a3e3cc"/></g><g transform="translate(674.86,0) scale(3.3745) rotate(0)"><path d="M10 5L5 0L0 5L5 10L0 15L5 20L10 15L15 20L20 15L15 10L20 5L15 0L10 5Z" fill="#95dfc5"/></g><g transform="translate(742.34,0) scale(3.3745) rotate(0)"><path d="M10 5L5 0L0 5L5 10L0 15L5 20L10 15L15 20L20 15L15 10L20 5L15 0L10 5Z" fill="#dadada"/></g><g transform="translate(0,67.49) scale(3.3745) rotate(0)"><path d="M10 5L5 0L0 5L5 10L0 15L5 20L10 15L15 20L20 15L15 10L20 5L15 0L10 5Z" fill="#d0f1e5"/></g><g transform="translate(67.49,67.49) scale(3.3745) rotate(0)"><path d="M10 5L5 0L0 5L5 10L0 15L5 20L10 15L15 20L20 15L15 10L20 5L15 0L10 5Z" fill="#8e8e8e"/></g><g transform="translate(134.97,67.49) scale(3.3745) rotate(0)"><path d="M10 5L5 0L0 5L5 10L0 15L5 20L10 15L15 20L20 15L15 10L20 5L15 0L10 5Z" fill="#e6f7f1"/></g><g transform="translate(202.46,67.49) scale(3.3745) rotate(0)"><path d="M10 5L5 0L0 5L5 10L0 15L5 20L10 15L15 20L20 15L15 10L20 5L15 0L10 5Z" fill="#8f8f8f"/></g><rect x="269.9428571428571" y="67.48571428571428" width="67.48571428571428" height="67.48571428571428" fill="#ffffff"/><g transform="translate(269.94,67.49) scale(1.687) rotate(0)"><path d="M10 5L5 0L0 5L5 10L0 15L5 20L10 15L15 20L20 15L15 10L20 5L15 0L10 5Z" fill="#a8a8a8"/></g><g transform="translate(303.69,67.49) scale(1.687) rotate(0)"><path d="M10 5L5 0L0 5L5 10L0 15L5 20L10 15L15 20L20 15L15 10L20 5L15 0L10 5Z" fill="#cff0e5"/></g><g transform="translate(269.94,101.23) scale(1.687) rotate(0)"><path d="M10 5L5 0L0 5L5 10L0 15L5 20L10 15L15 20L20 15L15 10L20 5L15 0L10 5Z" fill="#efefef"/></g><g transform="translate(303.69,101.23) scale(1.687) rotate(0)"><path d="M10 5L5 0L0 5L5 10L0 15L5 20L10 15L15 20L20 15L15 10L20 5L15 0L10 5Z" fill="#c0c0c0"/></g><g transform="translate(337.43,67.49) scale(3.3745) rotate(0)"><path d="M10 5L5 0L0 5L5 10L0 15L5 20L10 15L15 20L20 15L15 10L20 5L15 0L10 5Z" fill="#d0f1e5"/></g><g transform="translate(404.91,67.49) scale(3.3745) rotate(0)"><path d="M10 5L5 0L0 5L5 10L0 15L5 20L10 15L15 20L20 15L15 10L20 5L15 0L10 5Z" fill="#d5f2e8"/></g><g transform="translate(472.4,67.49) scale(3.3745) rotate(0)"><path d="M10 5L5 0L0 5L5 10L0 15L5 20L10 15L15 20L20 15L15 10L20 5L15 0L10 5Z" fill="#fafdfc"/></g><rect x="539.8857142857142" y="67.48571428571428" width="67.48571428571428" height="67.48571428571428" fill="#ffffff"/><g transform="translate(539.89,67.49) scale(1.687) rotate(0)"><path d="M10 5L5 0L0 5L5 10L0 15L5 20L10 15L15 20L20 15L15 10L20 5L15 0L10 5Z" fill="#b5b5b5"/></g><g transform="translate(573.63,67.49) scale(1.687) rotate(0)"><path d="M10 5L5 0L0 5L5 10L0 15L5 20L10 15L15 20L20 15L15 10L20 5L15 0L10 5Z" fill="#dbf4eb"/></g><g transform="translate(539.89,101.23) scale(1.687) rotate(0)"><path d="M10 5L5 0L0 5L5 10L0 15L5 20L10 15L15 20L20 15L15 10L20 5L15 0L10 5Z" fill="#e8f8f2"/></g><g transform="translate(573.63,101.23) scale(1.687) rotate(0)"><path d="M10 5L5 0L0 5L5 10L0 15L5 20L10 15L15 20L20 15L15 10L20 5L15 0L10 5Z" fill="#d8f3ea"/></g><g transform="translate(607.37,67.49) scale(3.3745) rotate(0)"><path d="M10 5L5 0L0 5L5 10L0 15L5 20L10 15L15 20L20 15L15 10L20 5L15 0L10 5Z" fill="#545454"/></g><g transform="translate(674.86,67.49) scale(3.3745) rotate(0)"><path d="M10 5L5 0L0 5L5 10L0 15L5 20L10 15L15 20L20 15L15 10L20 5L15 0L10 5Z" fill="#eeeeee"/></g><g transform="translate(742.34,67.49) scale(3.3745) rotate(0)"><path d="M10 5L5 0L0 5L5 10L0 15L5 20L10 15L15 20L20 15L15 10L20 5L15 0L10 5Z" fill="#9be1c8"/></g><g transform="translate(0,134.97) scale(3.3745) rotate(0)"><path d="M10 5L5 0L0 5L5 10L0 15L5 20L10 15L15 20L20 15L15 10L20 5L15 0L10 5Z" fill="#ddf5ed"/></g><rect x="67.48571428571428" y="134.97142857142856" width="67.48571428571428" height="67.48571428571428" fill="#ffffff"/><g transform="translate(67.49,134.97) scale(1.687) rotate(0)"><path d="M10 5L5 0L0 5L5 10L0 15L5 20L10 15L15 20L20 15L15 10L20 5L15 0L10 5Z" fill="#baead9"/></g><g transform="translate(101.23,134.97) scale(1.687) rotate(0)"><path d="M10 5L5 0L0 5L5 10L0 15L5 20L10 15L15 20L20 15L15 10L20 5L15 0L10 5Z" fill="#6f6f6f"/></g><g transform="translate(67.49,168.71) scale(1.687) rotate(0)"><path d="M10 5L5 0L0 5L5 10L0 15L5 20L10 15L15 20L20 15L15 10L20 5L15 0L10 5Z" fill="#cbefe3"/></g><g transform="translate(101.23,168.71) scale(1.687) rotate(0)"><path d="M10 5L5 0L0 5L5 10L0 15L5 20L10 15L15 20L20 15L15 10L20 5L15 0L10 5Z" fill="#9fe2ca"/></g><g transform="translate(134.97,134.97) scale(3.3745) rotate(0)"><path d="M10 5L5 0L0 5L5 10L0 15L5 20L10 15L15 20L20 15L15 10L20 5L15 0L10 5Z" fill="#b3b3b3"/></g><rect x="202.45714285714286" y="134.97142857142856" width="67.48571428571428" height="67.48571428571428" fill="#ffffff"/><g transform="translate(202.46,134.97) scale(1.687) rotate(0)"><path d="M10 5L5 0L0 5L5 10L0 15L5 20L10 15L15 20L20 15L15 10L20 5L15 0L10 5Z" fill="#ededed"/></g><g transform="translate(236.2,134.97) scale(1.687) rotate(0)"><path d="M10 5L5 0L0 5L5 10L0 15L5 20L10 15L15 20L20 15L15 10L20 5L15 0L10 5Z" fill="#c0ecdc"/></g><g transform="translate(202.46,168.71) scale(1.687) rotate(0)"><path d="M10 5L5 0L0 5L5 10L0 15L5 20L10 15L15 20L20 15L15 10L20 5L15 0L10 5Z" fill="#c6eedf"/></g><g transform="translate(236.2,168.71) scale(1.687) rotate(0)"><path d="M10 5L5 0L0 5L5 10L0 15L5 20L10 15L15 20L20 15L15 10L20 5L15 0L10 5Z" fill="#d2d2d2"/></g><g transform="translate(269.94,134.97) scale(3.3745) rotate(0)"><path d="M10 5L5 0L0 5L5 10L0 15L5 20L10 15L15 20L20 15L15 10L20 5L15 0L10 5Z" fill="#969696"/></g><g transform="translate(337.43,134.97) scale(3.3745) rotate(0)"><path d="M10 5L5 0L0 5L5 10L0 15L5 20L10 15L15 20L20 15L15 10L20 5L15 0L10 5Z" fill="#cff0e5"/></g><rect x="404.9142857142857" y="134.97142857142856" width="67.48571428571428" height="67.48571428571428" fill="#ffffff"/><g transform="translate(404.91,134.97) scale(1.687) rotate(0)"><path d="M10 5L5 0L0 5L5 10L0 15L5 20L10 15L15 20L20 15L15 10L20 5L15 0L10 5Z" fill="#ccf0e3"/></g><g transform="translate(438.66,134.97) scale(1.687) rotate(0)"><path d="M10 5L5 0L0 5L5 10L0 15L5 20L10 15L15 20L20 15L15 10L20 5L15 0L10 5Z" fill="#efefef"/></g><g transform="translate(404.91,168.71) scale(1.687) rotate(0)"><path d="M10 5L5 0L0 5L5 10L0 15L5 20L10 15L15 20L20 15L15 10L20 5L15 0L10 5Z" fill="#e0e0e0"/></g><g transform="translate(438.66,168.71) scale(1.687) rotate(0)"><path d="M10 5L5 0L0 5L5 10L0 15L5 20L10 15L15 20L20 15L15 10L20 5L15 0L10 5Z" fill="#6b6b6b"/></g><g transform="translate(472.4,134.97) scale(3.3745) rotate(0)"><path d="M10 5L5 0L0 5L5 10L0 15L5 20L10 15L15 20L20 15L15 10L20 5L15 0L10 5Z" fill="#b3b3b3"/></g><g transform="translate(539.89,134.97) scale(3.3745) rotate(0)"><path d="M10 5L5 0L0 5L5 10L0 15L5 20L10 15L15 20L20 15L15 10L20 5L15 0L10 5Z" fill="#b8b8b8"/></g><rect x="607.3714285714285" y="134.97142857142856" width="67.48571428571428" height="67.48571428571428" fill="#ffffff"/><g transform="translate(607.37,134.97) scale(1.687) rotate(0)"><path d="M10 5L5 0L0 5L5 10L0 15L5 20L10 15L15 20L20 15L15 10L20 5L15 0L10 5Z" fill="#b0e7d3"/></g><g transform="translate(641.11,134.97) scale(1.687) rotate(0)"><path d="M10 5L5 0L0 5L5 10L0 15L5 20L10 15L15 20L20 15L15 10L20 5L15 0L10 5Z" fill="#c9efe1"/></g><g transform="translate(607.37,168.71) scale(1.687) rotate(0)"><path d="M10 5L5 0L0 5L5 10L0 15L5 20L10 15L15 20L20 15L15 10L20 5L15 0L10 5Z" fill="#7a7a7a"/></g><g transform="translate(641.11,168.71) scale(1.687) rotate(0)"><path d="M10 5L5 0L0 5L5 10L0 15L5 20L10 15L15 20L20 15L15 10L20 5L15 0L10 5Z" fill="#caefe2"/></g><g transform="translate(674.86,134.97) scale(3.3745) rotate(0)"><path d="M10 5L5 0L0 5L5 10L0 15L5 20L10 15L15 20L20 15L15 10L20 5L15 0L10 5Z" fill="#a8e5cf"/></g><g transform="translate(742.34,134.97) scale(3.3745) rotate(0)"><path d="M10 5L5 0L0 5L5 10L0 15L5 20L10 15L15 20L20 15L15 10L20 5L15 0L10 5Z" fill="#d8d8d8"/></g><g transform="translate(0,202.46) scale(3.3745) rotate(0)"><path d="M10 5L5 0L0 5L5 10L0 15L5 20L10 15L15 20L20 15L15 10L20 5L15 0L10 5Z" fill="#828282"/></g><rect x="67.48571428571428" y="202.45714285714286" width="67.48571428571428" height="67.48571428571428" fill="#ffffff"/><g transform="translate(67.49,202.46) scale(1.687) rotate(0)"><path d="M10 5L5 0L0 5L5 10L0 15L5 20L10 15L15 20L20 15L15 10L20 5L15 0L10 5Z" fill="#9be1c8"/></g><g transform="translate(101.23,202.46) scale(1.687) rotate(0)"><path d="M10 5L5 0L0 5L5 10L0 15L5 20L10 15L15 20L20 15L15 10L20 5L15 0L10 5Z" fill="#84dabb"/></g><g transform="translate(67.49,236.2) scale(1.687) rotate(0)"><path d="M10 5L5 0L0 5L5 10L0 15L5 20L10 15L15 20L20 15L15 10L20 5L15 0L10 5Z" fill="#aae5d0"/></g><g transform="translate(101.23,236.2) scale(1.687) rotate(0)"><path d="M10 5L5 0L0 5L5 10L0 15L5 20L10 15L15 20L20 15L15 10L20 5L15 0L10 5Z" fill="#cecece"/></g><g transform="translate(134.97,202.46) scale(3.3745) rotate(0)"><path d="M10 5L5 0L0 5L5 10L0 15L5 20L10 15L15 20L20 15L15 10L20 5L15 0L10 5Z" fill="#838383"/></g><g transform="translate(202.46,202.46) scale(3.3745) rotate(0)"><path d="M10 5L5 0L0 5L5 10L0 15L5 20L10 15L15 20L20 15L15 10L20 5L15 0L10 5Z" fill="#87dbbd"/></g><g transform="translate(269.94,202.46) scale(3.3745) rotate(0)"><path d="M10 5L5 0L0 5L5 10L0 15L5 20L10 15L15 20L20 15L15 10L20 5L15 0L10 5Z" fill="#b3e8d5"/></g><rect x="337.4285714285714" y="202.45714285714286" width="67.48571428571428" height="67.48571428571428" fill="#ffffff"/><g transform="translate(337.43,202.46) scale(1.687) rotate(0)"><path d="M10 5L5 0L0 5L5 10L0 15L5 20L10 15L15 20L20 15L15 10L20 5L15 0L10 5Z" fill="#d8d8d8"/></g><g transform="translate(371.17,202.46) scale(1.687) rotate(0)"><path d="M10 5L5 0L0 5L5 10L0 15L5 20L10 15L15 20L20 15L15 10L20 5L15 0L10 5Z" fill="#c1c1c1"/></g><g transform="translate(337.43,236.2) scale(1.687) rotate(0)"><path d="M10 5L5 0L0 5L5 10L0 15L5 20L10 15L15 20L20 15L15 10L20 5L15 0L10 5Z" fill="#b5b5b5"/></g><g transform="translate(371.17,236.2) scale(1.687) rotate(0)"><path d="M10 5L5 0L0 5L5 10L0 15L5 20L10 15L15 20L20 15L15 10L20 5L15 0L10 5Z" fill="#84dabc"/></g><g transform="translate(404.91,202.46) scale(3.3745) rotate(0)"><path d="M10 5L5 0L0 5L5 10L0 15L5 20L10 15L15 20L20 15L15 10L20 5L15 0L10 5Z" fill="#9c9c9c"/></g><g transform="translate(472.4,202.46) scale(3.3745) rotate(0)"><path d="M10 5L5 0L0 5L5 10L0 15L5 20L10 15L15 20L20 15L15 10L20 5L15 0L10 5Z" fill="#737373"/></g><g transform="translate(539.89,202.46) scale(3.3745) rotate(0)"><path d="M10 5L5 0L0 5L5 10L0 15L5 20L10 15L15 20L20 15L15 10L20 5L15 0L10 5Z" fill="#cfcfcf"/></g><g transform="translate(607.37,202.46) scale(3.3745) rotate(0)"><path d="M10 5L5 0L0 5L5 10L0 15L5 20L10 15L15 20L20 15L15 10L20 5L15 0L10 5Z" fill="#f8fdfb"/></g><g transform="translate(674.86,202.46) scale(3.3745) rotate(0)"><path d="M10 5L5 0L0 5L5 10L0 15L5 20L10 15L15 20L20 15L15 10L20 5L15 0L10 5Z" fill="#747474"/></g><g transform="translate(742.34,202.46) scale(3.3745) rotate(0)"><path d="M10 5L5 0L0 5L5 10L0 15L5 20L10 15L15 20L20 15L15 10L20 5L15 0L10 5Z" fill="#87dbbd"/></g><rect x="0" y="269.9428571428571" width="67.48571428571428" height="67.48571428571428" fill="#ffffff"/><g transform="translate(0,269.94) scale(1.687) rotate(0)"><path d="M10 5L5 0L0 5L5 10L0 15L5 20L10 15L15 20L20 15L15 10L20 5L15 0L10 5Z" fill="#f6fcfa"/></g><g transform="translate(33.74,269.94) scale(1.687) rotate(0)"><path d="M10 5L5 0L0 5L5 10L0 15L5 20L10 15L15 20L20 15L15 10L20 5L15 0L10 5Z" fill="#f1f1f1"/></g><g transform="translate(0,303.69) scale(1.687) rotate(0)"><path d="M10 5L5 0L0 5L5 10L0 15L5 20L10 15L15 20L20 15L15 10L20 5L15 0L10 5Z" fill="#d1f1e6"/></g><g transform="translate(33.74,303.69) scale(1.687) rotate(0)"><path d="M10 5L5 0L0 5L5 10L0 15L5 20L10 15L15 20L20 15L15 10L20 5L15 0L10 5Z" fill="#8eddc1"/></g><g transform="translate(67.49,269.94) scale(3.3745) rotate(0)"><path d="M10 5L5 0L0 5L5 10L0 15L5 20L10 15L15 20L20 15L15 10L20 5L15 0L10 5Z" fill="#585858"/></g><g transform="translate(134.97,269.94) scale(3.3745) rotate(0)"><path d="M10 5L5 0L0 5L5 10L0 15L5 20L10 15L15 20L20 15L15 10L20 5L15 0L10 5Z" fill="#646464"/></g><g transform="translate(202.46,269.94) scale(3.3745) rotate(0)"><path d="M10 5L5 0L0 5L5 10L0 15L5 20L10 15L15 20L20 15L15 10L20 5L15 0L10 5Z" fill="#b7b7b7"/></g><g transform="translate(269.94,269.94) scale(3.3745) rotate(0)"><path d="M10 5L5 0L0 5L5 10L0 15L5 20L10 15L15 20L20 15L15 10L20 5L15 0L10 5Z" fill="#84dabc"/></g><g transform="translate(337.43,269.94) scale(3.3745) rotate(0)"><path d="M10 5L5 0L0 5L5 10L0 15L5 20L10 15L15 20L20 15L15 10L20 5L15 0L10 5Z" fill="#a9e5d0"/></g><g transform="translate(404.91,269.94) scale(3.3745) rotate(0)"><path d="M10 5L5 0L0 5L5 10L0 15L5 20L10 15L15 20L20 15L15 10L20 5L15 0L10 5Z" fill="#dedede"/></g><rect x="472.4" y="269.9428571428571" width="67.48571428571428" height="67.48571428571428" fill="#ffffff"/><g transform="translate(472.4,269.94) scale(1.687) rotate(0)"><path d="M10 5L5 0L0 5L5 10L0 15L5 20L10 15L15 20L20 15L15 10L20 5L15 0L10 5Z" fill="#bfecdc"/></g><g transform="translate(506.14,269.94) scale(1.687) rotate(0)"><path d="M10 5L5 0L0 5L5 10L0 15L5 20L10 15L15 20L20 15L15 10L20 5L15 0L10 5Z" fill="#75d5b3"/></g><g transform="translate(472.4,303.69) scale(1.687) rotate(0)"><path d="M10 5L5 0L0 5L5 10L0 15L5 20L10 15L15 20L20 15L15 10L20 5L15 0L10 5Z" fill="#949494"/></g><g transform="translate(506.14,303.69) scale(1.687) rotate(0)"><path d="M10 5L5 0L0 5L5 10L0 15L5 20L10 15L15 20L20 15L15 10L20 5L15 0L10 5Z" fill="#f8f8f8"/></g><g transform="translate(539.89,269.94) scale(3.3745) rotate(0)"><path d="M10 5L5 0L0 5L5 10L0 15L5 20L10 15L15 20L20 15L15 10L20 5L15 0L10 5Z" fill="#6c6c6c"/></g><g transform="translate(607.37,269.94) scale(3.3745) rotate(0)"><path d="M10 5L5 0L0 5L5 10L0 15L5 20L10 15L15 20L20 15L15 10L20 5L15 0L10 5Z" fill="#747474"/></g><g transform="translate(674.86,269.94) scale(3.3745) rotate(0)"><path d="M10 5L5 0L0 5L5 10L0 15L5 20L10 15L15 20L20 15L15 10L20 5L15 0L10 5Z" fill="#afafaf"/></g><g transform="translate(742.34,269.94) scale(3.3745) rotate(0)"><path d="M10 5L5 0L0 5L5 10L0 15L5 20L10 15L15 20L20 15L15 10L20 5L15 0L10 5Z" fill="#74d5b3"/></g><rect x="0" y="337.4285714285714" width="67.48571428571428" height="67.48571428571428" fill="#ffffff"/><g transform="translate(0,337.43) scale(1.687) rotate(0)"><path d="M10 5L5 0L0 5L5 10L0 15L5 20L10 15L15 20L20 15L15 10L20 5L15 0L10 5Z" fill="#fbfefd"/></g><g transform="translate(33.74,337.43) scale(1.687) rotate(0)"><path d="M10 5L5 0L0 5L5 10L0 15L5 20L10 15L15 20L20 15L15 10L20 5L15 0L10 5Z" fill="#bbead9"/></g><g transform="translate(0,371.17) scale(1.687) rotate(0)"><path d="M10 5L5 0L0 5L5 10L0 15L5 20L10 15L15 20L20 15L15 10L20 5L15 0L10 5Z" fill="#9f9f9f"/></g><g transform="translate(33.74,371.17) scale(1.687) rotate(0)"><path d="M10 5L5 0L0 5L5 10L0 15L5 20L10 15L15 20L20 15L15 10L20 5L15 0L10 5Z" fill="#daf4eb"/></g><g transform="translate(67.49,337.43) scale(3.3745) rotate(0)"><path d="M10 5L5 0L0 5L5 10L0 15L5 20L10 15L15 20L20 15L15 10L20 5L15 0L10 5Z" fill="#adadad"/></g><g transform="translate(134.97,337.43) scale(3.3745) rotate(0)"><path d="M10 5L5 0L0 5L5 10L0 15L5 20L10 15L15 20L20 15L15 10L20 5L15 0L10 5Z" fill="#c5c5c5"/></g><rect x="202.45714285714286" y="337.4285714285714" width="67.48571428571428" height="67.48571428571428" fill="#ffffff"/><g transform="translate(202.46,337.43) scale(1.687) rotate(0)"><path d="M10 5L5 0L0 5L5 10L0 15L5 20L10 15L15 20L20 15L15 10L20 5L15 0L10 5Z" fill="#e9f8f3"/></g><g transform="translate(236.2,337.43) scale(1.687) rotate(0)"><path d="M10 5L5 0L0 5L5 10L0 15L5 20L10 15L15 20L20 15L15 10L20 5L15 0L10 5Z" fill="#cccccc"/></g><g transform="translate(202.46,371.17) scale(1.687) rotate(0)"><path d="M10 5L5 0L0 5L5 10L0 15L5 20L10 15L15 20L20 15L15 10L20 5L15 0L10 5Z" fill="#d0f1e5"/></g><g transform="translate(236.2,371.17) scale(1.687) rotate(0)"><path d="M10 5L5 0L0 5L5 10L0 15L5 20L10 15L15 20L20 15L15 10L20 5L15 0L10 5Z" fill="#d7f3e9"/></g><g transform="translate(269.94,337.43) scale(3.3745) rotate(0)"><path d="M10 5L5 0L0 5L5 10L0 15L5 20L10 15L15 20L20 15L15 10L20 5L15 0L10 5Z" fill="#9be1c8"/></g><g transform="translate(337.43,337.43) scale(3.3745) rotate(0)"><path d="M10 5L5 0L0 5L5 10L0 15L5 20L10 15L15 20L20 15L15 10L20 5L15 0L10 5Z" fill="#c0c0c0"/></g><g transform="translate(404.91,337.43) scale(3.3745) rotate(0)"><path d="M10 5L5 0L0 5L5 10L0 15L5 20L10 15L15 20L20 15L15 10L20 5L15 0L10 5Z" fill="#bfecdc"/></g><g transform="translate(472.4,337.43) scale(3.3745) rotate(0)"><path d="M10 5L5 0L0 5L5 10L0 15L5 20L10 15L15 20L20 15L15 10L20 5L15 0L10 5Z" fill="#9be1c8"/></g><g transform="translate(539.89,337.43) scale(3.3745) rotate(0)"><path d="M10 5L5 0L0 5L5 10L0 15L5 20L10 15L15 20L20 15L15 10L20 5L15 0L10 5Z" fill="#99e0c7"/></g><g transform="translate(607.37,337.43) scale(3.3745) rotate(0)"><path d="M10 5L5 0L0 5L5 10L0 15L5 20L10 15L15 20L20 15L15 10L20 5L15 0L10 5Z" fill="#cfcfcf"/></g><g transform="translate(674.86,337.43) scale(3.3745) rotate(0)"><path d="M10 5L5 0L0 5L5 10L0 15L5 20L10 15L15 20L20 15L15 10L20 5L15 0L10 5Z" fill="#f2f2f2"/></g><g transform="translate(742.34,337.43) scale(3.3745) rotate(0)"><path d="M10 5L5 0L0 5L5 10L0 15L5 20L10 15L15 20L20 15L15 10L20 5L15 0L10 5Z" fill="#5c5c5c"/></g><g transform="translate(0,404.91) scale(3.3745) rotate(0)"><path d="M10 5L5 0L0 5L5 10L0 15L5 20L10 15L15 20L20 15L15 10L20 5L15 0L10 5Z" fill="#474747"/></g><g transform="translate(67.49,404.91) scale(3.3745) rotate(0)"><path d="M10 5L5 0L0 5L5 10L0 15L5 20L10 15L15 20L20 15L15 10L20 5L15 0L10 5Z" fill="#9ee2ca"/></g><g transform="translate(134.97,404.91) scale(3.3745) rotate(0)"><path d="M10 5L5 0L0 5L5 10L0 15L5 20L10 15L15 20L20 15L15 10L20 5L15 0L10 5Z" fill="#b0e7d4"/></g><g transform="translate(202.46,404.91) scale(3.3745) rotate(0)"><path d="M10 5L5 0L0 5L5 10L0 15L5 20L10 15L15 20L20 15L15 10L20 5L15 0L10 5Z" fill="#5f5f5f"/></g><g transform="translate(269.94,404.91) scale(3.3745) rotate(0)"><path d="M10 5L5 0L0 5L5 10L0 15L5 20L10 15L15 20L20 15L15 10L20 5L15 0L10 5Z" fill="#7fd8b9"/></g><g transform="translate(337.43,404.91) scale(3.3745) rotate(0)"><path d="M10 5L5 0L0 5L5 10L0 15L5 20L10 15L15 20L20 15L15 10L20 5L15 0L10 5Z" fill="#a1a1a1"/></g><g transform="translate(404.91,404.91) scale(3.3745) rotate(0)"><path d="M10 5L5 0L0 5L5 10L0 15L5 20L10 15L15 20L20 15L15 10L20 5L15 0L10 5Z" fill="#9de1c9"/></g><rect x="472.4" y="404.9142857142857" width="67.48571428571428" height="67.48571428571428" fill="#ffffff"/><g transform="translate(472.4,404.91) scale(1.687) rotate(0)"><path d="M10 5L5 0L0 5L5 10L0 15L5 20L10 15L15 20L20 15L15 10L20 5L15 0L10 5Z" fill="#bdebdb"/></g><g transform="translate(506.14,404.91) scale(1.687) rotate(0)"><path d="M10 5L5 0L0 5L5 10L0 15L5 20L10 15L15 20L20 15L15 10L20 5L15 0L10 5Z" fill="#898989"/></g><g transform="translate(472.4,438.66) scale(1.687) rotate(0)"><path d="M10 5L5 0L0 5L5 10L0 15L5 20L10 15L15 20L20 15L15 10L20 5L15 0L10 5Z" fill="#7f7f7f"/></g><g transform="translate(506.14,438.66) scale(1.687) rotate(0)"><path d="M10 5L5 0L0 5L5 10L0 15L5 20L10 15L15 20L20 15L15 10L20 5L15 0L10 5Z" fill="#9be1c8"/></g><g transform="translate(539.89,404.91) scale(3.3745) rotate(0)"><path d="M10 5L5 0L0 5L5 10L0 15L5 20L10 15L15 20L20 15L15 10L20 5L15 0L10 5Z" fill="#424242"/></g><g transform="translate(607.37,404.91) scale(3.3745) rotate(0)"><path d="M10 5L5 0L0 5L5 10L0 15L5 20L10 15L15 20L20 15L15 10L20 5L15 0L10 5Z" fill="#71d4b1"/></g><g transform="translate(674.86,404.91) scale(3.3745) rotate(0)"><path d="M10 5L5 0L0 5L5 10L0 15L5 20L10 15L15 20L20 15L15 10L20 5L15 0L10 5Z" fill="#646464"/></g><g transform="translate(742.34,404.91) scale(3.3745) rotate(0)"><path d="M10 5L5 0L0 5L5 10L0 15L5 20L10 15L15 20L20 15L15 10L20 5L15 0L10 5Z" fill="#b9ead9"/></g></g></svg>