<?xml version="1.0" standalone="no"?><svg xmlns:xlink="http://www.w3.org/1999/xlink" xmlns="http://www.w3.org/2000/svg" viewBox="0 0 1000 583.3359059055969" preserveAspectRatio="xMaxYMax slice"><g transform="scale(1.234834686506344)"><rect x="0" y="0" width="809.8285714285714" height="472.4" fill="#3E3E3E"/><circle cx="33.739999999999995" cy="33.739999999999995" r="6.75" fill="#71D4B1"/><circle cx="101.23" cy="33.739999999999995" r="6.75" fill="#71D4B1"/><circle cx="168.72" cy="33.739999999999995" r="6.75" fill="#4d4d4d"/><circle cx="236.2" cy="33.739999999999995" r="6.75" fill="#4d4d4d"/><circle cx="303.69" cy="33.739999999999995" r="6.75" fill="#4d4d4d"/><circle cx="371.17" cy="33.739999999999995" r="6.75" fill="#4d4d4d"/><circle cx="438.66" cy="33.739999999999995" r="6.75" fill="#71D4B1"/><circle cx="506.14" cy="33.739999999999995" r="6.75" fill="#4d4d4d"/><circle cx="573.63" cy="33.739999999999995" r="6.75" fill="#4d4d4d"/><circle cx="641.12" cy="33.739999999999995" r="6.75" fill="#4d4d4d"/><circle cx="708.6" cy="33.739999999999995" r="6.75" fill="#71D4B1"/><circle cx="776.09" cy="33.739999999999995" r="6.75" fill="#71D4B1"/><circle cx="33.739999999999995" cy="101.23" r="6.75" fill="#4d4d4d"/><circle cx="101.22999999999999" cy="101.22999999999999" r="8.6" fill="#4d4d4d"/><circle cx="168.70999999999998" cy="101.23" r="10.45" fill="#4d4d4d"/><circle cx="236.20000000000002" cy="101.23" r="12.3" fill="#71D4B1"/><circle cx="303.68499999999995" cy="101.235" r="14.155" fill="#4d4d4d"/><circle cx="371.175" cy="101.225" r="16.005" fill="#71D4B1"/><circle cx="438.655" cy="101.225" r="16.005" fill="#71D4B1"/><circle cx="506.145" cy="101.225" r="16.005" fill="#71D4B1"/><circle cx="573.635" cy="101.235" r="14.155" fill="#71D4B1"/><circle cx="641.1099999999999" cy="101.23" r="12.3" fill="#4d4d4d"/><circle cx="708.6" cy="101.23" r="10.45" fill="#4d4d4d"/><circle cx="776.09" cy="101.22999999999999" r="8.6" fill="#4d4d4d"/><circle cx="33.739999999999995" cy="168.72" r="6.75" fill="#71D4B1"/><circle cx="101.23" cy="168.70999999999998" r="10.45" fill="#71D4B1"/><circle cx="168.715" cy="168.715" r="14.155" fill="#4d4d4d"/><circle cx="236.20499999999998" cy="168.715" r="17.855" fill="#4d4d4d"/><circle cx="303.685" cy="168.715" r="21.555" fill="#71D4B1"/><circle cx="371.17" cy="168.72" r="25.26" fill="#4d4d4d"/><circle cx="438.65999999999997" cy="168.72" r="25.26" fill="#4d4d4d"/><circle cx="506.14" cy="168.72" r="25.26" fill="#71D4B1"/><circle cx="573.625" cy="168.715" r="21.555" fill="#71D4B1"/><circle cx="641.115" cy="168.715" r="17.855" fill="#71D4B1"/><circle cx="708.605" cy="168.715" r="14.155" fill="#4d4d4d"/><circle cx="776.09" cy="168.70999999999998" r="10.45" fill="#71D4B1"/><circle cx="33.739999999999995" cy="236.2" r="6.75" fill="#71D4B1"/><circle cx="101.225" cy="236.19500000000002" r="12.145" fill="#4d4d4d"/><circle cx="168.71499999999997" cy="236.195" r="17.545" fill="#71D4B1"/><circle cx="236.195" cy="236.195" r="22.945" fill="#71D4B1"/><circle cx="303.68499999999995" cy="236.205" r="28.345" fill="#4d4d4d"/><circle cx="371.175" cy="236.205" r="33.745" fill="#71D4B1"/><circle cx="438.65500000000003" cy="236.205" r="33.745" fill="#71D4B1"/><circle cx="506.145" cy="236.205" r="33.745" fill="#4d4d4d"/><circle cx="573.625" cy="236.205" r="28.345" fill="#71D4B1"/><circle cx="641.115" cy="236.195" r="22.945" fill="#4d4d4d"/><circle cx="708.5949999999999" cy="236.195" r="17.545" fill="#4d4d4d"/><circle cx="776.085" cy="236.19500000000002" r="12.145" fill="#71D4B1"/><circle cx="33.739999999999995" cy="303.69" r="6.75" fill="#4d4d4d"/><circle cx="101.225" cy="303.685" r="12.145" fill="#71D4B1"/><circle cx="168.71499999999997" cy="303.685" r="17.545" fill="#4d4d4d"/><circle cx="236.195" cy="303.685" r="22.945" fill="#71D4B1"/><circle cx="303.68499999999995" cy="303.68499999999995" r="28.345" fill="#71D4B1"/><circle cx="371.175" cy="303.685" r="33.745" fill="#4d4d4d"/><circle cx="438.65500000000003" cy="303.685" r="33.745" fill="#71D4B1"/><circle cx="506.145" cy="303.685" r="33.745" fill="#71D4B1"/><circle cx="573.625" cy="303.68499999999995" r="28.345" fill="#71D4B1"/><circle cx="641.115" cy="303.685" r="22.945" fill="#4d4d4d"/><circle cx="708.5949999999999" cy="303.685" r="17.545" fill="#4d4d4d"/><circle cx="776.085" cy="303.685" r="12.145" fill="#71D4B1"/><circle cx="33.739999999999995" cy="371.17" r="6.75" fill="#71D4B1"/><circle cx="101.23" cy="371.17" r="10.45" fill="#4d4d4d"/><circle cx="168.715" cy="371.17499999999995" r="14.155" fill="#71D4B1"/><circle cx="236.20499999999998" cy="371.175" r="17.855" fill="#71D4B1"/><circle cx="303.685" cy="371.165" r="21.555" fill="#4d4d4d"/><circle cx="371.17" cy="371.17" r="25.26" fill="#71D4B1"/><circle cx="438.65999999999997" cy="371.17" r="25.26" fill="#4d4d4d"/><circle cx="506.14" cy="371.17" r="25.26" fill="#4d4d4d"/><circle cx="573.625" cy="371.165" r="21.555" fill="#71D4B1"/><circle cx="641.115" cy="371.175" r="17.855" fill="#4d4d4d"/><circle cx="708.605" cy="371.17499999999995" r="14.155" fill="#4d4d4d"/><circle cx="776.09" cy="371.17" r="10.45" fill="#4d4d4d"/><circle cx="33.739999999999995" cy="438.66" r="6.75" fill="#4d4d4d"/><circle cx="101.22999999999999" cy="438.66" r="8.6" fill="#71D4B1"/><circle cx="168.70999999999998" cy="438.65999999999997" r="10.45" fill="#71D4B1"/><circle cx="236.20000000000002" cy="438.66" r="12.3" fill="#4d4d4d"/><circle cx="303.68499999999995" cy="438.655" r="14.155" fill="#4d4d4d"/><circle cx="371.175" cy="438.655" r="16.005" fill="#71D4B1"/><circle cx="438.655" cy="438.655" r="16.005" fill="#71D4B1"/><circle cx="506.145" cy="438.655" r="16.005" fill="#71D4B1"/><circle cx="573.635" cy="438.655" r="14.155" fill="#4d4d4d"/><circle cx="641.1099999999999" cy="438.66" r="12.3" fill="#71D4B1"/><circle cx="708.6" cy="438.65999999999997" r="10.45" fill="#71D4B1"/><circle cx="776.09" cy="438.66" r="8.6" fill="#4d4d4d"/></g></svg>